<mxfile host="65bd71144e" pages="3">
    <diagram id="wjJB-UHZPFGpP7L10ra-" name="use case">
        <mxGraphModel dx="564" dy="478" grid="1" gridSize="10" guides="1" tooltips="1" connect="1" arrows="1" fold="1" page="1" pageScale="1" pageWidth="850" pageHeight="1100" math="0" shadow="0">
            <root>
                <mxCell id="0"/>
                <mxCell id="1" parent="0"/>
                <mxCell id="HVNpT6EHEbpRrJGU6gBK-13" value="KELOLA DATA KRETERIA DAN BOBOT" style="ellipse;whiteSpace=wrap;html=1;" parent="1" vertex="1">
                    <mxGeometry x="340" y="290" width="120" height="80" as="geometry"/>
                </mxCell>
                <mxCell id="HVNpT6EHEbpRrJGU6gBK-14" value="ENGELOLA PERIODE PENILAIAN" style="ellipse;whiteSpace=wrap;html=1;" parent="1" vertex="1">
                    <mxGeometry x="340" y="400" width="120" height="80" as="geometry"/>
                </mxCell>
                <mxCell id="HVNpT6EHEbpRrJGU6gBK-15" value="MENGELOLA PERHITUNGAN" style="ellipse;whiteSpace=wrap;html=1;" parent="1" vertex="1">
                    <mxGeometry x="340" y="510" width="120" height="80" as="geometry"/>
                </mxCell>
                <mxCell id="HVNpT6EHEbpRrJGU6gBK-16" value="CETAK HASIL PERHITUNGAN" style="ellipse;whiteSpace=wrap;html=1;" parent="1" vertex="1">
                    <mxGeometry x="340" y="620" width="120" height="80" as="geometry"/>
                </mxCell>
                <mxCell id="HVNpT6EHEbpRrJGU6gBK-17" value="LOGIN" style="ellipse;whiteSpace=wrap;html=1;" parent="1" vertex="1">
                    <mxGeometry x="340" y="70" width="120" height="80" as="geometry"/>
                </mxCell>
                <mxCell id="HVNpT6EHEbpRrJGU6gBK-18" value="KELOLA DATA KARYAWAN" style="ellipse;whiteSpace=wrap;html=1;" parent="1" vertex="1">
                    <mxGeometry x="340" y="180" width="120" height="80" as="geometry"/>
                </mxCell>
                <mxCell id="HVNpT6EHEbpRrJGU6gBK-19" value="MELIHAT HASIL PERHITUNGAN" style="ellipse;whiteSpace=wrap;html=1;" parent="1" vertex="1">
                    <mxGeometry x="340" y="740" width="120" height="80" as="geometry"/>
                </mxCell>
                <mxCell id="HVNpT6EHEbpRrJGU6gBK-20" value="USER" style="shape=umlActor;verticalLabelPosition=bottom;verticalAlign=top;html=1;outlineConnect=0;" parent="1" vertex="1">
                    <mxGeometry x="140" y="360" width="30" height="60" as="geometry"/>
                </mxCell>
                <mxCell id="HVNpT6EHEbpRrJGU6gBK-21" value="KARYAWAN" style="shape=umlActor;verticalLabelPosition=bottom;verticalAlign=top;html=1;outlineConnect=0;" parent="1" vertex="1">
                    <mxGeometry x="640" y="360" width="30" height="60" as="geometry"/>
                </mxCell>
                <mxCell id="HVNpT6EHEbpRrJGU6gBK-25" value="" style="endArrow=classic;html=1;" parent="1" target="HVNpT6EHEbpRrJGU6gBK-18" edge="1">
                    <mxGeometry width="50" height="50" relative="1" as="geometry">
                        <mxPoint x="190" y="380" as="sourcePoint"/>
                        <mxPoint x="240" y="330" as="targetPoint"/>
                    </mxGeometry>
                </mxCell>
                <mxCell id="HVNpT6EHEbpRrJGU6gBK-31" value="" style="endArrow=classic;html=1;entryX=0;entryY=0.5;entryDx=0;entryDy=0;" parent="1" target="HVNpT6EHEbpRrJGU6gBK-14" edge="1">
                    <mxGeometry width="50" height="50" relative="1" as="geometry">
                        <mxPoint x="190" y="380" as="sourcePoint"/>
                        <mxPoint x="260" y="420" as="targetPoint"/>
                    </mxGeometry>
                </mxCell>
                <mxCell id="HVNpT6EHEbpRrJGU6gBK-32" value="" style="endArrow=classic;html=1;entryX=0.083;entryY=0.838;entryDx=0;entryDy=0;entryPerimeter=0;" parent="1" target="HVNpT6EHEbpRrJGU6gBK-17" edge="1">
                    <mxGeometry width="50" height="50" relative="1" as="geometry">
                        <mxPoint x="190" y="380" as="sourcePoint"/>
                        <mxPoint x="270" y="200" as="targetPoint"/>
                    </mxGeometry>
                </mxCell>
                <mxCell id="HVNpT6EHEbpRrJGU6gBK-33" value="" style="endArrow=classic;html=1;entryX=0.042;entryY=0.338;entryDx=0;entryDy=0;entryPerimeter=0;" parent="1" target="HVNpT6EHEbpRrJGU6gBK-15" edge="1">
                    <mxGeometry width="50" height="50" relative="1" as="geometry">
                        <mxPoint x="190" y="380" as="sourcePoint"/>
                        <mxPoint x="339" y="539" as="targetPoint"/>
                    </mxGeometry>
                </mxCell>
                <mxCell id="HVNpT6EHEbpRrJGU6gBK-34" value="" style="endArrow=classic;html=1;entryX=0.025;entryY=0.313;entryDx=0;entryDy=0;entryPerimeter=0;" parent="1" target="HVNpT6EHEbpRrJGU6gBK-16" edge="1">
                    <mxGeometry width="50" height="50" relative="1" as="geometry">
                        <mxPoint x="190" y="380" as="sourcePoint"/>
                        <mxPoint x="370" y="570" as="targetPoint"/>
                    </mxGeometry>
                </mxCell>
                <mxCell id="HVNpT6EHEbpRrJGU6gBK-35" value="" style="endArrow=classic;html=1;entryX=0.05;entryY=0.263;entryDx=0;entryDy=0;entryPerimeter=0;" parent="1" target="HVNpT6EHEbpRrJGU6gBK-19" edge="1">
                    <mxGeometry width="50" height="50" relative="1" as="geometry">
                        <mxPoint x="190" y="380" as="sourcePoint"/>
                        <mxPoint x="310" y="650" as="targetPoint"/>
                    </mxGeometry>
                </mxCell>
                <mxCell id="HVNpT6EHEbpRrJGU6gBK-36" value="" style="endArrow=classic;html=1;exitX=0;exitY=0.3333333333333333;exitDx=0;exitDy=0;exitPerimeter=0;entryX=1;entryY=0.5;entryDx=0;entryDy=0;" parent="1" source="HVNpT6EHEbpRrJGU6gBK-21" target="HVNpT6EHEbpRrJGU6gBK-19" edge="1">
                    <mxGeometry width="50" height="50" relative="1" as="geometry">
                        <mxPoint x="320" y="620" as="sourcePoint"/>
                        <mxPoint x="370" y="570" as="targetPoint"/>
                    </mxGeometry>
                </mxCell>
                <mxCell id="HVNpT6EHEbpRrJGU6gBK-37" value="" style="endArrow=classic;html=1;entryX=0;entryY=0.663;entryDx=0;entryDy=0;entryPerimeter=0;" parent="1" target="HVNpT6EHEbpRrJGU6gBK-13" edge="1">
                    <mxGeometry width="50" height="50" relative="1" as="geometry">
                        <mxPoint x="200" y="380" as="sourcePoint"/>
                        <mxPoint x="370" y="370" as="targetPoint"/>
                    </mxGeometry>
                </mxCell>
            </root>
        </mxGraphModel>
    </diagram>
    <diagram id="amvdQy7yq_QUCRY1aBBe" name="waiframe">
        <mxGraphModel dx="-2836" dy="478" grid="1" gridSize="10" guides="1" tooltips="1" connect="1" arrows="1" fold="1" page="1" pageScale="1" pageWidth="850" pageHeight="1100" math="0" shadow="0">
            <root>
                <mxCell id="Oh-IbdJAaRqJVPJ2qe_I-0"/>
                <mxCell id="Oh-IbdJAaRqJVPJ2qe_I-1" parent="Oh-IbdJAaRqJVPJ2qe_I-0"/>
                <mxCell id="tNmkC3opJ2AgtzRq_YRS-1" value="&amp;nbsp;" style="rounded=0;whiteSpace=wrap;html=1;sketch=1;" parent="Oh-IbdJAaRqJVPJ2qe_I-1" vertex="1">
                    <mxGeometry x="3457.1" y="63" width="810" height="590" as="geometry"/>
                </mxCell>
                <mxCell id="tNmkC3opJ2AgtzRq_YRS-2" value="" style="rounded=0;whiteSpace=wrap;html=1;fillColor=none;strokeColor=#0E1319;strokeWidth=1;sketch=1;" parent="Oh-IbdJAaRqJVPJ2qe_I-1" vertex="1">
                    <mxGeometry x="3457.1" y="63" width="201" height="590" as="geometry"/>
                </mxCell>
                <mxCell id="tNmkC3opJ2AgtzRq_YRS-7" value="" style="pointerEvents=1;shadow=0;dashed=0;html=1;strokeColor=none;labelPosition=center;verticalLabelPosition=bottom;verticalAlign=top;align=center;fillColor=#505050;shape=mxgraph.mscae.intune.account_portal;strokeWidth=1;fontFamily=Nunito Sans;fontSource=https%3A%2F%2Ffonts.googleapis.com%2Fcss%3Ffamily%3DNunito%2BSans;fontSize=15;rounded=0;sketch=1;" parent="Oh-IbdJAaRqJVPJ2qe_I-1" vertex="1">
                    <mxGeometry x="3481" y="82.45" width="159.55" height="160" as="geometry"/>
                </mxCell>
                <mxCell id="tNmkC3opJ2AgtzRq_YRS-8" value="&lt;font face=&quot;Nunito Sans&quot;&gt;&lt;span style=&quot;font-size: 15px;&quot;&gt;user&lt;/span&gt;&lt;/font&gt;" style="text;html=1;strokeColor=none;fillColor=none;align=center;verticalAlign=middle;whiteSpace=wrap;rounded=0;strokeWidth=1;sketch=1;" parent="Oh-IbdJAaRqJVPJ2qe_I-1" vertex="1">
                    <mxGeometry x="3533.17" y="249.55" width="40" height="10" as="geometry"/>
                </mxCell>
                <mxCell id="tNmkC3opJ2AgtzRq_YRS-10" value="" style="pointerEvents=1;shadow=0;dashed=0;html=1;strokeColor=none;fillColor=#00120E;labelPosition=center;verticalLabelPosition=bottom;verticalAlign=top;align=center;outlineConnect=0;shape=mxgraph.veeam2.folder;strokeWidth=1;fontFamily=Nunito Sans;fontSource=https%3A%2F%2Ffonts.googleapis.com%2Fcss%3Ffamily%3DNunito%2BSans;fontSize=15;rounded=0;sketch=1;" parent="Oh-IbdJAaRqJVPJ2qe_I-1" vertex="1">
                    <mxGeometry x="3674.15" y="80" width="35" height="30" as="geometry"/>
                </mxCell>
                <mxCell id="tNmkC3opJ2AgtzRq_YRS-11" value="&lt;font style=&quot;font-size: 15px;&quot; data-font-src=&quot;https://fonts.googleapis.com/css?family=Nunito+Sans&quot; face=&quot;Nunito Sans&quot;&gt;Data Master&lt;/font&gt;" style="text;html=1;strokeColor=none;fillColor=none;align=center;verticalAlign=middle;whiteSpace=wrap;rounded=0;strokeWidth=1;sketch=1;" parent="Oh-IbdJAaRqJVPJ2qe_I-1" vertex="1">
                    <mxGeometry x="3717.6" y="80" width="90.5" height="30" as="geometry"/>
                </mxCell>
                <mxCell id="tNmkC3opJ2AgtzRq_YRS-14" value="&lt;font style=&quot;font-size: 15px;&quot; data-font-src=&quot;https://fonts.googleapis.com/css?family=Nunito+Sans&quot; face=&quot;Nunito Sans&quot;&gt;Perhitungan&lt;/font&gt;" style="text;html=1;strokeColor=none;fillColor=none;align=center;verticalAlign=middle;whiteSpace=wrap;rounded=0;strokeWidth=1;sketch=1;" parent="Oh-IbdJAaRqJVPJ2qe_I-1" vertex="1">
                    <mxGeometry x="4050.1" y="81.00000000000001" width="90.5" height="30" as="geometry"/>
                </mxCell>
                <mxCell id="tNmkC3opJ2AgtzRq_YRS-16" value="" style="dashed=0;aspect=fixed;verticalLabelPosition=bottom;verticalAlign=top;align=center;shape=mxgraph.gmdl.edit;strokeColor=none;fillColor=#171717;shadow=0;strokeWidth=1;fontFamily=Nunito Sans;fontSource=https%3A%2F%2Ffonts.googleapis.com%2Fcss%3Ffamily%3DNunito%2BSans;fontSize=15;rounded=0;sketch=1;" parent="Oh-IbdJAaRqJVPJ2qe_I-1" vertex="1">
                    <mxGeometry x="3825" y="86.25" width="23.75" height="23.75" as="geometry"/>
                </mxCell>
                <mxCell id="tNmkC3opJ2AgtzRq_YRS-17" value="" style="pointerEvents=1;shadow=0;dashed=0;html=1;strokeColor=none;fillColor=#001F18;labelPosition=center;verticalLabelPosition=bottom;verticalAlign=top;align=center;outlineConnect=0;shape=mxgraph.veeam2.automation;strokeWidth=1;fontFamily=Nunito Sans;fontSource=https%3A%2F%2Ffonts.googleapis.com%2Fcss%3Ffamily%3DNunito%2BSans;fontSize=15;rounded=0;sketch=1;" parent="Oh-IbdJAaRqJVPJ2qe_I-1" vertex="1">
                    <mxGeometry x="4011.1" y="80.00000000000001" width="30" height="30" as="geometry"/>
                </mxCell>
                <mxCell id="tNmkC3opJ2AgtzRq_YRS-18" value="" style="rounded=0;whiteSpace=wrap;html=1;strokeColor=#0E1319;strokeWidth=1;fontFamily=Nunito Sans;fontSource=https%3A%2F%2Ffonts.googleapis.com%2Fcss%3Ffamily%3DNunito%2BSans;fontSize=15;fillColor=#F5F5F5;arcSize=3;sketch=1;" parent="Oh-IbdJAaRqJVPJ2qe_I-1" vertex="1">
                    <mxGeometry x="3677.1" y="143" width="560" height="500" as="geometry"/>
                </mxCell>
                <mxCell id="tNmkC3opJ2AgtzRq_YRS-19" value="" style="rounded=0;whiteSpace=wrap;html=1;strokeColor=#000B14;strokeWidth=1;fontFamily=Nunito Sans;fontSource=https%3A%2F%2Ffonts.googleapis.com%2Fcss%3Ffamily%3DNunito%2BSans;fontSize=9;fillColor=none;gradientColor=none;sketch=1;" parent="Oh-IbdJAaRqJVPJ2qe_I-1" vertex="1">
                    <mxGeometry x="3748.1" y="159" width="120" height="20" as="geometry"/>
                </mxCell>
                <mxCell id="tNmkC3opJ2AgtzRq_YRS-20" value="&lt;font style=&quot;font-size: 12px;&quot;&gt;Penilaian&lt;/font&gt;" style="text;html=1;strokeColor=none;fillColor=none;align=center;verticalAlign=middle;whiteSpace=wrap;rounded=0;strokeWidth=1;fontFamily=Nunito Sans;fontSource=https%3A%2F%2Ffonts.googleapis.com%2Fcss%3Ffamily%3DNunito%2BSans;fontSize=9;sketch=1;" parent="Oh-IbdJAaRqJVPJ2qe_I-1" vertex="1">
                    <mxGeometry x="3667.1" y="153" width="106" height="30" as="geometry"/>
                </mxCell>
                <mxCell id="tNmkC3opJ2AgtzRq_YRS-21" value="" style="rounded=0;whiteSpace=wrap;html=1;strokeColor=#000B14;strokeWidth=1;fontFamily=Nunito Sans;fontSource=https%3A%2F%2Ffonts.googleapis.com%2Fcss%3Ffamily%3DNunito%2BSans;fontSize=5;fillColor=none;gradientColor=none;sketch=1;" parent="Oh-IbdJAaRqJVPJ2qe_I-1" vertex="1">
                    <mxGeometry x="3687.1" y="193" width="537" height="430" as="geometry"/>
                </mxCell>
                <mxCell id="tNmkC3opJ2AgtzRq_YRS-22" value="&lt;font style=&quot;font-size: 10px;&quot;&gt;Simpan&lt;/font&gt;" style="html=1;shadow=0;dashed=0;shape=mxgraph.bootstrap.rrect;rSize=5;strokeColor=none;strokeWidth=1;fillColor=#33A64C;fontColor=#FFFFFF;whiteSpace=wrap;align=center;verticalAlign=middle;spacingLeft=0;fontStyle=0;fontSize=16;spacing=5;fontFamily=Nunito Sans;fontSource=https%3A%2F%2Ffonts.googleapis.com%2Fcss%3Ffamily%3DNunito%2BSans;opacity=60;rounded=0;sketch=1;" parent="Oh-IbdJAaRqJVPJ2qe_I-1" vertex="1">
                    <mxGeometry x="4133.75" y="155.5" width="77.25" height="30" as="geometry"/>
                </mxCell>
                <mxCell id="tNmkC3opJ2AgtzRq_YRS-23" value="Pilih Bulan" style="text;html=1;strokeColor=none;fillColor=none;align=center;verticalAlign=middle;whiteSpace=wrap;rounded=0;strokeWidth=1;fontFamily=Nunito Sans;fontSource=https%3A%2F%2Ffonts.googleapis.com%2Fcss%3Ffamily%3DNunito%2BSans;fontSize=9;sketch=1;" parent="Oh-IbdJAaRqJVPJ2qe_I-1" vertex="1">
                    <mxGeometry x="3748.1" y="154" width="60" height="30" as="geometry"/>
                </mxCell>
                <mxCell id="tNmkC3opJ2AgtzRq_YRS-24" value="" style="triangle;whiteSpace=wrap;html=1;strokeColor=#0E1319;strokeWidth=1;fontFamily=Nunito Sans;fontSource=https%3A%2F%2Ffonts.googleapis.com%2Fcss%3Ffamily%3DNunito%2BSans;fontSize=15;fillColor=#050505;rotation=90;rounded=0;sketch=1;" parent="Oh-IbdJAaRqJVPJ2qe_I-1" vertex="1">
                    <mxGeometry x="3853.1" y="165" width="7.5" height="10" as="geometry"/>
                </mxCell>
                <mxCell id="tNmkC3opJ2AgtzRq_YRS-25" value="" style="line;strokeWidth=2;html=1;fontFamily=Nunito Sans;fontSource=https%3A%2F%2Ffonts.googleapis.com%2Fcss%3Ffamily%3DNunito%2BSans;fontSize=15;fillColor=none;rounded=0;sketch=1;" parent="Oh-IbdJAaRqJVPJ2qe_I-1" vertex="1">
                    <mxGeometry x="3708.1" y="229" width="499" height="10" as="geometry"/>
                </mxCell>
                <mxCell id="tNmkC3opJ2AgtzRq_YRS-26" value="&lt;font style=&quot;font-size: 13px;&quot; face=&quot;Nunito Sans&quot;&gt;Nama Alternatif&lt;/font&gt;" style="text;html=1;strokeColor=none;fillColor=none;align=center;verticalAlign=middle;whiteSpace=wrap;rounded=0;strokeWidth=1;sketch=1;" parent="Oh-IbdJAaRqJVPJ2qe_I-1" vertex="1">
                    <mxGeometry x="3708.1" y="202.5" width="109" height="30" as="geometry"/>
                </mxCell>
                <mxCell id="tNmkC3opJ2AgtzRq_YRS-27" value="&lt;font style=&quot;font-size: 13px;&quot; face=&quot;Nunito Sans&quot;&gt;C1&lt;/font&gt;" style="text;html=1;strokeColor=none;fillColor=none;align=center;verticalAlign=middle;whiteSpace=wrap;rounded=0;strokeWidth=1;sketch=1;" parent="Oh-IbdJAaRqJVPJ2qe_I-1" vertex="1">
                    <mxGeometry x="3813.1" y="204" width="109" height="30" as="geometry"/>
                </mxCell>
                <mxCell id="tNmkC3opJ2AgtzRq_YRS-28" value="&lt;font style=&quot;font-size: 13px;&quot; face=&quot;Nunito Sans&quot;&gt;C2&lt;/font&gt;" style="text;html=1;strokeColor=none;fillColor=none;align=center;verticalAlign=middle;whiteSpace=wrap;rounded=0;strokeWidth=1;sketch=1;" parent="Oh-IbdJAaRqJVPJ2qe_I-1" vertex="1">
                    <mxGeometry x="3914.1" y="206" width="109" height="30" as="geometry"/>
                </mxCell>
                <mxCell id="tNmkC3opJ2AgtzRq_YRS-29" value="&lt;font style=&quot;font-size: 13px;&quot; face=&quot;Nunito Sans&quot;&gt;C3&lt;/font&gt;" style="text;html=1;strokeColor=none;fillColor=none;align=center;verticalAlign=middle;whiteSpace=wrap;rounded=0;strokeWidth=1;sketch=1;" parent="Oh-IbdJAaRqJVPJ2qe_I-1" vertex="1">
                    <mxGeometry x="4014.35" y="206" width="109" height="30" as="geometry"/>
                </mxCell>
                <mxCell id="tNmkC3opJ2AgtzRq_YRS-30" value="&lt;font style=&quot;font-size: 13px;&quot; face=&quot;Nunito Sans&quot;&gt;C4&lt;/font&gt;" style="text;html=1;strokeColor=none;fillColor=none;align=center;verticalAlign=middle;whiteSpace=wrap;rounded=0;strokeWidth=1;sketch=1;" parent="Oh-IbdJAaRqJVPJ2qe_I-1" vertex="1">
                    <mxGeometry x="4104.1" y="207" width="109" height="30" as="geometry"/>
                </mxCell>
                <mxCell id="tNmkC3opJ2AgtzRq_YRS-31" value="" style="line;strokeWidth=2;html=1;fontFamily=Nunito Sans;fontSource=https%3A%2F%2Ffonts.googleapis.com%2Fcss%3Ffamily%3DNunito%2BSans;fontSize=15;fillColor=none;rounded=0;sketch=1;" parent="Oh-IbdJAaRqJVPJ2qe_I-1" vertex="1">
                    <mxGeometry x="3708.1" y="272.45" width="499" height="10" as="geometry"/>
                </mxCell>
                <mxCell id="tNmkC3opJ2AgtzRq_YRS-32" value="&lt;font face=&quot;Nunito Sans&quot;&gt;&lt;span style=&quot;font-size: 13px;&quot;&gt;A1&lt;/span&gt;&lt;/font&gt;" style="text;html=1;strokeColor=none;fillColor=none;align=center;verticalAlign=middle;whiteSpace=wrap;rounded=0;strokeWidth=1;sketch=1;" parent="Oh-IbdJAaRqJVPJ2qe_I-1" vertex="1">
                    <mxGeometry x="3702.1" y="243" width="109" height="30" as="geometry"/>
                </mxCell>
                <mxCell id="tNmkC3opJ2AgtzRq_YRS-33" value="" style="line;strokeWidth=2;html=1;fontFamily=Nunito Sans;fontSource=https%3A%2F%2Ffonts.googleapis.com%2Fcss%3Ffamily%3DNunito%2BSans;fontSize=15;fillColor=none;rounded=0;sketch=1;" parent="Oh-IbdJAaRqJVPJ2qe_I-1" vertex="1">
                    <mxGeometry x="3708.1" y="310.88" width="499" height="10" as="geometry"/>
                </mxCell>
                <mxCell id="tNmkC3opJ2AgtzRq_YRS-34" value="&lt;font face=&quot;Nunito Sans&quot;&gt;&lt;span style=&quot;font-size: 13px;&quot;&gt;A2&lt;/span&gt;&lt;/font&gt;" style="text;html=1;strokeColor=none;fillColor=none;align=center;verticalAlign=middle;whiteSpace=wrap;rounded=0;strokeWidth=1;sketch=1;" parent="Oh-IbdJAaRqJVPJ2qe_I-1" vertex="1">
                    <mxGeometry x="3702.1" y="281.43" width="109" height="30" as="geometry"/>
                </mxCell>
                <mxCell id="tNmkC3opJ2AgtzRq_YRS-35" value="" style="line;strokeWidth=2;html=1;fontFamily=Nunito Sans;fontSource=https%3A%2F%2Ffonts.googleapis.com%2Fcss%3Ffamily%3DNunito%2BSans;fontSize=15;fillColor=none;rounded=0;sketch=1;" parent="Oh-IbdJAaRqJVPJ2qe_I-1" vertex="1">
                    <mxGeometry x="3709.1" y="352.45" width="499" height="10" as="geometry"/>
                </mxCell>
                <mxCell id="tNmkC3opJ2AgtzRq_YRS-36" value="&lt;font face=&quot;Nunito Sans&quot;&gt;&lt;span style=&quot;font-size: 13px;&quot;&gt;A3&lt;/span&gt;&lt;/font&gt;" style="text;html=1;strokeColor=none;fillColor=none;align=center;verticalAlign=middle;whiteSpace=wrap;rounded=0;strokeWidth=1;sketch=1;" parent="Oh-IbdJAaRqJVPJ2qe_I-1" vertex="1">
                    <mxGeometry x="3703.1" y="323" width="109" height="30" as="geometry"/>
                </mxCell>
                <mxCell id="tNmkC3opJ2AgtzRq_YRS-37" value="" style="line;strokeWidth=2;html=1;fontFamily=Nunito Sans;fontSource=https%3A%2F%2Ffonts.googleapis.com%2Fcss%3Ffamily%3DNunito%2BSans;fontSize=15;fillColor=none;rounded=0;sketch=1;" parent="Oh-IbdJAaRqJVPJ2qe_I-1" vertex="1">
                    <mxGeometry x="3710.6" y="391.9" width="499" height="10" as="geometry"/>
                </mxCell>
                <mxCell id="tNmkC3opJ2AgtzRq_YRS-38" value="&lt;font face=&quot;Nunito Sans&quot;&gt;&lt;span style=&quot;font-size: 13px;&quot;&gt;A4&lt;/span&gt;&lt;/font&gt;" style="text;html=1;strokeColor=none;fillColor=none;align=center;verticalAlign=middle;whiteSpace=wrap;rounded=0;strokeWidth=1;sketch=1;" parent="Oh-IbdJAaRqJVPJ2qe_I-1" vertex="1">
                    <mxGeometry x="3704.6" y="362.45" width="109" height="30" as="geometry"/>
                </mxCell>
                <mxCell id="tNmkC3opJ2AgtzRq_YRS-39" value="" style="line;strokeWidth=2;html=1;fontFamily=Nunito Sans;fontSource=https%3A%2F%2Ffonts.googleapis.com%2Fcss%3Ffamily%3DNunito%2BSans;fontSize=15;fillColor=none;rounded=0;sketch=1;" parent="Oh-IbdJAaRqJVPJ2qe_I-1" vertex="1">
                    <mxGeometry x="3709.1" y="435.45" width="499" height="10" as="geometry"/>
                </mxCell>
                <mxCell id="tNmkC3opJ2AgtzRq_YRS-40" value="&lt;font face=&quot;Nunito Sans&quot;&gt;&lt;span style=&quot;font-size: 13px;&quot;&gt;A5&lt;/span&gt;&lt;/font&gt;" style="text;html=1;strokeColor=none;fillColor=none;align=center;verticalAlign=middle;whiteSpace=wrap;rounded=0;strokeWidth=1;sketch=1;" parent="Oh-IbdJAaRqJVPJ2qe_I-1" vertex="1">
                    <mxGeometry x="3704.1" y="406" width="109" height="30" as="geometry"/>
                </mxCell>
                <mxCell id="tNmkC3opJ2AgtzRq_YRS-41" value="" style="html=1;shadow=0;dashed=0;shape=mxgraph.bootstrap.rrect;rSize=5;fillColor=none;strokeColor=#999999;align=left;spacing=15;fontSize=14;fontColor=#6C767D;strokeWidth=1;fontFamily=Nunito Sans;fontSource=https%3A%2F%2Ffonts.googleapis.com%2Fcss%3Ffamily%3DNunito%2BSans;rounded=0;sketch=1;" parent="Oh-IbdJAaRqJVPJ2qe_I-1" vertex="1">
                    <mxGeometry x="3826.6" y="244.4" width="83.5" height="25" as="geometry"/>
                </mxCell>
                <mxCell id="tNmkC3opJ2AgtzRq_YRS-42" value="&lt;font color=&quot;#8f8f8f&quot; style=&quot;font-size: 9px;&quot;&gt;Crips 1&lt;/font&gt;" style="text;html=1;strokeColor=none;fillColor=none;align=center;verticalAlign=middle;whiteSpace=wrap;rounded=0;strokeWidth=1;fontFamily=Nunito Sans;fontSource=https%3A%2F%2Ffonts.googleapis.com%2Fcss%3Ffamily%3DNunito%2BSans;fontSize=9;textOpacity=40;sketch=1;" parent="Oh-IbdJAaRqJVPJ2qe_I-1" vertex="1">
                    <mxGeometry x="3826.6" y="240.9" width="50" height="30" as="geometry"/>
                </mxCell>
                <mxCell id="tNmkC3opJ2AgtzRq_YRS-43" value="" style="triangle;whiteSpace=wrap;html=1;strokeColor=none;strokeWidth=1;fontFamily=Nunito Sans;fontSource=https%3A%2F%2Ffonts.googleapis.com%2Fcss%3Ffamily%3DNunito%2BSans;fontSize=15;fillColor=#050505;rotation=90;textOpacity=20;opacity=60;rounded=0;sketch=1;" parent="Oh-IbdJAaRqJVPJ2qe_I-1" vertex="1">
                    <mxGeometry x="3892.6" y="252.45000000000002" width="7.5" height="10" as="geometry"/>
                </mxCell>
                <mxCell id="tNmkC3opJ2AgtzRq_YRS-44" value="" style="html=1;shadow=0;dashed=0;shape=mxgraph.bootstrap.rrect;rSize=5;fillColor=none;strokeColor=#999999;align=left;spacing=15;fontSize=14;fontColor=#6C767D;strokeWidth=1;fontFamily=Nunito Sans;fontSource=https%3A%2F%2Ffonts.googleapis.com%2Fcss%3Ffamily%3DNunito%2BSans;rounded=0;sketch=1;" parent="Oh-IbdJAaRqJVPJ2qe_I-1" vertex="1">
                    <mxGeometry x="3927.6" y="242.9" width="83.5" height="25" as="geometry"/>
                </mxCell>
                <mxCell id="tNmkC3opJ2AgtzRq_YRS-45" value="&lt;font color=&quot;#8f8f8f&quot; style=&quot;font-size: 9px;&quot;&gt;Crips 1&lt;/font&gt;" style="text;html=1;strokeColor=none;fillColor=none;align=center;verticalAlign=middle;whiteSpace=wrap;rounded=0;strokeWidth=1;fontFamily=Nunito Sans;fontSource=https%3A%2F%2Ffonts.googleapis.com%2Fcss%3Ffamily%3DNunito%2BSans;fontSize=9;textOpacity=40;sketch=1;" parent="Oh-IbdJAaRqJVPJ2qe_I-1" vertex="1">
                    <mxGeometry x="3927.6" y="239.4" width="50" height="30" as="geometry"/>
                </mxCell>
                <mxCell id="tNmkC3opJ2AgtzRq_YRS-46" value="" style="triangle;whiteSpace=wrap;html=1;strokeColor=none;strokeWidth=1;fontFamily=Nunito Sans;fontSource=https%3A%2F%2Ffonts.googleapis.com%2Fcss%3Ffamily%3DNunito%2BSans;fontSize=15;fillColor=#050505;rotation=90;textOpacity=20;opacity=60;rounded=0;sketch=1;" parent="Oh-IbdJAaRqJVPJ2qe_I-1" vertex="1">
                    <mxGeometry x="3993.6" y="250.95000000000002" width="7.5" height="10" as="geometry"/>
                </mxCell>
                <mxCell id="tNmkC3opJ2AgtzRq_YRS-47" value="" style="html=1;shadow=0;dashed=0;shape=mxgraph.bootstrap.rrect;rSize=5;fillColor=none;strokeColor=#999999;align=left;spacing=15;fontSize=14;fontColor=#6C767D;strokeWidth=1;fontFamily=Nunito Sans;fontSource=https%3A%2F%2Ffonts.googleapis.com%2Fcss%3Ffamily%3DNunito%2BSans;rounded=0;sketch=1;" parent="Oh-IbdJAaRqJVPJ2qe_I-1" vertex="1">
                    <mxGeometry x="4026.1" y="243.45000000000002" width="83.5" height="25" as="geometry"/>
                </mxCell>
                <mxCell id="tNmkC3opJ2AgtzRq_YRS-48" value="&lt;font color=&quot;#8f8f8f&quot; style=&quot;font-size: 9px;&quot;&gt;Crips 1&lt;/font&gt;" style="text;html=1;strokeColor=none;fillColor=none;align=center;verticalAlign=middle;whiteSpace=wrap;rounded=0;strokeWidth=1;fontFamily=Nunito Sans;fontSource=https%3A%2F%2Ffonts.googleapis.com%2Fcss%3Ffamily%3DNunito%2BSans;fontSize=9;textOpacity=40;sketch=1;" parent="Oh-IbdJAaRqJVPJ2qe_I-1" vertex="1">
                    <mxGeometry x="4026.1" y="239.95000000000002" width="50" height="30" as="geometry"/>
                </mxCell>
                <mxCell id="tNmkC3opJ2AgtzRq_YRS-49" value="" style="triangle;whiteSpace=wrap;html=1;strokeColor=none;strokeWidth=1;fontFamily=Nunito Sans;fontSource=https%3A%2F%2Ffonts.googleapis.com%2Fcss%3Ffamily%3DNunito%2BSans;fontSize=15;fillColor=#050505;rotation=90;textOpacity=20;opacity=60;rounded=0;sketch=1;" parent="Oh-IbdJAaRqJVPJ2qe_I-1" vertex="1">
                    <mxGeometry x="4092.1" y="251.50000000000003" width="7.5" height="10" as="geometry"/>
                </mxCell>
                <mxCell id="tNmkC3opJ2AgtzRq_YRS-50" value="" style="html=1;shadow=0;dashed=0;shape=mxgraph.bootstrap.rrect;rSize=5;fillColor=none;strokeColor=#999999;align=left;spacing=15;fontSize=14;fontColor=#6C767D;strokeWidth=1;fontFamily=Nunito Sans;fontSource=https%3A%2F%2Ffonts.googleapis.com%2Fcss%3Ffamily%3DNunito%2BSans;rounded=0;sketch=1;" parent="Oh-IbdJAaRqJVPJ2qe_I-1" vertex="1">
                    <mxGeometry x="4117.62" y="243.45000000000002" width="83.5" height="25" as="geometry"/>
                </mxCell>
                <mxCell id="tNmkC3opJ2AgtzRq_YRS-51" value="&lt;font color=&quot;#8f8f8f&quot; style=&quot;font-size: 9px;&quot;&gt;Crips 1&lt;/font&gt;" style="text;html=1;strokeColor=none;fillColor=none;align=center;verticalAlign=middle;whiteSpace=wrap;rounded=0;strokeWidth=1;fontFamily=Nunito Sans;fontSource=https%3A%2F%2Ffonts.googleapis.com%2Fcss%3Ffamily%3DNunito%2BSans;fontSize=9;textOpacity=40;sketch=1;" parent="Oh-IbdJAaRqJVPJ2qe_I-1" vertex="1">
                    <mxGeometry x="4117.62" y="239.95000000000002" width="50" height="30" as="geometry"/>
                </mxCell>
                <mxCell id="tNmkC3opJ2AgtzRq_YRS-52" value="" style="triangle;whiteSpace=wrap;html=1;strokeColor=none;strokeWidth=1;fontFamily=Nunito Sans;fontSource=https%3A%2F%2Ffonts.googleapis.com%2Fcss%3Ffamily%3DNunito%2BSans;fontSize=15;fillColor=#050505;rotation=90;textOpacity=20;opacity=60;rounded=0;sketch=1;" parent="Oh-IbdJAaRqJVPJ2qe_I-1" vertex="1">
                    <mxGeometry x="4183.62" y="251.50000000000003" width="7.5" height="10" as="geometry"/>
                </mxCell>
                <mxCell id="tNmkC3opJ2AgtzRq_YRS-53" value="" style="html=1;shadow=0;dashed=0;shape=mxgraph.bootstrap.rrect;rSize=5;fillColor=none;strokeColor=#999999;align=left;spacing=15;fontSize=14;fontColor=#6C767D;strokeWidth=1;fontFamily=Nunito Sans;fontSource=https%3A%2F%2Ffonts.googleapis.com%2Fcss%3Ffamily%3DNunito%2BSans;rounded=0;sketch=1;" parent="Oh-IbdJAaRqJVPJ2qe_I-1" vertex="1">
                    <mxGeometry x="3826.6" y="281.5" width="83.5" height="25" as="geometry"/>
                </mxCell>
                <mxCell id="tNmkC3opJ2AgtzRq_YRS-54" value="&lt;font color=&quot;#8f8f8f&quot; style=&quot;font-size: 9px;&quot;&gt;Crips 1&lt;/font&gt;" style="text;html=1;strokeColor=none;fillColor=none;align=center;verticalAlign=middle;whiteSpace=wrap;rounded=0;strokeWidth=1;fontFamily=Nunito Sans;fontSource=https%3A%2F%2Ffonts.googleapis.com%2Fcss%3Ffamily%3DNunito%2BSans;fontSize=9;textOpacity=40;sketch=1;" parent="Oh-IbdJAaRqJVPJ2qe_I-1" vertex="1">
                    <mxGeometry x="3826.6" y="278" width="50" height="30" as="geometry"/>
                </mxCell>
                <mxCell id="tNmkC3opJ2AgtzRq_YRS-55" value="" style="triangle;whiteSpace=wrap;html=1;strokeColor=none;strokeWidth=1;fontFamily=Nunito Sans;fontSource=https%3A%2F%2Ffonts.googleapis.com%2Fcss%3Ffamily%3DNunito%2BSans;fontSize=15;fillColor=#050505;rotation=90;textOpacity=20;opacity=60;rounded=0;sketch=1;" parent="Oh-IbdJAaRqJVPJ2qe_I-1" vertex="1">
                    <mxGeometry x="3892.6" y="289.55" width="7.5" height="10" as="geometry"/>
                </mxCell>
                <mxCell id="tNmkC3opJ2AgtzRq_YRS-56" value="" style="html=1;shadow=0;dashed=0;shape=mxgraph.bootstrap.rrect;rSize=5;fillColor=none;strokeColor=#999999;align=left;spacing=15;fontSize=14;fontColor=#6C767D;strokeWidth=1;fontFamily=Nunito Sans;fontSource=https%3A%2F%2Ffonts.googleapis.com%2Fcss%3Ffamily%3DNunito%2BSans;rounded=0;sketch=1;" parent="Oh-IbdJAaRqJVPJ2qe_I-1" vertex="1">
                    <mxGeometry x="3825.85" y="326.5" width="83.5" height="25" as="geometry"/>
                </mxCell>
                <mxCell id="tNmkC3opJ2AgtzRq_YRS-57" value="&lt;font color=&quot;#8f8f8f&quot; style=&quot;font-size: 9px;&quot;&gt;Crips 1&lt;/font&gt;" style="text;html=1;strokeColor=none;fillColor=none;align=center;verticalAlign=middle;whiteSpace=wrap;rounded=0;strokeWidth=1;fontFamily=Nunito Sans;fontSource=https%3A%2F%2Ffonts.googleapis.com%2Fcss%3Ffamily%3DNunito%2BSans;fontSize=9;textOpacity=40;sketch=1;" parent="Oh-IbdJAaRqJVPJ2qe_I-1" vertex="1">
                    <mxGeometry x="3825.85" y="323" width="50" height="30" as="geometry"/>
                </mxCell>
                <mxCell id="tNmkC3opJ2AgtzRq_YRS-58" value="" style="triangle;whiteSpace=wrap;html=1;strokeColor=none;strokeWidth=1;fontFamily=Nunito Sans;fontSource=https%3A%2F%2Ffonts.googleapis.com%2Fcss%3Ffamily%3DNunito%2BSans;fontSize=15;fillColor=#050505;rotation=90;textOpacity=20;opacity=60;rounded=0;sketch=1;" parent="Oh-IbdJAaRqJVPJ2qe_I-1" vertex="1">
                    <mxGeometry x="3891.85" y="334.55" width="7.5" height="10" as="geometry"/>
                </mxCell>
                <mxCell id="tNmkC3opJ2AgtzRq_YRS-59" value="" style="html=1;shadow=0;dashed=0;shape=mxgraph.bootstrap.rrect;rSize=5;fillColor=none;strokeColor=#999999;align=left;spacing=15;fontSize=14;fontColor=#6C767D;strokeWidth=1;fontFamily=Nunito Sans;fontSource=https%3A%2F%2Ffonts.googleapis.com%2Fcss%3Ffamily%3DNunito%2BSans;rounded=0;sketch=1;" parent="Oh-IbdJAaRqJVPJ2qe_I-1" vertex="1">
                    <mxGeometry x="3825.85" y="363.6" width="83.5" height="25" as="geometry"/>
                </mxCell>
                <mxCell id="tNmkC3opJ2AgtzRq_YRS-60" value="&lt;font color=&quot;#8f8f8f&quot; style=&quot;font-size: 9px;&quot;&gt;Crips 1&lt;/font&gt;" style="text;html=1;strokeColor=none;fillColor=none;align=center;verticalAlign=middle;whiteSpace=wrap;rounded=0;strokeWidth=1;fontFamily=Nunito Sans;fontSource=https%3A%2F%2Ffonts.googleapis.com%2Fcss%3Ffamily%3DNunito%2BSans;fontSize=9;textOpacity=40;sketch=1;" parent="Oh-IbdJAaRqJVPJ2qe_I-1" vertex="1">
                    <mxGeometry x="3825.85" y="360.1" width="50" height="30" as="geometry"/>
                </mxCell>
                <mxCell id="tNmkC3opJ2AgtzRq_YRS-61" value="" style="triangle;whiteSpace=wrap;html=1;strokeColor=none;strokeWidth=1;fontFamily=Nunito Sans;fontSource=https%3A%2F%2Ffonts.googleapis.com%2Fcss%3Ffamily%3DNunito%2BSans;fontSize=15;fillColor=#050505;rotation=90;textOpacity=20;opacity=60;rounded=0;sketch=1;" parent="Oh-IbdJAaRqJVPJ2qe_I-1" vertex="1">
                    <mxGeometry x="3891.85" y="371.65" width="7.5" height="10" as="geometry"/>
                </mxCell>
                <mxCell id="tNmkC3opJ2AgtzRq_YRS-62" value="" style="html=1;shadow=0;dashed=0;shape=mxgraph.bootstrap.rrect;rSize=5;fillColor=none;strokeColor=#999999;align=left;spacing=15;fontSize=14;fontColor=#6C767D;strokeWidth=1;fontFamily=Nunito Sans;fontSource=https%3A%2F%2Ffonts.googleapis.com%2Fcss%3Ffamily%3DNunito%2BSans;rounded=0;sketch=1;" parent="Oh-IbdJAaRqJVPJ2qe_I-1" vertex="1">
                    <mxGeometry x="3825.85" y="404.5" width="83.5" height="25" as="geometry"/>
                </mxCell>
                <mxCell id="tNmkC3opJ2AgtzRq_YRS-63" value="&lt;font color=&quot;#8f8f8f&quot; style=&quot;font-size: 9px;&quot;&gt;Crips 1&lt;/font&gt;" style="text;html=1;strokeColor=none;fillColor=none;align=center;verticalAlign=middle;whiteSpace=wrap;rounded=0;strokeWidth=1;fontFamily=Nunito Sans;fontSource=https%3A%2F%2Ffonts.googleapis.com%2Fcss%3Ffamily%3DNunito%2BSans;fontSize=9;textOpacity=40;sketch=1;" parent="Oh-IbdJAaRqJVPJ2qe_I-1" vertex="1">
                    <mxGeometry x="3825.85" y="401" width="50" height="30" as="geometry"/>
                </mxCell>
                <mxCell id="tNmkC3opJ2AgtzRq_YRS-64" value="" style="triangle;whiteSpace=wrap;html=1;strokeColor=none;strokeWidth=1;fontFamily=Nunito Sans;fontSource=https%3A%2F%2Ffonts.googleapis.com%2Fcss%3Ffamily%3DNunito%2BSans;fontSize=15;fillColor=#050505;rotation=90;textOpacity=20;opacity=60;rounded=0;sketch=1;" parent="Oh-IbdJAaRqJVPJ2qe_I-1" vertex="1">
                    <mxGeometry x="3891.85" y="412.54999999999995" width="7.5" height="10" as="geometry"/>
                </mxCell>
                <mxCell id="tNmkC3opJ2AgtzRq_YRS-65" value="" style="html=1;shadow=0;dashed=0;shape=mxgraph.bootstrap.rrect;rSize=5;fillColor=none;strokeColor=#999999;align=left;spacing=15;fontSize=14;fontColor=#6C767D;strokeWidth=1;fontFamily=Nunito Sans;fontSource=https%3A%2F%2Ffonts.googleapis.com%2Fcss%3Ffamily%3DNunito%2BSans;rounded=0;sketch=1;" parent="Oh-IbdJAaRqJVPJ2qe_I-1" vertex="1">
                    <mxGeometry x="3928.35" y="281.5" width="83.5" height="25" as="geometry"/>
                </mxCell>
                <mxCell id="tNmkC3opJ2AgtzRq_YRS-66" value="&lt;font color=&quot;#8f8f8f&quot; style=&quot;font-size: 9px;&quot;&gt;Crips 1&lt;/font&gt;" style="text;html=1;strokeColor=none;fillColor=none;align=center;verticalAlign=middle;whiteSpace=wrap;rounded=0;strokeWidth=1;fontFamily=Nunito Sans;fontSource=https%3A%2F%2Ffonts.googleapis.com%2Fcss%3Ffamily%3DNunito%2BSans;fontSize=9;textOpacity=40;sketch=1;" parent="Oh-IbdJAaRqJVPJ2qe_I-1" vertex="1">
                    <mxGeometry x="3928.35" y="278" width="50" height="30" as="geometry"/>
                </mxCell>
                <mxCell id="tNmkC3opJ2AgtzRq_YRS-67" value="" style="triangle;whiteSpace=wrap;html=1;strokeColor=none;strokeWidth=1;fontFamily=Nunito Sans;fontSource=https%3A%2F%2Ffonts.googleapis.com%2Fcss%3Ffamily%3DNunito%2BSans;fontSize=15;fillColor=#050505;rotation=90;textOpacity=20;opacity=60;rounded=0;sketch=1;" parent="Oh-IbdJAaRqJVPJ2qe_I-1" vertex="1">
                    <mxGeometry x="3994.35" y="289.55" width="7.5" height="10" as="geometry"/>
                </mxCell>
                <mxCell id="tNmkC3opJ2AgtzRq_YRS-68" value="" style="html=1;shadow=0;dashed=0;shape=mxgraph.bootstrap.rrect;rSize=5;fillColor=none;strokeColor=#999999;align=left;spacing=15;fontSize=14;fontColor=#6C767D;strokeWidth=1;fontFamily=Nunito Sans;fontSource=https%3A%2F%2Ffonts.googleapis.com%2Fcss%3Ffamily%3DNunito%2BSans;rounded=0;sketch=1;" parent="Oh-IbdJAaRqJVPJ2qe_I-1" vertex="1">
                    <mxGeometry x="3927.6" y="326.5" width="83.5" height="25" as="geometry"/>
                </mxCell>
                <mxCell id="tNmkC3opJ2AgtzRq_YRS-69" value="&lt;font color=&quot;#8f8f8f&quot; style=&quot;font-size: 9px;&quot;&gt;Crips 1&lt;/font&gt;" style="text;html=1;strokeColor=none;fillColor=none;align=center;verticalAlign=middle;whiteSpace=wrap;rounded=0;strokeWidth=1;fontFamily=Nunito Sans;fontSource=https%3A%2F%2Ffonts.googleapis.com%2Fcss%3Ffamily%3DNunito%2BSans;fontSize=9;textOpacity=40;sketch=1;" parent="Oh-IbdJAaRqJVPJ2qe_I-1" vertex="1">
                    <mxGeometry x="3927.6" y="323" width="50" height="30" as="geometry"/>
                </mxCell>
                <mxCell id="tNmkC3opJ2AgtzRq_YRS-70" value="" style="triangle;whiteSpace=wrap;html=1;strokeColor=none;strokeWidth=1;fontFamily=Nunito Sans;fontSource=https%3A%2F%2Ffonts.googleapis.com%2Fcss%3Ffamily%3DNunito%2BSans;fontSize=15;fillColor=#050505;rotation=90;textOpacity=20;opacity=60;rounded=0;sketch=1;" parent="Oh-IbdJAaRqJVPJ2qe_I-1" vertex="1">
                    <mxGeometry x="3993.6" y="334.55" width="7.5" height="10" as="geometry"/>
                </mxCell>
                <mxCell id="tNmkC3opJ2AgtzRq_YRS-71" value="" style="html=1;shadow=0;dashed=0;shape=mxgraph.bootstrap.rrect;rSize=5;fillColor=none;strokeColor=#999999;align=left;spacing=15;fontSize=14;fontColor=#6C767D;strokeWidth=1;fontFamily=Nunito Sans;fontSource=https%3A%2F%2Ffonts.googleapis.com%2Fcss%3Ffamily%3DNunito%2BSans;rounded=0;sketch=1;" parent="Oh-IbdJAaRqJVPJ2qe_I-1" vertex="1">
                    <mxGeometry x="3927.6" y="363.6" width="83.5" height="25" as="geometry"/>
                </mxCell>
                <mxCell id="tNmkC3opJ2AgtzRq_YRS-72" value="&lt;font color=&quot;#8f8f8f&quot; style=&quot;font-size: 9px;&quot;&gt;Crips 1&lt;/font&gt;" style="text;html=1;strokeColor=none;fillColor=none;align=center;verticalAlign=middle;whiteSpace=wrap;rounded=0;strokeWidth=1;fontFamily=Nunito Sans;fontSource=https%3A%2F%2Ffonts.googleapis.com%2Fcss%3Ffamily%3DNunito%2BSans;fontSize=9;textOpacity=40;sketch=1;" parent="Oh-IbdJAaRqJVPJ2qe_I-1" vertex="1">
                    <mxGeometry x="3927.6" y="360.1" width="50" height="30" as="geometry"/>
                </mxCell>
                <mxCell id="tNmkC3opJ2AgtzRq_YRS-73" value="" style="triangle;whiteSpace=wrap;html=1;strokeColor=none;strokeWidth=1;fontFamily=Nunito Sans;fontSource=https%3A%2F%2Ffonts.googleapis.com%2Fcss%3Ffamily%3DNunito%2BSans;fontSize=15;fillColor=#050505;rotation=90;textOpacity=20;opacity=60;rounded=0;sketch=1;" parent="Oh-IbdJAaRqJVPJ2qe_I-1" vertex="1">
                    <mxGeometry x="3993.6" y="371.65" width="7.5" height="10" as="geometry"/>
                </mxCell>
                <mxCell id="tNmkC3opJ2AgtzRq_YRS-74" value="" style="html=1;shadow=0;dashed=0;shape=mxgraph.bootstrap.rrect;rSize=5;fillColor=none;strokeColor=#999999;align=left;spacing=15;fontSize=14;fontColor=#6C767D;strokeWidth=1;fontFamily=Nunito Sans;fontSource=https%3A%2F%2Ffonts.googleapis.com%2Fcss%3Ffamily%3DNunito%2BSans;rounded=0;sketch=1;" parent="Oh-IbdJAaRqJVPJ2qe_I-1" vertex="1">
                    <mxGeometry x="3927.6" y="404.5" width="83.5" height="25" as="geometry"/>
                </mxCell>
                <mxCell id="tNmkC3opJ2AgtzRq_YRS-75" value="&lt;font color=&quot;#8f8f8f&quot; style=&quot;font-size: 9px;&quot;&gt;Crips 1&lt;/font&gt;" style="text;html=1;strokeColor=none;fillColor=none;align=center;verticalAlign=middle;whiteSpace=wrap;rounded=0;strokeWidth=1;fontFamily=Nunito Sans;fontSource=https%3A%2F%2Ffonts.googleapis.com%2Fcss%3Ffamily%3DNunito%2BSans;fontSize=9;textOpacity=40;sketch=1;" parent="Oh-IbdJAaRqJVPJ2qe_I-1" vertex="1">
                    <mxGeometry x="3927.6" y="401" width="50" height="30" as="geometry"/>
                </mxCell>
                <mxCell id="tNmkC3opJ2AgtzRq_YRS-76" value="" style="triangle;whiteSpace=wrap;html=1;strokeColor=none;strokeWidth=1;fontFamily=Nunito Sans;fontSource=https%3A%2F%2Ffonts.googleapis.com%2Fcss%3Ffamily%3DNunito%2BSans;fontSize=15;fillColor=#050505;rotation=90;textOpacity=20;opacity=60;rounded=0;sketch=1;" parent="Oh-IbdJAaRqJVPJ2qe_I-1" vertex="1">
                    <mxGeometry x="3993.6" y="412.54999999999995" width="7.5" height="10" as="geometry"/>
                </mxCell>
                <mxCell id="tNmkC3opJ2AgtzRq_YRS-77" value="" style="html=1;shadow=0;dashed=0;shape=mxgraph.bootstrap.rrect;rSize=5;fillColor=none;strokeColor=#999999;align=left;spacing=15;fontSize=14;fontColor=#6C767D;strokeWidth=1;fontFamily=Nunito Sans;fontSource=https%3A%2F%2Ffonts.googleapis.com%2Fcss%3Ffamily%3DNunito%2BSans;rounded=0;sketch=1;" parent="Oh-IbdJAaRqJVPJ2qe_I-1" vertex="1">
                    <mxGeometry x="4026.48" y="282" width="83.5" height="25" as="geometry"/>
                </mxCell>
                <mxCell id="tNmkC3opJ2AgtzRq_YRS-78" value="&lt;font color=&quot;#8f8f8f&quot; style=&quot;font-size: 9px;&quot;&gt;Crips 1&lt;/font&gt;" style="text;html=1;strokeColor=none;fillColor=none;align=center;verticalAlign=middle;whiteSpace=wrap;rounded=0;strokeWidth=1;fontFamily=Nunito Sans;fontSource=https%3A%2F%2Ffonts.googleapis.com%2Fcss%3Ffamily%3DNunito%2BSans;fontSize=9;textOpacity=40;sketch=1;" parent="Oh-IbdJAaRqJVPJ2qe_I-1" vertex="1">
                    <mxGeometry x="4026.48" y="278.5" width="50" height="30" as="geometry"/>
                </mxCell>
                <mxCell id="tNmkC3opJ2AgtzRq_YRS-79" value="" style="triangle;whiteSpace=wrap;html=1;strokeColor=none;strokeWidth=1;fontFamily=Nunito Sans;fontSource=https%3A%2F%2Ffonts.googleapis.com%2Fcss%3Ffamily%3DNunito%2BSans;fontSize=15;fillColor=#050505;rotation=90;textOpacity=20;opacity=60;rounded=0;sketch=1;" parent="Oh-IbdJAaRqJVPJ2qe_I-1" vertex="1">
                    <mxGeometry x="4092.48" y="290.05" width="7.5" height="10" as="geometry"/>
                </mxCell>
                <mxCell id="tNmkC3opJ2AgtzRq_YRS-80" value="" style="html=1;shadow=0;dashed=0;shape=mxgraph.bootstrap.rrect;rSize=5;fillColor=none;strokeColor=#999999;align=left;spacing=15;fontSize=14;fontColor=#6C767D;strokeWidth=1;fontFamily=Nunito Sans;fontSource=https%3A%2F%2Ffonts.googleapis.com%2Fcss%3Ffamily%3DNunito%2BSans;rounded=0;sketch=1;" parent="Oh-IbdJAaRqJVPJ2qe_I-1" vertex="1">
                    <mxGeometry x="4025.73" y="327" width="83.5" height="25" as="geometry"/>
                </mxCell>
                <mxCell id="tNmkC3opJ2AgtzRq_YRS-81" value="&lt;font color=&quot;#8f8f8f&quot; style=&quot;font-size: 9px;&quot;&gt;Crips 1&lt;/font&gt;" style="text;html=1;strokeColor=none;fillColor=none;align=center;verticalAlign=middle;whiteSpace=wrap;rounded=0;strokeWidth=1;fontFamily=Nunito Sans;fontSource=https%3A%2F%2Ffonts.googleapis.com%2Fcss%3Ffamily%3DNunito%2BSans;fontSize=9;textOpacity=40;sketch=1;" parent="Oh-IbdJAaRqJVPJ2qe_I-1" vertex="1">
                    <mxGeometry x="4025.73" y="323.5" width="50" height="30" as="geometry"/>
                </mxCell>
                <mxCell id="tNmkC3opJ2AgtzRq_YRS-82" value="" style="triangle;whiteSpace=wrap;html=1;strokeColor=none;strokeWidth=1;fontFamily=Nunito Sans;fontSource=https%3A%2F%2Ffonts.googleapis.com%2Fcss%3Ffamily%3DNunito%2BSans;fontSize=15;fillColor=#050505;rotation=90;textOpacity=20;opacity=60;rounded=0;sketch=1;" parent="Oh-IbdJAaRqJVPJ2qe_I-1" vertex="1">
                    <mxGeometry x="4091.73" y="335.05" width="7.5" height="10" as="geometry"/>
                </mxCell>
                <mxCell id="tNmkC3opJ2AgtzRq_YRS-83" value="" style="html=1;shadow=0;dashed=0;shape=mxgraph.bootstrap.rrect;rSize=5;fillColor=none;strokeColor=#999999;align=left;spacing=15;fontSize=14;fontColor=#6C767D;strokeWidth=1;fontFamily=Nunito Sans;fontSource=https%3A%2F%2Ffonts.googleapis.com%2Fcss%3Ffamily%3DNunito%2BSans;rounded=0;sketch=1;" parent="Oh-IbdJAaRqJVPJ2qe_I-1" vertex="1">
                    <mxGeometry x="4025.73" y="364.1" width="83.5" height="25" as="geometry"/>
                </mxCell>
                <mxCell id="tNmkC3opJ2AgtzRq_YRS-84" value="&lt;font color=&quot;#8f8f8f&quot; style=&quot;font-size: 9px;&quot;&gt;Crips 1&lt;/font&gt;" style="text;html=1;strokeColor=none;fillColor=none;align=center;verticalAlign=middle;whiteSpace=wrap;rounded=0;strokeWidth=1;fontFamily=Nunito Sans;fontSource=https%3A%2F%2Ffonts.googleapis.com%2Fcss%3Ffamily%3DNunito%2BSans;fontSize=9;textOpacity=40;sketch=1;" parent="Oh-IbdJAaRqJVPJ2qe_I-1" vertex="1">
                    <mxGeometry x="4025.73" y="360.6" width="50" height="30" as="geometry"/>
                </mxCell>
                <mxCell id="tNmkC3opJ2AgtzRq_YRS-85" value="" style="triangle;whiteSpace=wrap;html=1;strokeColor=none;strokeWidth=1;fontFamily=Nunito Sans;fontSource=https%3A%2F%2Ffonts.googleapis.com%2Fcss%3Ffamily%3DNunito%2BSans;fontSize=15;fillColor=#050505;rotation=90;textOpacity=20;opacity=60;rounded=0;sketch=1;" parent="Oh-IbdJAaRqJVPJ2qe_I-1" vertex="1">
                    <mxGeometry x="4091.73" y="372.15" width="7.5" height="10" as="geometry"/>
                </mxCell>
                <mxCell id="tNmkC3opJ2AgtzRq_YRS-86" value="" style="html=1;shadow=0;dashed=0;shape=mxgraph.bootstrap.rrect;rSize=5;fillColor=none;strokeColor=#999999;align=left;spacing=15;fontSize=14;fontColor=#6C767D;strokeWidth=1;fontFamily=Nunito Sans;fontSource=https%3A%2F%2Ffonts.googleapis.com%2Fcss%3Ffamily%3DNunito%2BSans;rounded=0;sketch=1;" parent="Oh-IbdJAaRqJVPJ2qe_I-1" vertex="1">
                    <mxGeometry x="4025.73" y="405" width="83.5" height="25" as="geometry"/>
                </mxCell>
                <mxCell id="tNmkC3opJ2AgtzRq_YRS-87" value="&lt;font color=&quot;#8f8f8f&quot; style=&quot;font-size: 9px;&quot;&gt;Crips 1&lt;/font&gt;" style="text;html=1;strokeColor=none;fillColor=none;align=center;verticalAlign=middle;whiteSpace=wrap;rounded=0;strokeWidth=1;fontFamily=Nunito Sans;fontSource=https%3A%2F%2Ffonts.googleapis.com%2Fcss%3Ffamily%3DNunito%2BSans;fontSize=9;textOpacity=40;sketch=1;" parent="Oh-IbdJAaRqJVPJ2qe_I-1" vertex="1">
                    <mxGeometry x="4025.73" y="401.5" width="50" height="30" as="geometry"/>
                </mxCell>
                <mxCell id="tNmkC3opJ2AgtzRq_YRS-88" value="" style="triangle;whiteSpace=wrap;html=1;strokeColor=none;strokeWidth=1;fontFamily=Nunito Sans;fontSource=https%3A%2F%2Ffonts.googleapis.com%2Fcss%3Ffamily%3DNunito%2BSans;fontSize=15;fillColor=#050505;rotation=90;textOpacity=20;opacity=60;rounded=0;sketch=1;" parent="Oh-IbdJAaRqJVPJ2qe_I-1" vertex="1">
                    <mxGeometry x="4091.73" y="413.04999999999995" width="7.5" height="10" as="geometry"/>
                </mxCell>
                <mxCell id="tNmkC3opJ2AgtzRq_YRS-89" value="" style="html=1;shadow=0;dashed=0;shape=mxgraph.bootstrap.rrect;rSize=5;fillColor=none;strokeColor=#999999;align=left;spacing=15;fontSize=14;fontColor=#6C767D;strokeWidth=1;fontFamily=Nunito Sans;fontSource=https%3A%2F%2Ffonts.googleapis.com%2Fcss%3Ffamily%3DNunito%2BSans;rounded=0;sketch=1;" parent="Oh-IbdJAaRqJVPJ2qe_I-1" vertex="1">
                    <mxGeometry x="4118.37" y="281.5" width="83.5" height="25" as="geometry"/>
                </mxCell>
                <mxCell id="tNmkC3opJ2AgtzRq_YRS-90" value="&lt;font color=&quot;#8f8f8f&quot; style=&quot;font-size: 9px;&quot;&gt;Crips 1&lt;/font&gt;" style="text;html=1;strokeColor=none;fillColor=none;align=center;verticalAlign=middle;whiteSpace=wrap;rounded=0;strokeWidth=1;fontFamily=Nunito Sans;fontSource=https%3A%2F%2Ffonts.googleapis.com%2Fcss%3Ffamily%3DNunito%2BSans;fontSize=9;textOpacity=40;sketch=1;" parent="Oh-IbdJAaRqJVPJ2qe_I-1" vertex="1">
                    <mxGeometry x="4118.37" y="278" width="50" height="30" as="geometry"/>
                </mxCell>
                <mxCell id="tNmkC3opJ2AgtzRq_YRS-91" value="" style="triangle;whiteSpace=wrap;html=1;strokeColor=none;strokeWidth=1;fontFamily=Nunito Sans;fontSource=https%3A%2F%2Ffonts.googleapis.com%2Fcss%3Ffamily%3DNunito%2BSans;fontSize=15;fillColor=#050505;rotation=90;textOpacity=20;opacity=60;rounded=0;sketch=1;" parent="Oh-IbdJAaRqJVPJ2qe_I-1" vertex="1">
                    <mxGeometry x="4184.37" y="289.55" width="7.5" height="10" as="geometry"/>
                </mxCell>
                <mxCell id="tNmkC3opJ2AgtzRq_YRS-92" value="" style="html=1;shadow=0;dashed=0;shape=mxgraph.bootstrap.rrect;rSize=5;fillColor=none;strokeColor=#999999;align=left;spacing=15;fontSize=14;fontColor=#6C767D;strokeWidth=1;fontFamily=Nunito Sans;fontSource=https%3A%2F%2Ffonts.googleapis.com%2Fcss%3Ffamily%3DNunito%2BSans;rounded=0;sketch=1;" parent="Oh-IbdJAaRqJVPJ2qe_I-1" vertex="1">
                    <mxGeometry x="4117.62" y="326.5" width="83.5" height="25" as="geometry"/>
                </mxCell>
                <mxCell id="tNmkC3opJ2AgtzRq_YRS-93" value="&lt;font color=&quot;#8f8f8f&quot; style=&quot;font-size: 9px;&quot;&gt;Crips 1&lt;/font&gt;" style="text;html=1;strokeColor=none;fillColor=none;align=center;verticalAlign=middle;whiteSpace=wrap;rounded=0;strokeWidth=1;fontFamily=Nunito Sans;fontSource=https%3A%2F%2Ffonts.googleapis.com%2Fcss%3Ffamily%3DNunito%2BSans;fontSize=9;textOpacity=40;sketch=1;" parent="Oh-IbdJAaRqJVPJ2qe_I-1" vertex="1">
                    <mxGeometry x="4117.62" y="323" width="50" height="30" as="geometry"/>
                </mxCell>
                <mxCell id="tNmkC3opJ2AgtzRq_YRS-94" value="" style="triangle;whiteSpace=wrap;html=1;strokeColor=none;strokeWidth=1;fontFamily=Nunito Sans;fontSource=https%3A%2F%2Ffonts.googleapis.com%2Fcss%3Ffamily%3DNunito%2BSans;fontSize=15;fillColor=#050505;rotation=90;textOpacity=20;opacity=60;rounded=0;sketch=1;" parent="Oh-IbdJAaRqJVPJ2qe_I-1" vertex="1">
                    <mxGeometry x="4183.62" y="334.55" width="7.5" height="10" as="geometry"/>
                </mxCell>
                <mxCell id="tNmkC3opJ2AgtzRq_YRS-95" value="" style="html=1;shadow=0;dashed=0;shape=mxgraph.bootstrap.rrect;rSize=5;fillColor=none;strokeColor=#999999;align=left;spacing=15;fontSize=14;fontColor=#6C767D;strokeWidth=1;fontFamily=Nunito Sans;fontSource=https%3A%2F%2Ffonts.googleapis.com%2Fcss%3Ffamily%3DNunito%2BSans;rounded=0;sketch=1;" parent="Oh-IbdJAaRqJVPJ2qe_I-1" vertex="1">
                    <mxGeometry x="4117.62" y="363.6" width="83.5" height="25" as="geometry"/>
                </mxCell>
                <mxCell id="tNmkC3opJ2AgtzRq_YRS-96" value="&lt;font color=&quot;#8f8f8f&quot; style=&quot;font-size: 9px;&quot;&gt;Crips 1&lt;/font&gt;" style="text;html=1;strokeColor=none;fillColor=none;align=center;verticalAlign=middle;whiteSpace=wrap;rounded=0;strokeWidth=1;fontFamily=Nunito Sans;fontSource=https%3A%2F%2Ffonts.googleapis.com%2Fcss%3Ffamily%3DNunito%2BSans;fontSize=9;textOpacity=40;sketch=1;" parent="Oh-IbdJAaRqJVPJ2qe_I-1" vertex="1">
                    <mxGeometry x="4117.62" y="360.1" width="50" height="30" as="geometry"/>
                </mxCell>
                <mxCell id="tNmkC3opJ2AgtzRq_YRS-97" value="" style="triangle;whiteSpace=wrap;html=1;strokeColor=none;strokeWidth=1;fontFamily=Nunito Sans;fontSource=https%3A%2F%2Ffonts.googleapis.com%2Fcss%3Ffamily%3DNunito%2BSans;fontSize=15;fillColor=#050505;rotation=90;textOpacity=20;opacity=60;rounded=0;sketch=1;" parent="Oh-IbdJAaRqJVPJ2qe_I-1" vertex="1">
                    <mxGeometry x="4183.62" y="371.65" width="7.5" height="10" as="geometry"/>
                </mxCell>
                <mxCell id="tNmkC3opJ2AgtzRq_YRS-98" value="" style="html=1;shadow=0;dashed=0;shape=mxgraph.bootstrap.rrect;rSize=5;fillColor=none;strokeColor=#999999;align=left;spacing=15;fontSize=14;fontColor=#6C767D;strokeWidth=1;fontFamily=Nunito Sans;fontSource=https%3A%2F%2Ffonts.googleapis.com%2Fcss%3Ffamily%3DNunito%2BSans;rounded=0;sketch=1;" parent="Oh-IbdJAaRqJVPJ2qe_I-1" vertex="1">
                    <mxGeometry x="4117.62" y="404.5" width="83.5" height="25" as="geometry"/>
                </mxCell>
                <mxCell id="tNmkC3opJ2AgtzRq_YRS-99" value="&lt;font color=&quot;#8f8f8f&quot; style=&quot;font-size: 9px;&quot;&gt;Crips 1&lt;/font&gt;" style="text;html=1;strokeColor=none;fillColor=none;align=center;verticalAlign=middle;whiteSpace=wrap;rounded=0;strokeWidth=1;fontFamily=Nunito Sans;fontSource=https%3A%2F%2Ffonts.googleapis.com%2Fcss%3Ffamily%3DNunito%2BSans;fontSize=9;textOpacity=40;sketch=1;" parent="Oh-IbdJAaRqJVPJ2qe_I-1" vertex="1">
                    <mxGeometry x="4117.62" y="401" width="50" height="30" as="geometry"/>
                </mxCell>
                <mxCell id="tNmkC3opJ2AgtzRq_YRS-100" value="" style="triangle;whiteSpace=wrap;html=1;strokeColor=none;strokeWidth=1;fontFamily=Nunito Sans;fontSource=https%3A%2F%2Ffonts.googleapis.com%2Fcss%3Ffamily%3DNunito%2BSans;fontSize=15;fillColor=#050505;rotation=90;textOpacity=20;opacity=60;rounded=0;sketch=1;" parent="Oh-IbdJAaRqJVPJ2qe_I-1" vertex="1">
                    <mxGeometry x="4183.62" y="412.54999999999995" width="7.5" height="10" as="geometry"/>
                </mxCell>
                <mxCell id="tNmkC3opJ2AgtzRq_YRS-101" value="" style="rounded=0;whiteSpace=wrap;html=1;strokeColor=none;strokeWidth=1;fontFamily=Nunito Sans;fontSource=https%3A%2F%2Ffonts.googleapis.com%2Fcss%3Ffamily%3DNunito%2BSans;fontSize=15;fillColor=#B0B0B0;arcSize=10;verticalAlign=bottom;gradientColor=none;sketch=1;" parent="Oh-IbdJAaRqJVPJ2qe_I-1" vertex="1">
                    <mxGeometry x="3855.75" y="86.30000000000001" width="121.12" height="20" as="geometry"/>
                </mxCell>
                <mxCell id="tNmkC3opJ2AgtzRq_YRS-102" value="&lt;font style=&quot;font-size: 15px;&quot; data-font-src=&quot;https://fonts.googleapis.com/css?family=Nunito+Sans&quot; face=&quot;Nunito Sans&quot;&gt;Penilaian&lt;/font&gt;" style="text;html=1;strokeColor=none;fillColor=none;align=center;verticalAlign=middle;whiteSpace=wrap;rounded=0;strokeWidth=1;sketch=1;" parent="Oh-IbdJAaRqJVPJ2qe_I-1" vertex="1">
                    <mxGeometry x="3853.75" y="79.25" width="90.5" height="30" as="geometry"/>
                </mxCell>
                <mxCell id="tNmkC3opJ2AgtzRq_YRS-103" value="&amp;nbsp;" style="rounded=0;whiteSpace=wrap;html=1;sketch=1;" parent="Oh-IbdJAaRqJVPJ2qe_I-1" vertex="1">
                    <mxGeometry x="4300" y="66" width="810" height="590" as="geometry"/>
                </mxCell>
                <mxCell id="tNmkC3opJ2AgtzRq_YRS-104" value="" style="rounded=0;whiteSpace=wrap;html=1;fillColor=none;strokeColor=#0E1319;strokeWidth=1;sketch=1;" parent="Oh-IbdJAaRqJVPJ2qe_I-1" vertex="1">
                    <mxGeometry x="4300" y="66" width="201" height="590" as="geometry"/>
                </mxCell>
                <mxCell id="tNmkC3opJ2AgtzRq_YRS-105" value="" style="pointerEvents=1;shadow=0;dashed=0;html=1;strokeColor=none;labelPosition=center;verticalLabelPosition=bottom;verticalAlign=top;align=center;fillColor=#505050;shape=mxgraph.mscae.intune.account_portal;strokeWidth=1;fontFamily=Nunito Sans;fontSource=https%3A%2F%2Ffonts.googleapis.com%2Fcss%3Ffamily%3DNunito%2BSans;fontSize=15;rounded=0;sketch=1;" parent="Oh-IbdJAaRqJVPJ2qe_I-1" vertex="1">
                    <mxGeometry x="4323.9" y="85.45" width="159.55" height="160" as="geometry"/>
                </mxCell>
                <mxCell id="tNmkC3opJ2AgtzRq_YRS-106" value="&lt;font face=&quot;Nunito Sans&quot;&gt;&lt;span style=&quot;font-size: 15px;&quot;&gt;user&lt;/span&gt;&lt;/font&gt;" style="text;html=1;strokeColor=none;fillColor=none;align=center;verticalAlign=middle;whiteSpace=wrap;rounded=0;strokeWidth=1;sketch=1;" parent="Oh-IbdJAaRqJVPJ2qe_I-1" vertex="1">
                    <mxGeometry x="4376.07" y="252.55" width="40" height="10" as="geometry"/>
                </mxCell>
                <mxCell id="tNmkC3opJ2AgtzRq_YRS-107" value="" style="pointerEvents=1;shadow=0;dashed=0;html=1;strokeColor=none;fillColor=#00120E;labelPosition=center;verticalLabelPosition=bottom;verticalAlign=top;align=center;outlineConnect=0;shape=mxgraph.veeam2.folder;strokeWidth=1;fontFamily=Nunito Sans;fontSource=https%3A%2F%2Ffonts.googleapis.com%2Fcss%3Ffamily%3DNunito%2BSans;fontSize=15;rounded=0;sketch=1;" parent="Oh-IbdJAaRqJVPJ2qe_I-1" vertex="1">
                    <mxGeometry x="4517.05" y="83" width="35" height="30" as="geometry"/>
                </mxCell>
                <mxCell id="tNmkC3opJ2AgtzRq_YRS-108" value="&lt;font style=&quot;font-size: 15px;&quot; data-font-src=&quot;https://fonts.googleapis.com/css?family=Nunito+Sans&quot; face=&quot;Nunito Sans&quot;&gt;Data Master&lt;/font&gt;" style="text;html=1;strokeColor=none;fillColor=none;align=center;verticalAlign=middle;whiteSpace=wrap;rounded=0;strokeWidth=1;sketch=1;" parent="Oh-IbdJAaRqJVPJ2qe_I-1" vertex="1">
                    <mxGeometry x="4560.5" y="83" width="90.5" height="30" as="geometry"/>
                </mxCell>
                <mxCell id="tNmkC3opJ2AgtzRq_YRS-109" value="&lt;font style=&quot;font-size: 15px;&quot; data-font-src=&quot;https://fonts.googleapis.com/css?family=Nunito+Sans&quot; face=&quot;Nunito Sans&quot;&gt;Perhitungan&lt;/font&gt;" style="text;html=1;strokeColor=none;fillColor=none;align=center;verticalAlign=middle;whiteSpace=wrap;rounded=0;strokeWidth=1;sketch=1;" parent="Oh-IbdJAaRqJVPJ2qe_I-1" vertex="1">
                    <mxGeometry x="4893" y="84.00000000000001" width="90.5" height="30" as="geometry"/>
                </mxCell>
                <mxCell id="tNmkC3opJ2AgtzRq_YRS-110" value="" style="dashed=0;aspect=fixed;verticalLabelPosition=bottom;verticalAlign=top;align=center;shape=mxgraph.gmdl.edit;strokeColor=none;fillColor=#171717;shadow=0;strokeWidth=1;fontFamily=Nunito Sans;fontSource=https%3A%2F%2Ffonts.googleapis.com%2Fcss%3Ffamily%3DNunito%2BSans;fontSize=15;rounded=0;sketch=1;" parent="Oh-IbdJAaRqJVPJ2qe_I-1" vertex="1">
                    <mxGeometry x="4667.9" y="89.25" width="23.75" height="23.75" as="geometry"/>
                </mxCell>
                <mxCell id="tNmkC3opJ2AgtzRq_YRS-111" value="" style="pointerEvents=1;shadow=0;dashed=0;html=1;strokeColor=none;fillColor=#001F18;labelPosition=center;verticalLabelPosition=bottom;verticalAlign=top;align=center;outlineConnect=0;shape=mxgraph.veeam2.automation;strokeWidth=1;fontFamily=Nunito Sans;fontSource=https%3A%2F%2Ffonts.googleapis.com%2Fcss%3Ffamily%3DNunito%2BSans;fontSize=15;rounded=0;sketch=1;" parent="Oh-IbdJAaRqJVPJ2qe_I-1" vertex="1">
                    <mxGeometry x="4854" y="83.00000000000001" width="30" height="30" as="geometry"/>
                </mxCell>
                <mxCell id="tNmkC3opJ2AgtzRq_YRS-195" value="" style="rounded=0;whiteSpace=wrap;html=1;strokeColor=none;strokeWidth=1;fontFamily=Nunito Sans;fontSource=https%3A%2F%2Ffonts.googleapis.com%2Fcss%3Ffamily%3DNunito%2BSans;fontSize=15;fillColor=#B0B0B0;arcSize=10;verticalAlign=bottom;gradientColor=none;sketch=1;" parent="Oh-IbdJAaRqJVPJ2qe_I-1" vertex="1">
                    <mxGeometry x="4698.65" y="89.30000000000001" width="121.12" height="20" as="geometry"/>
                </mxCell>
                <mxCell id="tNmkC3opJ2AgtzRq_YRS-196" value="&lt;font style=&quot;font-size: 15px;&quot; data-font-src=&quot;https://fonts.googleapis.com/css?family=Nunito+Sans&quot; face=&quot;Nunito Sans&quot;&gt;Penilaian&lt;/font&gt;" style="text;html=1;strokeColor=none;fillColor=none;align=center;verticalAlign=middle;whiteSpace=wrap;rounded=0;strokeWidth=1;sketch=1;" parent="Oh-IbdJAaRqJVPJ2qe_I-1" vertex="1">
                    <mxGeometry x="4696.65" y="82.25" width="90.5" height="30" as="geometry"/>
                </mxCell>
                <mxCell id="tNmkC3opJ2AgtzRq_YRS-197" value="&amp;nbsp;" style="rounded=0;whiteSpace=wrap;html=1;sketch=1;" parent="Oh-IbdJAaRqJVPJ2qe_I-1" vertex="1">
                    <mxGeometry x="5150" y="66" width="810" height="590" as="geometry"/>
                </mxCell>
                <mxCell id="tNmkC3opJ2AgtzRq_YRS-198" value="" style="rounded=0;whiteSpace=wrap;html=1;fillColor=none;strokeColor=#0E1319;strokeWidth=1;sketch=1;" parent="Oh-IbdJAaRqJVPJ2qe_I-1" vertex="1">
                    <mxGeometry x="5150" y="66" width="201" height="590" as="geometry"/>
                </mxCell>
                <mxCell id="tNmkC3opJ2AgtzRq_YRS-199" value="" style="pointerEvents=1;shadow=0;dashed=0;html=1;strokeColor=none;labelPosition=center;verticalLabelPosition=bottom;verticalAlign=top;align=center;fillColor=#505050;shape=mxgraph.mscae.intune.account_portal;strokeWidth=1;fontFamily=Nunito Sans;fontSource=https%3A%2F%2Ffonts.googleapis.com%2Fcss%3Ffamily%3DNunito%2BSans;fontSize=15;rounded=0;sketch=1;" parent="Oh-IbdJAaRqJVPJ2qe_I-1" vertex="1">
                    <mxGeometry x="5173.9" y="85.45" width="159.55" height="160" as="geometry"/>
                </mxCell>
                <mxCell id="tNmkC3opJ2AgtzRq_YRS-200" value="&lt;font face=&quot;Nunito Sans&quot;&gt;&lt;span style=&quot;font-size: 15px;&quot;&gt;user&lt;/span&gt;&lt;/font&gt;" style="text;html=1;strokeColor=none;fillColor=none;align=center;verticalAlign=middle;whiteSpace=wrap;rounded=0;strokeWidth=1;sketch=1;" parent="Oh-IbdJAaRqJVPJ2qe_I-1" vertex="1">
                    <mxGeometry x="5226.07" y="252.55" width="40" height="10" as="geometry"/>
                </mxCell>
                <mxCell id="tNmkC3opJ2AgtzRq_YRS-201" value="" style="pointerEvents=1;shadow=0;dashed=0;html=1;strokeColor=none;fillColor=#00120E;labelPosition=center;verticalLabelPosition=bottom;verticalAlign=top;align=center;outlineConnect=0;shape=mxgraph.veeam2.folder;strokeWidth=1;fontFamily=Nunito Sans;fontSource=https%3A%2F%2Ffonts.googleapis.com%2Fcss%3Ffamily%3DNunito%2BSans;fontSize=15;rounded=0;sketch=1;" parent="Oh-IbdJAaRqJVPJ2qe_I-1" vertex="1">
                    <mxGeometry x="5367.05" y="83" width="35" height="30" as="geometry"/>
                </mxCell>
                <mxCell id="tNmkC3opJ2AgtzRq_YRS-202" value="&lt;font style=&quot;font-size: 15px;&quot; data-font-src=&quot;https://fonts.googleapis.com/css?family=Nunito+Sans&quot; face=&quot;Nunito Sans&quot;&gt;Data Master&lt;/font&gt;" style="text;html=1;strokeColor=none;fillColor=none;align=center;verticalAlign=middle;whiteSpace=wrap;rounded=0;strokeWidth=1;sketch=1;" parent="Oh-IbdJAaRqJVPJ2qe_I-1" vertex="1">
                    <mxGeometry x="5410.5" y="83" width="90.5" height="30" as="geometry"/>
                </mxCell>
                <mxCell id="tNmkC3opJ2AgtzRq_YRS-203" value="&lt;font style=&quot;font-size: 15px;&quot; data-font-src=&quot;https://fonts.googleapis.com/css?family=Nunito+Sans&quot; face=&quot;Nunito Sans&quot;&gt;Perhitungan&lt;/font&gt;" style="text;html=1;strokeColor=none;fillColor=none;align=center;verticalAlign=middle;whiteSpace=wrap;rounded=0;strokeWidth=1;sketch=1;" parent="Oh-IbdJAaRqJVPJ2qe_I-1" vertex="1">
                    <mxGeometry x="5743" y="84.00000000000001" width="90.5" height="30" as="geometry"/>
                </mxCell>
                <mxCell id="tNmkC3opJ2AgtzRq_YRS-204" value="" style="dashed=0;aspect=fixed;verticalLabelPosition=bottom;verticalAlign=top;align=center;shape=mxgraph.gmdl.edit;strokeColor=none;fillColor=#171717;shadow=0;strokeWidth=1;fontFamily=Nunito Sans;fontSource=https%3A%2F%2Ffonts.googleapis.com%2Fcss%3Ffamily%3DNunito%2BSans;fontSize=15;rounded=0;sketch=1;" parent="Oh-IbdJAaRqJVPJ2qe_I-1" vertex="1">
                    <mxGeometry x="5517.9" y="89.25" width="23.75" height="23.75" as="geometry"/>
                </mxCell>
                <mxCell id="tNmkC3opJ2AgtzRq_YRS-205" value="" style="pointerEvents=1;shadow=0;dashed=0;html=1;strokeColor=none;fillColor=#001F18;labelPosition=center;verticalLabelPosition=bottom;verticalAlign=top;align=center;outlineConnect=0;shape=mxgraph.veeam2.automation;strokeWidth=1;fontFamily=Nunito Sans;fontSource=https%3A%2F%2Ffonts.googleapis.com%2Fcss%3Ffamily%3DNunito%2BSans;fontSize=15;rounded=0;sketch=1;" parent="Oh-IbdJAaRqJVPJ2qe_I-1" vertex="1">
                    <mxGeometry x="5704" y="83.00000000000001" width="30" height="30" as="geometry"/>
                </mxCell>
                <mxCell id="tNmkC3opJ2AgtzRq_YRS-206" value="" style="rounded=0;whiteSpace=wrap;html=1;strokeColor=none;strokeWidth=1;fontFamily=Nunito Sans;fontSource=https%3A%2F%2Ffonts.googleapis.com%2Fcss%3Ffamily%3DNunito%2BSans;fontSize=15;fillColor=#B0B0B0;arcSize=10;verticalAlign=bottom;gradientColor=none;sketch=1;" parent="Oh-IbdJAaRqJVPJ2qe_I-1" vertex="1">
                    <mxGeometry x="5548.65" y="89.30000000000001" width="121.12" height="20" as="geometry"/>
                </mxCell>
                <mxCell id="tNmkC3opJ2AgtzRq_YRS-207" value="&lt;font style=&quot;font-size: 15px;&quot; data-font-src=&quot;https://fonts.googleapis.com/css?family=Nunito+Sans&quot; face=&quot;Nunito Sans&quot;&gt;Penilaian&lt;/font&gt;" style="text;html=1;strokeColor=none;fillColor=none;align=center;verticalAlign=middle;whiteSpace=wrap;rounded=0;strokeWidth=1;sketch=1;" parent="Oh-IbdJAaRqJVPJ2qe_I-1" vertex="1">
                    <mxGeometry x="5546.65" y="82.25" width="90.5" height="30" as="geometry"/>
                </mxCell>
                <mxCell id="tNmkC3opJ2AgtzRq_YRS-208" value="&amp;nbsp;" style="rounded=0;whiteSpace=wrap;html=1;sketch=1;" parent="Oh-IbdJAaRqJVPJ2qe_I-1" vertex="1">
                    <mxGeometry x="6020" y="70" width="970" height="590" as="geometry"/>
                </mxCell>
                <mxCell id="tNmkC3opJ2AgtzRq_YRS-209" value="" style="rounded=0;whiteSpace=wrap;html=1;fillColor=none;strokeColor=#0E1319;strokeWidth=1;sketch=1;" parent="Oh-IbdJAaRqJVPJ2qe_I-1" vertex="1">
                    <mxGeometry x="6020" y="70" width="201" height="590" as="geometry"/>
                </mxCell>
                <mxCell id="tNmkC3opJ2AgtzRq_YRS-210" value="" style="pointerEvents=1;shadow=0;dashed=0;html=1;strokeColor=none;labelPosition=center;verticalLabelPosition=bottom;verticalAlign=top;align=center;fillColor=#505050;shape=mxgraph.mscae.intune.account_portal;strokeWidth=1;fontFamily=Nunito Sans;fontSource=https%3A%2F%2Ffonts.googleapis.com%2Fcss%3Ffamily%3DNunito%2BSans;fontSize=15;rounded=0;sketch=1;" parent="Oh-IbdJAaRqJVPJ2qe_I-1" vertex="1">
                    <mxGeometry x="6043.9" y="89.45" width="159.55" height="160" as="geometry"/>
                </mxCell>
                <mxCell id="tNmkC3opJ2AgtzRq_YRS-211" value="&lt;font face=&quot;Nunito Sans&quot;&gt;&lt;span style=&quot;font-size: 15px;&quot;&gt;user&lt;/span&gt;&lt;/font&gt;" style="text;html=1;strokeColor=none;fillColor=none;align=center;verticalAlign=middle;whiteSpace=wrap;rounded=0;strokeWidth=1;sketch=1;" parent="Oh-IbdJAaRqJVPJ2qe_I-1" vertex="1">
                    <mxGeometry x="6096.07" y="256.55" width="40" height="10" as="geometry"/>
                </mxCell>
                <mxCell id="tNmkC3opJ2AgtzRq_YRS-212" value="" style="pointerEvents=1;shadow=0;dashed=0;html=1;strokeColor=none;fillColor=#00120E;labelPosition=center;verticalLabelPosition=bottom;verticalAlign=top;align=center;outlineConnect=0;shape=mxgraph.veeam2.folder;strokeWidth=1;fontFamily=Nunito Sans;fontSource=https%3A%2F%2Ffonts.googleapis.com%2Fcss%3Ffamily%3DNunito%2BSans;fontSize=15;rounded=0;sketch=1;" parent="Oh-IbdJAaRqJVPJ2qe_I-1" vertex="1">
                    <mxGeometry x="6237.05" y="87" width="35" height="30" as="geometry"/>
                </mxCell>
                <mxCell id="tNmkC3opJ2AgtzRq_YRS-213" value="&lt;font style=&quot;font-size: 15px;&quot; data-font-src=&quot;https://fonts.googleapis.com/css?family=Nunito+Sans&quot; face=&quot;Nunito Sans&quot;&gt;Data Master&lt;/font&gt;" style="text;html=1;strokeColor=none;fillColor=none;align=center;verticalAlign=middle;whiteSpace=wrap;rounded=0;strokeWidth=1;sketch=1;" parent="Oh-IbdJAaRqJVPJ2qe_I-1" vertex="1">
                    <mxGeometry x="6280.5" y="87" width="90.5" height="30" as="geometry"/>
                </mxCell>
                <mxCell id="tNmkC3opJ2AgtzRq_YRS-214" value="&lt;font style=&quot;font-size: 15px;&quot; data-font-src=&quot;https://fonts.googleapis.com/css?family=Nunito+Sans&quot; face=&quot;Nunito Sans&quot;&gt;Perhitungan&lt;/font&gt;" style="text;html=1;strokeColor=none;fillColor=none;align=center;verticalAlign=middle;whiteSpace=wrap;rounded=0;strokeWidth=1;sketch=1;" parent="Oh-IbdJAaRqJVPJ2qe_I-1" vertex="1">
                    <mxGeometry x="6613" y="88.00000000000001" width="90.5" height="30" as="geometry"/>
                </mxCell>
                <mxCell id="tNmkC3opJ2AgtzRq_YRS-215" value="" style="dashed=0;aspect=fixed;verticalLabelPosition=bottom;verticalAlign=top;align=center;shape=mxgraph.gmdl.edit;strokeColor=none;fillColor=#171717;shadow=0;strokeWidth=1;fontFamily=Nunito Sans;fontSource=https%3A%2F%2Ffonts.googleapis.com%2Fcss%3Ffamily%3DNunito%2BSans;fontSize=15;rounded=0;sketch=1;" parent="Oh-IbdJAaRqJVPJ2qe_I-1" vertex="1">
                    <mxGeometry x="6387.9" y="93.25" width="23.75" height="23.75" as="geometry"/>
                </mxCell>
                <mxCell id="tNmkC3opJ2AgtzRq_YRS-216" value="" style="pointerEvents=1;shadow=0;dashed=0;html=1;strokeColor=none;fillColor=#001F18;labelPosition=center;verticalLabelPosition=bottom;verticalAlign=top;align=center;outlineConnect=0;shape=mxgraph.veeam2.automation;strokeWidth=1;fontFamily=Nunito Sans;fontSource=https%3A%2F%2Ffonts.googleapis.com%2Fcss%3Ffamily%3DNunito%2BSans;fontSize=15;rounded=0;sketch=1;" parent="Oh-IbdJAaRqJVPJ2qe_I-1" vertex="1">
                    <mxGeometry x="6574" y="87.00000000000001" width="30" height="30" as="geometry"/>
                </mxCell>
                <mxCell id="tNmkC3opJ2AgtzRq_YRS-217" value="" style="rounded=0;whiteSpace=wrap;html=1;strokeColor=none;strokeWidth=1;fontFamily=Nunito Sans;fontSource=https%3A%2F%2Ffonts.googleapis.com%2Fcss%3Ffamily%3DNunito%2BSans;fontSize=15;fillColor=#B0B0B0;arcSize=10;verticalAlign=bottom;gradientColor=none;sketch=1;" parent="Oh-IbdJAaRqJVPJ2qe_I-1" vertex="1">
                    <mxGeometry x="6418.65" y="93.30000000000001" width="121.12" height="20" as="geometry"/>
                </mxCell>
                <mxCell id="tNmkC3opJ2AgtzRq_YRS-218" value="&lt;font style=&quot;font-size: 15px;&quot; data-font-src=&quot;https://fonts.googleapis.com/css?family=Nunito+Sans&quot; face=&quot;Nunito Sans&quot;&gt;Penilaian&lt;/font&gt;" style="text;html=1;strokeColor=none;fillColor=none;align=center;verticalAlign=middle;whiteSpace=wrap;rounded=0;strokeWidth=1;sketch=1;" parent="Oh-IbdJAaRqJVPJ2qe_I-1" vertex="1">
                    <mxGeometry x="6416.65" y="86.25" width="90.5" height="30" as="geometry"/>
                </mxCell>
                <mxCell id="tNmkC3opJ2AgtzRq_YRS-219" value="" style="rounded=0;whiteSpace=wrap;html=1;strokeColor=#0E1319;strokeWidth=1;fontFamily=Nunito Sans;fontSource=https%3A%2F%2Ffonts.googleapis.com%2Fcss%3Ffamily%3DNunito%2BSans;fontSize=15;fillColor=#F5F5F5;arcSize=3;sketch=1;" parent="Oh-IbdJAaRqJVPJ2qe_I-1" vertex="1">
                    <mxGeometry x="4526.75" y="135" width="560" height="500" as="geometry"/>
                </mxCell>
                <mxCell id="tNmkC3opJ2AgtzRq_YRS-220" value="" style="rounded=0;whiteSpace=wrap;html=1;strokeColor=#000B14;strokeWidth=1;fontFamily=Nunito Sans;fontSource=https%3A%2F%2Ffonts.googleapis.com%2Fcss%3Ffamily%3DNunito%2BSans;fontSize=9;fillColor=none;gradientColor=none;sketch=1;" parent="Oh-IbdJAaRqJVPJ2qe_I-1" vertex="1">
                    <mxGeometry x="4607.75" y="151" width="120" height="20" as="geometry"/>
                </mxCell>
                <mxCell id="tNmkC3opJ2AgtzRq_YRS-221" value="&lt;font style=&quot;font-size: 12px;&quot;&gt;Perhitungan&lt;/font&gt;" style="text;html=1;strokeColor=none;fillColor=none;align=center;verticalAlign=middle;whiteSpace=wrap;rounded=0;strokeWidth=1;fontFamily=Nunito Sans;fontSource=https%3A%2F%2Ffonts.googleapis.com%2Fcss%3Ffamily%3DNunito%2BSans;fontSize=9;sketch=1;" parent="Oh-IbdJAaRqJVPJ2qe_I-1" vertex="1">
                    <mxGeometry x="4516.75" y="145" width="106" height="30" as="geometry"/>
                </mxCell>
                <mxCell id="tNmkC3opJ2AgtzRq_YRS-222" value="" style="rounded=0;whiteSpace=wrap;html=1;strokeColor=#000B14;strokeWidth=1;fontFamily=Nunito Sans;fontSource=https%3A%2F%2Ffonts.googleapis.com%2Fcss%3Ffamily%3DNunito%2BSans;fontSize=5;fillColor=none;gradientColor=none;sketch=1;" parent="Oh-IbdJAaRqJVPJ2qe_I-1" vertex="1">
                    <mxGeometry x="4536.75" y="185" width="537" height="430" as="geometry"/>
                </mxCell>
                <mxCell id="tNmkC3opJ2AgtzRq_YRS-223" value="Pilih Bulan" style="text;html=1;strokeColor=none;fillColor=none;align=center;verticalAlign=middle;whiteSpace=wrap;rounded=0;strokeWidth=1;fontFamily=Nunito Sans;fontSource=https%3A%2F%2Ffonts.googleapis.com%2Fcss%3Ffamily%3DNunito%2BSans;fontSize=9;sketch=1;" parent="Oh-IbdJAaRqJVPJ2qe_I-1" vertex="1">
                    <mxGeometry x="4607.75" y="146" width="60" height="30" as="geometry"/>
                </mxCell>
                <mxCell id="tNmkC3opJ2AgtzRq_YRS-224" value="" style="triangle;whiteSpace=wrap;html=1;strokeColor=#0E1319;strokeWidth=1;fontFamily=Nunito Sans;fontSource=https%3A%2F%2Ffonts.googleapis.com%2Fcss%3Ffamily%3DNunito%2BSans;fontSize=15;fillColor=#050505;rotation=90;rounded=0;sketch=1;" parent="Oh-IbdJAaRqJVPJ2qe_I-1" vertex="1">
                    <mxGeometry x="4712.75" y="157" width="7.5" height="10" as="geometry"/>
                </mxCell>
                <mxCell id="tNmkC3opJ2AgtzRq_YRS-225" value="&lt;font face=&quot;Nunito Sans&quot;&gt;&lt;span style=&quot;font-size: 13px;&quot;&gt;Tahap Analisa&lt;/span&gt;&lt;/font&gt;" style="text;html=1;strokeColor=none;fillColor=none;align=center;verticalAlign=middle;whiteSpace=wrap;rounded=0;strokeWidth=1;sketch=1;" parent="Oh-IbdJAaRqJVPJ2qe_I-1" vertex="1">
                    <mxGeometry x="4553.5" y="193" width="109" height="30" as="geometry"/>
                </mxCell>
                <mxCell id="tNmkC3opJ2AgtzRq_YRS-226" value="" style="line;strokeWidth=2;html=1;fontFamily=Nunito Sans;fontSource=https%3A%2F%2Ffonts.googleapis.com%2Fcss%3Ffamily%3DNunito%2BSans;fontSize=15;fillColor=none;rounded=0;sketch=1;" parent="Oh-IbdJAaRqJVPJ2qe_I-1" vertex="1">
                    <mxGeometry x="4558.73" y="226.75" width="499" height="10" as="geometry"/>
                </mxCell>
                <mxCell id="tNmkC3opJ2AgtzRq_YRS-227" value="&lt;font style=&quot;font-size: 13px;&quot; face=&quot;Nunito Sans&quot;&gt;Nama Alternatif&lt;/font&gt;" style="text;html=1;strokeColor=none;fillColor=none;align=center;verticalAlign=middle;whiteSpace=wrap;rounded=0;strokeWidth=1;sketch=1;" parent="Oh-IbdJAaRqJVPJ2qe_I-1" vertex="1">
                    <mxGeometry x="4558.98" y="237.25" width="109" height="30" as="geometry"/>
                </mxCell>
                <mxCell id="tNmkC3opJ2AgtzRq_YRS-228" value="&lt;font style=&quot;font-size: 13px;&quot; face=&quot;Nunito Sans&quot;&gt;C1&lt;/font&gt;" style="text;html=1;strokeColor=none;fillColor=none;align=center;verticalAlign=middle;whiteSpace=wrap;rounded=0;strokeWidth=1;sketch=1;" parent="Oh-IbdJAaRqJVPJ2qe_I-1" vertex="1">
                    <mxGeometry x="4663.98" y="238.75" width="109" height="30" as="geometry"/>
                </mxCell>
                <mxCell id="tNmkC3opJ2AgtzRq_YRS-229" value="&lt;font style=&quot;font-size: 13px;&quot; face=&quot;Nunito Sans&quot;&gt;C2&lt;/font&gt;" style="text;html=1;strokeColor=none;fillColor=none;align=center;verticalAlign=middle;whiteSpace=wrap;rounded=0;strokeWidth=1;sketch=1;" parent="Oh-IbdJAaRqJVPJ2qe_I-1" vertex="1">
                    <mxGeometry x="4764.98" y="240.75" width="109" height="30" as="geometry"/>
                </mxCell>
                <mxCell id="tNmkC3opJ2AgtzRq_YRS-230" value="&lt;font style=&quot;font-size: 13px;&quot; face=&quot;Nunito Sans&quot;&gt;C3&lt;/font&gt;" style="text;html=1;strokeColor=none;fillColor=none;align=center;verticalAlign=middle;whiteSpace=wrap;rounded=0;strokeWidth=1;sketch=1;" parent="Oh-IbdJAaRqJVPJ2qe_I-1" vertex="1">
                    <mxGeometry x="4852.98" y="240.75" width="109" height="30" as="geometry"/>
                </mxCell>
                <mxCell id="tNmkC3opJ2AgtzRq_YRS-231" value="&lt;font style=&quot;font-size: 13px;&quot; face=&quot;Nunito Sans&quot;&gt;C4&lt;/font&gt;" style="text;html=1;strokeColor=none;fillColor=none;align=center;verticalAlign=middle;whiteSpace=wrap;rounded=0;strokeWidth=1;sketch=1;" parent="Oh-IbdJAaRqJVPJ2qe_I-1" vertex="1">
                    <mxGeometry x="4951.63" y="237.25" width="109" height="30" as="geometry"/>
                </mxCell>
                <mxCell id="tNmkC3opJ2AgtzRq_YRS-232" value="" style="line;strokeWidth=2;html=1;fontFamily=Nunito Sans;fontSource=https%3A%2F%2Ffonts.googleapis.com%2Fcss%3Ffamily%3DNunito%2BSans;fontSize=15;fillColor=none;rounded=0;sketch=1;" parent="Oh-IbdJAaRqJVPJ2qe_I-1" vertex="1">
                    <mxGeometry x="4562.98" y="270.20000000000005" width="494.75" height="10" as="geometry"/>
                </mxCell>
                <mxCell id="tNmkC3opJ2AgtzRq_YRS-233" value="&lt;font face=&quot;Nunito Sans&quot;&gt;&lt;span style=&quot;font-size: 13px;&quot;&gt;A1&lt;/span&gt;&lt;/font&gt;" style="text;html=1;strokeColor=none;fillColor=none;align=center;verticalAlign=middle;whiteSpace=wrap;rounded=0;strokeWidth=1;sketch=1;" parent="Oh-IbdJAaRqJVPJ2qe_I-1" vertex="1">
                    <mxGeometry x="4552.98" y="277.75" width="109" height="30" as="geometry"/>
                </mxCell>
                <mxCell id="tNmkC3opJ2AgtzRq_YRS-234" value="" style="line;strokeWidth=2;html=1;fontFamily=Nunito Sans;fontSource=https%3A%2F%2Ffonts.googleapis.com%2Fcss%3Ffamily%3DNunito%2BSans;fontSize=15;fillColor=none;rounded=0;sketch=1;" parent="Oh-IbdJAaRqJVPJ2qe_I-1" vertex="1">
                    <mxGeometry x="4562.98" y="308.63" width="494.75" height="10" as="geometry"/>
                </mxCell>
                <mxCell id="tNmkC3opJ2AgtzRq_YRS-235" value="&lt;font face=&quot;Nunito Sans&quot;&gt;&lt;span style=&quot;font-size: 13px;&quot;&gt;A2&lt;/span&gt;&lt;/font&gt;" style="text;html=1;strokeColor=none;fillColor=none;align=center;verticalAlign=middle;whiteSpace=wrap;rounded=0;strokeWidth=1;sketch=1;" parent="Oh-IbdJAaRqJVPJ2qe_I-1" vertex="1">
                    <mxGeometry x="4552.98" y="316.18000000000006" width="109" height="30" as="geometry"/>
                </mxCell>
                <mxCell id="tNmkC3opJ2AgtzRq_YRS-236" value="" style="line;strokeWidth=2;html=1;fontFamily=Nunito Sans;fontSource=https%3A%2F%2Ffonts.googleapis.com%2Fcss%3Ffamily%3DNunito%2BSans;fontSize=15;fillColor=none;rounded=0;sketch=1;" parent="Oh-IbdJAaRqJVPJ2qe_I-1" vertex="1">
                    <mxGeometry x="4559.73" y="350.20000000000005" width="499" height="10" as="geometry"/>
                </mxCell>
                <mxCell id="tNmkC3opJ2AgtzRq_YRS-237" value="&lt;font face=&quot;Nunito Sans&quot;&gt;&lt;span style=&quot;font-size: 13px;&quot;&gt;A3&lt;/span&gt;&lt;/font&gt;" style="text;html=1;strokeColor=none;fillColor=none;align=center;verticalAlign=middle;whiteSpace=wrap;rounded=0;strokeWidth=1;sketch=1;" parent="Oh-IbdJAaRqJVPJ2qe_I-1" vertex="1">
                    <mxGeometry x="4553.98" y="357.75" width="109" height="30" as="geometry"/>
                </mxCell>
                <mxCell id="tNmkC3opJ2AgtzRq_YRS-238" value="" style="line;strokeWidth=2;html=1;fontFamily=Nunito Sans;fontSource=https%3A%2F%2Ffonts.googleapis.com%2Fcss%3Ffamily%3DNunito%2BSans;fontSize=15;fillColor=none;rounded=0;sketch=1;" parent="Oh-IbdJAaRqJVPJ2qe_I-1" vertex="1">
                    <mxGeometry x="4561.23" y="389.65" width="499" height="10" as="geometry"/>
                </mxCell>
                <mxCell id="tNmkC3opJ2AgtzRq_YRS-239" value="&lt;font face=&quot;Nunito Sans&quot;&gt;&lt;span style=&quot;font-size: 13px;&quot;&gt;A4&lt;/span&gt;&lt;/font&gt;" style="text;html=1;strokeColor=none;fillColor=none;align=center;verticalAlign=middle;whiteSpace=wrap;rounded=0;strokeWidth=1;sketch=1;" parent="Oh-IbdJAaRqJVPJ2qe_I-1" vertex="1">
                    <mxGeometry x="4555.48" y="397.20000000000005" width="109" height="30" as="geometry"/>
                </mxCell>
                <mxCell id="tNmkC3opJ2AgtzRq_YRS-240" value="" style="line;strokeWidth=2;html=1;fontFamily=Nunito Sans;fontSource=https%3A%2F%2Ffonts.googleapis.com%2Fcss%3Ffamily%3DNunito%2BSans;fontSize=15;fillColor=none;rounded=0;sketch=1;" parent="Oh-IbdJAaRqJVPJ2qe_I-1" vertex="1">
                    <mxGeometry x="4559.73" y="433.20000000000005" width="499" height="10" as="geometry"/>
                </mxCell>
                <mxCell id="tNmkC3opJ2AgtzRq_YRS-241" value="&lt;font face=&quot;Nunito Sans&quot;&gt;&lt;span style=&quot;font-size: 13px;&quot;&gt;A5&lt;/span&gt;&lt;/font&gt;" style="text;html=1;strokeColor=none;fillColor=none;align=center;verticalAlign=middle;whiteSpace=wrap;rounded=0;strokeWidth=1;sketch=1;" parent="Oh-IbdJAaRqJVPJ2qe_I-1" vertex="1">
                    <mxGeometry x="4554.98" y="440.75" width="109" height="30" as="geometry"/>
                </mxCell>
                <mxCell id="tNmkC3opJ2AgtzRq_YRS-242" value="" style="line;strokeWidth=2;html=1;fontFamily=Nunito Sans;fontSource=https%3A%2F%2Ffonts.googleapis.com%2Fcss%3Ffamily%3DNunito%2BSans;fontSize=15;fillColor=none;rotation=-270;rounded=0;sketch=1;" parent="Oh-IbdJAaRqJVPJ2qe_I-1" vertex="1">
                    <mxGeometry x="4562.36" y="347.38" width="238.25" height="10" as="geometry"/>
                </mxCell>
                <mxCell id="tNmkC3opJ2AgtzRq_YRS-243" value="" style="line;strokeWidth=2;html=1;fontFamily=Nunito Sans;fontSource=https%3A%2F%2Ffonts.googleapis.com%2Fcss%3Ffamily%3DNunito%2BSans;fontSize=15;fillColor=none;rounded=0;sketch=1;" parent="Oh-IbdJAaRqJVPJ2qe_I-1" vertex="1">
                    <mxGeometry x="4559.73" y="465.75" width="499" height="10" as="geometry"/>
                </mxCell>
                <mxCell id="tNmkC3opJ2AgtzRq_YRS-244" value="" style="line;strokeWidth=2;html=1;fontFamily=Nunito Sans;fontSource=https%3A%2F%2Ffonts.googleapis.com%2Fcss%3Ffamily%3DNunito%2BSans;fontSize=15;fillColor=none;rotation=-270;rounded=0;sketch=1;" parent="Oh-IbdJAaRqJVPJ2qe_I-1" vertex="1">
                    <mxGeometry x="4641.679999999999" y="346.05999999999995" width="240.87" height="10" as="geometry"/>
                </mxCell>
                <mxCell id="tNmkC3opJ2AgtzRq_YRS-245" value="" style="line;strokeWidth=2;html=1;fontFamily=Nunito Sans;fontSource=https%3A%2F%2Ffonts.googleapis.com%2Fcss%3Ffamily%3DNunito%2BSans;fontSize=15;fillColor=none;rotation=-270;rounded=0;sketch=1;" parent="Oh-IbdJAaRqJVPJ2qe_I-1" vertex="1">
                    <mxGeometry x="4442" y="347.63" width="238.25" height="10" as="geometry"/>
                </mxCell>
                <mxCell id="tNmkC3opJ2AgtzRq_YRS-246" value="" style="line;strokeWidth=2;html=1;fontFamily=Nunito Sans;fontSource=https%3A%2F%2Ffonts.googleapis.com%2Fcss%3Ffamily%3DNunito%2BSans;fontSize=15;fillColor=none;rotation=-270;rounded=0;sketch=1;" parent="Oh-IbdJAaRqJVPJ2qe_I-1" vertex="1">
                    <mxGeometry x="4729.889999999999" y="345.73" width="237.06" height="10" as="geometry"/>
                </mxCell>
                <mxCell id="tNmkC3opJ2AgtzRq_YRS-247" value="" style="line;strokeWidth=2;html=1;fontFamily=Nunito Sans;fontSource=https%3A%2F%2Ffonts.googleapis.com%2Fcss%3Ffamily%3DNunito%2BSans;fontSize=15;fillColor=none;rotation=-270;rounded=0;sketch=1;" parent="Oh-IbdJAaRqJVPJ2qe_I-1" vertex="1">
                    <mxGeometry x="4842.98" y="344.75" width="237.06" height="10" as="geometry"/>
                </mxCell>
                <mxCell id="tNmkC3opJ2AgtzRq_YRS-248" value="" style="line;strokeWidth=2;html=1;fontFamily=Nunito Sans;fontSource=https%3A%2F%2Ffonts.googleapis.com%2Fcss%3Ffamily%3DNunito%2BSans;fontSize=15;fillColor=none;rotation=-270;rounded=0;sketch=1;" parent="Oh-IbdJAaRqJVPJ2qe_I-1" vertex="1">
                    <mxGeometry x="4939.98" y="347.05999999999995" width="237.06" height="10" as="geometry"/>
                </mxCell>
                <mxCell id="tNmkC3opJ2AgtzRq_YRS-249" value="&lt;font style=&quot;font-size: 13px;&quot; face=&quot;Nunito Sans&quot;&gt;1&lt;/font&gt;" style="text;html=1;strokeColor=none;fillColor=none;align=center;verticalAlign=middle;whiteSpace=wrap;rounded=0;strokeWidth=1;sketch=1;" parent="Oh-IbdJAaRqJVPJ2qe_I-1" vertex="1">
                    <mxGeometry x="4663.98" y="276.75" width="109" height="30" as="geometry"/>
                </mxCell>
                <mxCell id="tNmkC3opJ2AgtzRq_YRS-250" value="&lt;font style=&quot;font-size: 13px;&quot; face=&quot;Nunito Sans&quot;&gt;2&lt;/font&gt;" style="text;html=1;strokeColor=none;fillColor=none;align=center;verticalAlign=middle;whiteSpace=wrap;rounded=0;strokeWidth=1;sketch=1;" parent="Oh-IbdJAaRqJVPJ2qe_I-1" vertex="1">
                    <mxGeometry x="4755.86" y="276.75" width="109" height="30" as="geometry"/>
                </mxCell>
                <mxCell id="tNmkC3opJ2AgtzRq_YRS-251" value="&lt;font style=&quot;font-size: 13px;&quot; face=&quot;Nunito Sans&quot;&gt;3&lt;/font&gt;" style="text;html=1;strokeColor=none;fillColor=none;align=center;verticalAlign=middle;whiteSpace=wrap;rounded=0;strokeWidth=1;sketch=1;" parent="Oh-IbdJAaRqJVPJ2qe_I-1" vertex="1">
                    <mxGeometry x="4852.98" y="277.70000000000005" width="109" height="30" as="geometry"/>
                </mxCell>
                <mxCell id="tNmkC3opJ2AgtzRq_YRS-252" value="&lt;font style=&quot;font-size: 13px;&quot; face=&quot;Nunito Sans&quot;&gt;4&lt;/font&gt;" style="text;html=1;strokeColor=none;fillColor=none;align=center;verticalAlign=middle;whiteSpace=wrap;rounded=0;strokeWidth=1;sketch=1;" parent="Oh-IbdJAaRqJVPJ2qe_I-1" vertex="1">
                    <mxGeometry x="4951.63" y="278.75" width="109" height="30" as="geometry"/>
                </mxCell>
                <mxCell id="tNmkC3opJ2AgtzRq_YRS-253" value="&lt;font style=&quot;font-size: 13px;&quot; face=&quot;Nunito Sans&quot;&gt;1&lt;/font&gt;" style="text;html=1;strokeColor=none;fillColor=none;align=center;verticalAlign=middle;whiteSpace=wrap;rounded=0;strokeWidth=1;sketch=1;" parent="Oh-IbdJAaRqJVPJ2qe_I-1" vertex="1">
                    <mxGeometry x="4664.48" y="317.70000000000005" width="109" height="30" as="geometry"/>
                </mxCell>
                <mxCell id="tNmkC3opJ2AgtzRq_YRS-254" value="&lt;font style=&quot;font-size: 13px;&quot; face=&quot;Nunito Sans&quot;&gt;2&lt;/font&gt;" style="text;html=1;strokeColor=none;fillColor=none;align=center;verticalAlign=middle;whiteSpace=wrap;rounded=0;strokeWidth=1;sketch=1;" parent="Oh-IbdJAaRqJVPJ2qe_I-1" vertex="1">
                    <mxGeometry x="4756.36" y="317.70000000000005" width="109" height="30" as="geometry"/>
                </mxCell>
                <mxCell id="tNmkC3opJ2AgtzRq_YRS-255" value="&lt;font style=&quot;font-size: 13px;&quot; face=&quot;Nunito Sans&quot;&gt;3&lt;/font&gt;" style="text;html=1;strokeColor=none;fillColor=none;align=center;verticalAlign=middle;whiteSpace=wrap;rounded=0;strokeWidth=1;sketch=1;" parent="Oh-IbdJAaRqJVPJ2qe_I-1" vertex="1">
                    <mxGeometry x="4853.48" y="318.6500000000001" width="109" height="30" as="geometry"/>
                </mxCell>
                <mxCell id="tNmkC3opJ2AgtzRq_YRS-256" value="&lt;font style=&quot;font-size: 13px;&quot; face=&quot;Nunito Sans&quot;&gt;4&lt;/font&gt;" style="text;html=1;strokeColor=none;fillColor=none;align=center;verticalAlign=middle;whiteSpace=wrap;rounded=0;strokeWidth=1;sketch=1;" parent="Oh-IbdJAaRqJVPJ2qe_I-1" vertex="1">
                    <mxGeometry x="4952.13" y="319.70000000000005" width="109" height="30" as="geometry"/>
                </mxCell>
                <mxCell id="tNmkC3opJ2AgtzRq_YRS-257" value="&lt;font style=&quot;font-size: 13px;&quot; face=&quot;Nunito Sans&quot;&gt;1&lt;/font&gt;" style="text;html=1;strokeColor=none;fillColor=none;align=center;verticalAlign=middle;whiteSpace=wrap;rounded=0;strokeWidth=1;sketch=1;" parent="Oh-IbdJAaRqJVPJ2qe_I-1" vertex="1">
                    <mxGeometry x="4665.98" y="357.75" width="109" height="30" as="geometry"/>
                </mxCell>
                <mxCell id="tNmkC3opJ2AgtzRq_YRS-258" value="&lt;font style=&quot;font-size: 13px;&quot; face=&quot;Nunito Sans&quot;&gt;2&lt;/font&gt;" style="text;html=1;strokeColor=none;fillColor=none;align=center;verticalAlign=middle;whiteSpace=wrap;rounded=0;strokeWidth=1;sketch=1;" parent="Oh-IbdJAaRqJVPJ2qe_I-1" vertex="1">
                    <mxGeometry x="4757.86" y="357.75" width="109" height="30" as="geometry"/>
                </mxCell>
                <mxCell id="tNmkC3opJ2AgtzRq_YRS-259" value="&lt;font style=&quot;font-size: 13px;&quot; face=&quot;Nunito Sans&quot;&gt;3&lt;/font&gt;" style="text;html=1;strokeColor=none;fillColor=none;align=center;verticalAlign=middle;whiteSpace=wrap;rounded=0;strokeWidth=1;sketch=1;" parent="Oh-IbdJAaRqJVPJ2qe_I-1" vertex="1">
                    <mxGeometry x="4854.98" y="358.70000000000005" width="109" height="30" as="geometry"/>
                </mxCell>
                <mxCell id="tNmkC3opJ2AgtzRq_YRS-260" value="&lt;font style=&quot;font-size: 13px;&quot; face=&quot;Nunito Sans&quot;&gt;4&lt;/font&gt;" style="text;html=1;strokeColor=none;fillColor=none;align=center;verticalAlign=middle;whiteSpace=wrap;rounded=0;strokeWidth=1;sketch=1;" parent="Oh-IbdJAaRqJVPJ2qe_I-1" vertex="1">
                    <mxGeometry x="4953.63" y="359.75" width="109" height="30" as="geometry"/>
                </mxCell>
                <mxCell id="tNmkC3opJ2AgtzRq_YRS-261" value="&lt;font style=&quot;font-size: 13px;&quot; face=&quot;Nunito Sans&quot;&gt;1&lt;/font&gt;" style="text;html=1;strokeColor=none;fillColor=none;align=center;verticalAlign=middle;whiteSpace=wrap;rounded=0;strokeWidth=1;sketch=1;" parent="Oh-IbdJAaRqJVPJ2qe_I-1" vertex="1">
                    <mxGeometry x="4665.98" y="396.75" width="109" height="30" as="geometry"/>
                </mxCell>
                <mxCell id="tNmkC3opJ2AgtzRq_YRS-262" value="&lt;font style=&quot;font-size: 13px;&quot; face=&quot;Nunito Sans&quot;&gt;2&lt;/font&gt;" style="text;html=1;strokeColor=none;fillColor=none;align=center;verticalAlign=middle;whiteSpace=wrap;rounded=0;strokeWidth=1;sketch=1;" parent="Oh-IbdJAaRqJVPJ2qe_I-1" vertex="1">
                    <mxGeometry x="4757.86" y="396.75" width="109" height="30" as="geometry"/>
                </mxCell>
                <mxCell id="tNmkC3opJ2AgtzRq_YRS-263" value="&lt;font style=&quot;font-size: 13px;&quot; face=&quot;Nunito Sans&quot;&gt;3&lt;/font&gt;" style="text;html=1;strokeColor=none;fillColor=none;align=center;verticalAlign=middle;whiteSpace=wrap;rounded=0;strokeWidth=1;sketch=1;" parent="Oh-IbdJAaRqJVPJ2qe_I-1" vertex="1">
                    <mxGeometry x="4854.98" y="397.70000000000005" width="109" height="30" as="geometry"/>
                </mxCell>
                <mxCell id="tNmkC3opJ2AgtzRq_YRS-264" value="&lt;font style=&quot;font-size: 13px;&quot; face=&quot;Nunito Sans&quot;&gt;4&lt;/font&gt;" style="text;html=1;strokeColor=none;fillColor=none;align=center;verticalAlign=middle;whiteSpace=wrap;rounded=0;strokeWidth=1;sketch=1;" parent="Oh-IbdJAaRqJVPJ2qe_I-1" vertex="1">
                    <mxGeometry x="4953.63" y="398.75" width="109" height="30" as="geometry"/>
                </mxCell>
                <mxCell id="tNmkC3opJ2AgtzRq_YRS-265" value="&lt;font style=&quot;font-size: 13px;&quot; face=&quot;Nunito Sans&quot;&gt;1&lt;/font&gt;" style="text;html=1;strokeColor=none;fillColor=none;align=center;verticalAlign=middle;whiteSpace=wrap;rounded=0;strokeWidth=1;sketch=1;" parent="Oh-IbdJAaRqJVPJ2qe_I-1" vertex="1">
                    <mxGeometry x="4665.98" y="438.75" width="109" height="30" as="geometry"/>
                </mxCell>
                <mxCell id="tNmkC3opJ2AgtzRq_YRS-266" value="&lt;font style=&quot;font-size: 13px;&quot; face=&quot;Nunito Sans&quot;&gt;2&lt;/font&gt;" style="text;html=1;strokeColor=none;fillColor=none;align=center;verticalAlign=middle;whiteSpace=wrap;rounded=0;strokeWidth=1;sketch=1;" parent="Oh-IbdJAaRqJVPJ2qe_I-1" vertex="1">
                    <mxGeometry x="4757.86" y="438.75" width="109" height="30" as="geometry"/>
                </mxCell>
                <mxCell id="tNmkC3opJ2AgtzRq_YRS-267" value="&lt;font style=&quot;font-size: 13px;&quot; face=&quot;Nunito Sans&quot;&gt;3&lt;/font&gt;" style="text;html=1;strokeColor=none;fillColor=none;align=center;verticalAlign=middle;whiteSpace=wrap;rounded=0;strokeWidth=1;sketch=1;" parent="Oh-IbdJAaRqJVPJ2qe_I-1" vertex="1">
                    <mxGeometry x="4854.98" y="439.70000000000005" width="109" height="30" as="geometry"/>
                </mxCell>
                <mxCell id="tNmkC3opJ2AgtzRq_YRS-268" value="&lt;font style=&quot;font-size: 13px;&quot; face=&quot;Nunito Sans&quot;&gt;4&lt;/font&gt;" style="text;html=1;strokeColor=none;fillColor=none;align=center;verticalAlign=middle;whiteSpace=wrap;rounded=0;strokeWidth=1;sketch=1;" parent="Oh-IbdJAaRqJVPJ2qe_I-1" vertex="1">
                    <mxGeometry x="4953.63" y="440.75" width="109" height="30" as="geometry"/>
                </mxCell>
                <mxCell id="tNmkC3opJ2AgtzRq_YRS-319" value="" style="rounded=0;whiteSpace=wrap;html=1;strokeColor=#0E1319;strokeWidth=1;fontFamily=Nunito Sans;fontSource=https%3A%2F%2Ffonts.googleapis.com%2Fcss%3Ffamily%3DNunito%2BSans;fontSize=15;fillColor=#F5F5F5;arcSize=3;sketch=1;" parent="Oh-IbdJAaRqJVPJ2qe_I-1" vertex="1">
                    <mxGeometry x="5372.91" y="146" width="560" height="500" as="geometry"/>
                </mxCell>
                <mxCell id="tNmkC3opJ2AgtzRq_YRS-320" value="" style="rounded=0;whiteSpace=wrap;html=1;strokeColor=#000B14;strokeWidth=1;fontFamily=Nunito Sans;fontSource=https%3A%2F%2Ffonts.googleapis.com%2Fcss%3Ffamily%3DNunito%2BSans;fontSize=9;fillColor=none;gradientColor=none;sketch=1;" parent="Oh-IbdJAaRqJVPJ2qe_I-1" vertex="1">
                    <mxGeometry x="5453.91" y="162" width="120" height="20" as="geometry"/>
                </mxCell>
                <mxCell id="tNmkC3opJ2AgtzRq_YRS-321" value="&lt;font style=&quot;font-size: 12px;&quot;&gt;Perhitungan&lt;/font&gt;" style="text;html=1;strokeColor=none;fillColor=none;align=center;verticalAlign=middle;whiteSpace=wrap;rounded=0;strokeWidth=1;fontFamily=Nunito Sans;fontSource=https%3A%2F%2Ffonts.googleapis.com%2Fcss%3Ffamily%3DNunito%2BSans;fontSize=9;sketch=1;" parent="Oh-IbdJAaRqJVPJ2qe_I-1" vertex="1">
                    <mxGeometry x="5362.91" y="156" width="106" height="30" as="geometry"/>
                </mxCell>
                <mxCell id="tNmkC3opJ2AgtzRq_YRS-322" value="" style="rounded=0;whiteSpace=wrap;html=1;strokeColor=#000B14;strokeWidth=1;fontFamily=Nunito Sans;fontSource=https%3A%2F%2Ffonts.googleapis.com%2Fcss%3Ffamily%3DNunito%2BSans;fontSize=5;fillColor=none;gradientColor=none;sketch=1;" parent="Oh-IbdJAaRqJVPJ2qe_I-1" vertex="1">
                    <mxGeometry x="5382.91" y="196" width="537" height="430" as="geometry"/>
                </mxCell>
                <mxCell id="tNmkC3opJ2AgtzRq_YRS-323" value="Pilih Bulan" style="text;html=1;strokeColor=none;fillColor=none;align=center;verticalAlign=middle;whiteSpace=wrap;rounded=0;strokeWidth=1;fontFamily=Nunito Sans;fontSource=https%3A%2F%2Ffonts.googleapis.com%2Fcss%3Ffamily%3DNunito%2BSans;fontSize=9;sketch=1;" parent="Oh-IbdJAaRqJVPJ2qe_I-1" vertex="1">
                    <mxGeometry x="5453.91" y="157" width="60" height="30" as="geometry"/>
                </mxCell>
                <mxCell id="tNmkC3opJ2AgtzRq_YRS-324" value="" style="triangle;whiteSpace=wrap;html=1;strokeColor=#0E1319;strokeWidth=1;fontFamily=Nunito Sans;fontSource=https%3A%2F%2Ffonts.googleapis.com%2Fcss%3Ffamily%3DNunito%2BSans;fontSize=15;fillColor=#050505;rotation=90;rounded=0;sketch=1;" parent="Oh-IbdJAaRqJVPJ2qe_I-1" vertex="1">
                    <mxGeometry x="5558.91" y="168" width="7.5" height="10" as="geometry"/>
                </mxCell>
                <mxCell id="tNmkC3opJ2AgtzRq_YRS-325" value="&lt;font face=&quot;Nunito Sans&quot;&gt;&lt;span style=&quot;font-size: 13px;&quot;&gt;Tahap Normalisasi&lt;/span&gt;&lt;/font&gt;" style="text;html=1;strokeColor=none;fillColor=none;align=center;verticalAlign=middle;whiteSpace=wrap;rounded=0;strokeWidth=1;sketch=1;" parent="Oh-IbdJAaRqJVPJ2qe_I-1" vertex="1">
                    <mxGeometry x="5399.66" y="204" width="118.5" height="30" as="geometry"/>
                </mxCell>
                <mxCell id="tNmkC3opJ2AgtzRq_YRS-326" value="" style="line;strokeWidth=2;html=1;fontFamily=Nunito Sans;fontSource=https%3A%2F%2Ffonts.googleapis.com%2Fcss%3Ffamily%3DNunito%2BSans;fontSize=15;fillColor=none;rounded=0;sketch=1;" parent="Oh-IbdJAaRqJVPJ2qe_I-1" vertex="1">
                    <mxGeometry x="5406.73" y="236.5" width="499" height="10" as="geometry"/>
                </mxCell>
                <mxCell id="tNmkC3opJ2AgtzRq_YRS-327" value="&lt;font style=&quot;font-size: 13px;&quot; face=&quot;Nunito Sans&quot;&gt;Nama Alternatif&lt;/font&gt;" style="text;html=1;strokeColor=none;fillColor=none;align=center;verticalAlign=middle;whiteSpace=wrap;rounded=0;strokeWidth=1;sketch=1;" parent="Oh-IbdJAaRqJVPJ2qe_I-1" vertex="1">
                    <mxGeometry x="5406.98" y="247" width="109" height="30" as="geometry"/>
                </mxCell>
                <mxCell id="tNmkC3opJ2AgtzRq_YRS-328" value="&lt;font style=&quot;font-size: 13px;&quot; face=&quot;Nunito Sans&quot;&gt;C1&lt;/font&gt;" style="text;html=1;strokeColor=none;fillColor=none;align=center;verticalAlign=middle;whiteSpace=wrap;rounded=0;strokeWidth=1;sketch=1;" parent="Oh-IbdJAaRqJVPJ2qe_I-1" vertex="1">
                    <mxGeometry x="5511.98" y="248.5" width="109" height="30" as="geometry"/>
                </mxCell>
                <mxCell id="tNmkC3opJ2AgtzRq_YRS-329" value="&lt;font style=&quot;font-size: 13px;&quot; face=&quot;Nunito Sans&quot;&gt;C2&lt;/font&gt;" style="text;html=1;strokeColor=none;fillColor=none;align=center;verticalAlign=middle;whiteSpace=wrap;rounded=0;strokeWidth=1;sketch=1;" parent="Oh-IbdJAaRqJVPJ2qe_I-1" vertex="1">
                    <mxGeometry x="5612.98" y="250.5" width="109" height="30" as="geometry"/>
                </mxCell>
                <mxCell id="tNmkC3opJ2AgtzRq_YRS-330" value="&lt;font style=&quot;font-size: 13px;&quot; face=&quot;Nunito Sans&quot;&gt;C3&lt;/font&gt;" style="text;html=1;strokeColor=none;fillColor=none;align=center;verticalAlign=middle;whiteSpace=wrap;rounded=0;strokeWidth=1;sketch=1;" parent="Oh-IbdJAaRqJVPJ2qe_I-1" vertex="1">
                    <mxGeometry x="5700.98" y="250.5" width="109" height="30" as="geometry"/>
                </mxCell>
                <mxCell id="tNmkC3opJ2AgtzRq_YRS-331" value="&lt;font style=&quot;font-size: 13px;&quot; face=&quot;Nunito Sans&quot;&gt;C4&lt;/font&gt;" style="text;html=1;strokeColor=none;fillColor=none;align=center;verticalAlign=middle;whiteSpace=wrap;rounded=0;strokeWidth=1;sketch=1;" parent="Oh-IbdJAaRqJVPJ2qe_I-1" vertex="1">
                    <mxGeometry x="5799.630000000001" y="247" width="109" height="30" as="geometry"/>
                </mxCell>
                <mxCell id="tNmkC3opJ2AgtzRq_YRS-332" value="" style="line;strokeWidth=2;html=1;fontFamily=Nunito Sans;fontSource=https%3A%2F%2Ffonts.googleapis.com%2Fcss%3Ffamily%3DNunito%2BSans;fontSize=15;fillColor=none;rounded=0;sketch=1;" parent="Oh-IbdJAaRqJVPJ2qe_I-1" vertex="1">
                    <mxGeometry x="5410.98" y="279.95000000000005" width="494.75" height="10" as="geometry"/>
                </mxCell>
                <mxCell id="tNmkC3opJ2AgtzRq_YRS-333" value="" style="line;strokeWidth=2;html=1;fontFamily=Nunito Sans;fontSource=https%3A%2F%2Ffonts.googleapis.com%2Fcss%3Ffamily%3DNunito%2BSans;fontSize=15;fillColor=none;rounded=0;sketch=1;" parent="Oh-IbdJAaRqJVPJ2qe_I-1" vertex="1">
                    <mxGeometry x="5410.98" y="318.3800000000001" width="494.75" height="10" as="geometry"/>
                </mxCell>
                <mxCell id="tNmkC3opJ2AgtzRq_YRS-334" value="" style="line;strokeWidth=2;html=1;fontFamily=Nunito Sans;fontSource=https%3A%2F%2Ffonts.googleapis.com%2Fcss%3Ffamily%3DNunito%2BSans;fontSize=15;fillColor=none;rounded=0;sketch=1;" parent="Oh-IbdJAaRqJVPJ2qe_I-1" vertex="1">
                    <mxGeometry x="5407.73" y="359.95000000000005" width="499" height="10" as="geometry"/>
                </mxCell>
                <mxCell id="tNmkC3opJ2AgtzRq_YRS-335" value="&lt;font face=&quot;Nunito Sans&quot;&gt;&lt;span style=&quot;font-size: 13px;&quot;&gt;A3&lt;/span&gt;&lt;/font&gt;" style="text;html=1;strokeColor=none;fillColor=none;align=center;verticalAlign=middle;whiteSpace=wrap;rounded=0;strokeWidth=1;sketch=1;" parent="Oh-IbdJAaRqJVPJ2qe_I-1" vertex="1">
                    <mxGeometry x="5401.98" y="367.5" width="109" height="30" as="geometry"/>
                </mxCell>
                <mxCell id="tNmkC3opJ2AgtzRq_YRS-336" value="" style="line;strokeWidth=2;html=1;fontFamily=Nunito Sans;fontSource=https%3A%2F%2Ffonts.googleapis.com%2Fcss%3Ffamily%3DNunito%2BSans;fontSize=15;fillColor=none;rounded=0;sketch=1;" parent="Oh-IbdJAaRqJVPJ2qe_I-1" vertex="1">
                    <mxGeometry x="5409.23" y="399.4000000000001" width="499" height="10" as="geometry"/>
                </mxCell>
                <mxCell id="tNmkC3opJ2AgtzRq_YRS-337" value="&lt;font face=&quot;Nunito Sans&quot;&gt;&lt;span style=&quot;font-size: 13px;&quot;&gt;A4&lt;/span&gt;&lt;/font&gt;" style="text;html=1;strokeColor=none;fillColor=none;align=center;verticalAlign=middle;whiteSpace=wrap;rounded=0;strokeWidth=1;sketch=1;" parent="Oh-IbdJAaRqJVPJ2qe_I-1" vertex="1">
                    <mxGeometry x="5403.48" y="406.95000000000005" width="109" height="30" as="geometry"/>
                </mxCell>
                <mxCell id="tNmkC3opJ2AgtzRq_YRS-338" value="" style="line;strokeWidth=2;html=1;fontFamily=Nunito Sans;fontSource=https%3A%2F%2Ffonts.googleapis.com%2Fcss%3Ffamily%3DNunito%2BSans;fontSize=15;fillColor=none;rounded=0;sketch=1;" parent="Oh-IbdJAaRqJVPJ2qe_I-1" vertex="1">
                    <mxGeometry x="5407.73" y="442.95000000000005" width="499" height="10" as="geometry"/>
                </mxCell>
                <mxCell id="tNmkC3opJ2AgtzRq_YRS-339" value="&lt;font face=&quot;Nunito Sans&quot;&gt;&lt;span style=&quot;font-size: 13px;&quot;&gt;A5&lt;/span&gt;&lt;/font&gt;" style="text;html=1;strokeColor=none;fillColor=none;align=center;verticalAlign=middle;whiteSpace=wrap;rounded=0;strokeWidth=1;sketch=1;" parent="Oh-IbdJAaRqJVPJ2qe_I-1" vertex="1">
                    <mxGeometry x="5402.98" y="450.5" width="109" height="30" as="geometry"/>
                </mxCell>
                <mxCell id="tNmkC3opJ2AgtzRq_YRS-340" value="" style="line;strokeWidth=2;html=1;fontFamily=Nunito Sans;fontSource=https%3A%2F%2Ffonts.googleapis.com%2Fcss%3Ffamily%3DNunito%2BSans;fontSize=15;fillColor=none;rotation=-270;rounded=0;sketch=1;" parent="Oh-IbdJAaRqJVPJ2qe_I-1" vertex="1">
                    <mxGeometry x="5410.360000000001" y="357.1300000000001" width="238.25" height="10" as="geometry"/>
                </mxCell>
                <mxCell id="tNmkC3opJ2AgtzRq_YRS-341" value="" style="line;strokeWidth=2;html=1;fontFamily=Nunito Sans;fontSource=https%3A%2F%2Ffonts.googleapis.com%2Fcss%3Ffamily%3DNunito%2BSans;fontSize=15;fillColor=none;rounded=0;sketch=1;" parent="Oh-IbdJAaRqJVPJ2qe_I-1" vertex="1">
                    <mxGeometry x="5407.73" y="475.5" width="499" height="10" as="geometry"/>
                </mxCell>
                <mxCell id="tNmkC3opJ2AgtzRq_YRS-342" value="" style="line;strokeWidth=2;html=1;fontFamily=Nunito Sans;fontSource=https%3A%2F%2Ffonts.googleapis.com%2Fcss%3Ffamily%3DNunito%2BSans;fontSize=15;fillColor=none;rotation=-270;rounded=0;sketch=1;" parent="Oh-IbdJAaRqJVPJ2qe_I-1" vertex="1">
                    <mxGeometry x="5489.68" y="355.80999999999995" width="240.87" height="10" as="geometry"/>
                </mxCell>
                <mxCell id="tNmkC3opJ2AgtzRq_YRS-343" value="" style="line;strokeWidth=2;html=1;fontFamily=Nunito Sans;fontSource=https%3A%2F%2Ffonts.googleapis.com%2Fcss%3Ffamily%3DNunito%2BSans;fontSize=15;fillColor=none;rotation=-270;rounded=0;sketch=1;" parent="Oh-IbdJAaRqJVPJ2qe_I-1" vertex="1">
                    <mxGeometry x="5290" y="357.3800000000001" width="238.25" height="10" as="geometry"/>
                </mxCell>
                <mxCell id="tNmkC3opJ2AgtzRq_YRS-344" value="" style="line;strokeWidth=2;html=1;fontFamily=Nunito Sans;fontSource=https%3A%2F%2Ffonts.googleapis.com%2Fcss%3Ffamily%3DNunito%2BSans;fontSize=15;fillColor=none;rotation=-270;rounded=0;sketch=1;" parent="Oh-IbdJAaRqJVPJ2qe_I-1" vertex="1">
                    <mxGeometry x="5577.889999999999" y="355.48" width="237.06" height="10" as="geometry"/>
                </mxCell>
                <mxCell id="tNmkC3opJ2AgtzRq_YRS-345" value="" style="line;strokeWidth=2;html=1;fontFamily=Nunito Sans;fontSource=https%3A%2F%2Ffonts.googleapis.com%2Fcss%3Ffamily%3DNunito%2BSans;fontSize=15;fillColor=none;rotation=-270;rounded=0;sketch=1;" parent="Oh-IbdJAaRqJVPJ2qe_I-1" vertex="1">
                    <mxGeometry x="5690.98" y="354.5" width="237.06" height="10" as="geometry"/>
                </mxCell>
                <mxCell id="tNmkC3opJ2AgtzRq_YRS-346" value="" style="line;strokeWidth=2;html=1;fontFamily=Nunito Sans;fontSource=https%3A%2F%2Ffonts.googleapis.com%2Fcss%3Ffamily%3DNunito%2BSans;fontSize=15;fillColor=none;rotation=-270;rounded=0;sketch=1;" parent="Oh-IbdJAaRqJVPJ2qe_I-1" vertex="1">
                    <mxGeometry x="5787.98" y="356.80999999999995" width="237.06" height="10" as="geometry"/>
                </mxCell>
                <mxCell id="tNmkC3opJ2AgtzRq_YRS-347" value="&lt;font style=&quot;font-size: 13px;&quot; face=&quot;Nunito Sans&quot;&gt;1&lt;/font&gt;" style="text;html=1;strokeColor=none;fillColor=none;align=center;verticalAlign=middle;whiteSpace=wrap;rounded=0;strokeWidth=1;sketch=1;" parent="Oh-IbdJAaRqJVPJ2qe_I-1" vertex="1">
                    <mxGeometry x="5511.98" y="286.5" width="109" height="30" as="geometry"/>
                </mxCell>
                <mxCell id="tNmkC3opJ2AgtzRq_YRS-348" value="&lt;font style=&quot;font-size: 13px;&quot; face=&quot;Nunito Sans&quot;&gt;2&lt;/font&gt;" style="text;html=1;strokeColor=none;fillColor=none;align=center;verticalAlign=middle;whiteSpace=wrap;rounded=0;strokeWidth=1;sketch=1;" parent="Oh-IbdJAaRqJVPJ2qe_I-1" vertex="1">
                    <mxGeometry x="5603.860000000001" y="286.5" width="109" height="30" as="geometry"/>
                </mxCell>
                <mxCell id="tNmkC3opJ2AgtzRq_YRS-349" value="&lt;font style=&quot;font-size: 13px;&quot; face=&quot;Nunito Sans&quot;&gt;3&lt;/font&gt;" style="text;html=1;strokeColor=none;fillColor=none;align=center;verticalAlign=middle;whiteSpace=wrap;rounded=0;strokeWidth=1;sketch=1;" parent="Oh-IbdJAaRqJVPJ2qe_I-1" vertex="1">
                    <mxGeometry x="5700.98" y="287.45000000000005" width="109" height="30" as="geometry"/>
                </mxCell>
                <mxCell id="tNmkC3opJ2AgtzRq_YRS-350" value="&lt;font style=&quot;font-size: 13px;&quot; face=&quot;Nunito Sans&quot;&gt;4&lt;/font&gt;" style="text;html=1;strokeColor=none;fillColor=none;align=center;verticalAlign=middle;whiteSpace=wrap;rounded=0;strokeWidth=1;sketch=1;" parent="Oh-IbdJAaRqJVPJ2qe_I-1" vertex="1">
                    <mxGeometry x="5799.630000000001" y="288.5" width="109" height="30" as="geometry"/>
                </mxCell>
                <mxCell id="tNmkC3opJ2AgtzRq_YRS-351" value="&lt;font style=&quot;font-size: 13px;&quot; face=&quot;Nunito Sans&quot;&gt;1&lt;/font&gt;" style="text;html=1;strokeColor=none;fillColor=none;align=center;verticalAlign=middle;whiteSpace=wrap;rounded=0;strokeWidth=1;sketch=1;" parent="Oh-IbdJAaRqJVPJ2qe_I-1" vertex="1">
                    <mxGeometry x="5512.48" y="327.45000000000005" width="109" height="30" as="geometry"/>
                </mxCell>
                <mxCell id="tNmkC3opJ2AgtzRq_YRS-352" value="&lt;font style=&quot;font-size: 13px;&quot; face=&quot;Nunito Sans&quot;&gt;2&lt;/font&gt;" style="text;html=1;strokeColor=none;fillColor=none;align=center;verticalAlign=middle;whiteSpace=wrap;rounded=0;strokeWidth=1;sketch=1;" parent="Oh-IbdJAaRqJVPJ2qe_I-1" vertex="1">
                    <mxGeometry x="5604.360000000001" y="327.45000000000005" width="109" height="30" as="geometry"/>
                </mxCell>
                <mxCell id="tNmkC3opJ2AgtzRq_YRS-353" value="&lt;font style=&quot;font-size: 13px;&quot; face=&quot;Nunito Sans&quot;&gt;3&lt;/font&gt;" style="text;html=1;strokeColor=none;fillColor=none;align=center;verticalAlign=middle;whiteSpace=wrap;rounded=0;strokeWidth=1;sketch=1;" parent="Oh-IbdJAaRqJVPJ2qe_I-1" vertex="1">
                    <mxGeometry x="5701.48" y="328.4000000000001" width="109" height="30" as="geometry"/>
                </mxCell>
                <mxCell id="tNmkC3opJ2AgtzRq_YRS-354" value="&lt;font style=&quot;font-size: 13px;&quot; face=&quot;Nunito Sans&quot;&gt;4&lt;/font&gt;" style="text;html=1;strokeColor=none;fillColor=none;align=center;verticalAlign=middle;whiteSpace=wrap;rounded=0;strokeWidth=1;sketch=1;" parent="Oh-IbdJAaRqJVPJ2qe_I-1" vertex="1">
                    <mxGeometry x="5800.130000000001" y="329.45000000000005" width="109" height="30" as="geometry"/>
                </mxCell>
                <mxCell id="tNmkC3opJ2AgtzRq_YRS-355" value="&lt;font style=&quot;font-size: 13px;&quot; face=&quot;Nunito Sans&quot;&gt;1&lt;/font&gt;" style="text;html=1;strokeColor=none;fillColor=none;align=center;verticalAlign=middle;whiteSpace=wrap;rounded=0;strokeWidth=1;sketch=1;" parent="Oh-IbdJAaRqJVPJ2qe_I-1" vertex="1">
                    <mxGeometry x="5513.98" y="367.5" width="109" height="30" as="geometry"/>
                </mxCell>
                <mxCell id="tNmkC3opJ2AgtzRq_YRS-356" value="&lt;font style=&quot;font-size: 13px;&quot; face=&quot;Nunito Sans&quot;&gt;2&lt;/font&gt;" style="text;html=1;strokeColor=none;fillColor=none;align=center;verticalAlign=middle;whiteSpace=wrap;rounded=0;strokeWidth=1;sketch=1;" parent="Oh-IbdJAaRqJVPJ2qe_I-1" vertex="1">
                    <mxGeometry x="5605.860000000001" y="367.5" width="109" height="30" as="geometry"/>
                </mxCell>
                <mxCell id="tNmkC3opJ2AgtzRq_YRS-357" value="&lt;font style=&quot;font-size: 13px;&quot; face=&quot;Nunito Sans&quot;&gt;3&lt;/font&gt;" style="text;html=1;strokeColor=none;fillColor=none;align=center;verticalAlign=middle;whiteSpace=wrap;rounded=0;strokeWidth=1;sketch=1;" parent="Oh-IbdJAaRqJVPJ2qe_I-1" vertex="1">
                    <mxGeometry x="5702.98" y="368.45000000000005" width="109" height="30" as="geometry"/>
                </mxCell>
                <mxCell id="tNmkC3opJ2AgtzRq_YRS-358" value="&lt;font style=&quot;font-size: 13px;&quot; face=&quot;Nunito Sans&quot;&gt;4&lt;/font&gt;" style="text;html=1;strokeColor=none;fillColor=none;align=center;verticalAlign=middle;whiteSpace=wrap;rounded=0;strokeWidth=1;sketch=1;" parent="Oh-IbdJAaRqJVPJ2qe_I-1" vertex="1">
                    <mxGeometry x="5801.630000000001" y="369.5" width="109" height="30" as="geometry"/>
                </mxCell>
                <mxCell id="tNmkC3opJ2AgtzRq_YRS-359" value="&lt;font style=&quot;font-size: 13px;&quot; face=&quot;Nunito Sans&quot;&gt;1&lt;/font&gt;" style="text;html=1;strokeColor=none;fillColor=none;align=center;verticalAlign=middle;whiteSpace=wrap;rounded=0;strokeWidth=1;sketch=1;" parent="Oh-IbdJAaRqJVPJ2qe_I-1" vertex="1">
                    <mxGeometry x="5513.98" y="406.5" width="109" height="30" as="geometry"/>
                </mxCell>
                <mxCell id="tNmkC3opJ2AgtzRq_YRS-360" value="&lt;font style=&quot;font-size: 13px;&quot; face=&quot;Nunito Sans&quot;&gt;2&lt;/font&gt;" style="text;html=1;strokeColor=none;fillColor=none;align=center;verticalAlign=middle;whiteSpace=wrap;rounded=0;strokeWidth=1;sketch=1;" parent="Oh-IbdJAaRqJVPJ2qe_I-1" vertex="1">
                    <mxGeometry x="5605.860000000001" y="406.5" width="109" height="30" as="geometry"/>
                </mxCell>
                <mxCell id="tNmkC3opJ2AgtzRq_YRS-361" value="&lt;font style=&quot;font-size: 13px;&quot; face=&quot;Nunito Sans&quot;&gt;3&lt;/font&gt;" style="text;html=1;strokeColor=none;fillColor=none;align=center;verticalAlign=middle;whiteSpace=wrap;rounded=0;strokeWidth=1;sketch=1;" parent="Oh-IbdJAaRqJVPJ2qe_I-1" vertex="1">
                    <mxGeometry x="5702.98" y="407.45000000000005" width="109" height="30" as="geometry"/>
                </mxCell>
                <mxCell id="tNmkC3opJ2AgtzRq_YRS-362" value="&lt;font style=&quot;font-size: 13px;&quot; face=&quot;Nunito Sans&quot;&gt;4&lt;/font&gt;" style="text;html=1;strokeColor=none;fillColor=none;align=center;verticalAlign=middle;whiteSpace=wrap;rounded=0;strokeWidth=1;sketch=1;" parent="Oh-IbdJAaRqJVPJ2qe_I-1" vertex="1">
                    <mxGeometry x="5801.630000000001" y="408.5" width="109" height="30" as="geometry"/>
                </mxCell>
                <mxCell id="tNmkC3opJ2AgtzRq_YRS-363" value="&lt;font style=&quot;font-size: 13px;&quot; face=&quot;Nunito Sans&quot;&gt;1&lt;/font&gt;" style="text;html=1;strokeColor=none;fillColor=none;align=center;verticalAlign=middle;whiteSpace=wrap;rounded=0;strokeWidth=1;sketch=1;" parent="Oh-IbdJAaRqJVPJ2qe_I-1" vertex="1">
                    <mxGeometry x="5513.98" y="448.5" width="109" height="30" as="geometry"/>
                </mxCell>
                <mxCell id="tNmkC3opJ2AgtzRq_YRS-364" value="&lt;font style=&quot;font-size: 13px;&quot; face=&quot;Nunito Sans&quot;&gt;2&lt;/font&gt;" style="text;html=1;strokeColor=none;fillColor=none;align=center;verticalAlign=middle;whiteSpace=wrap;rounded=0;strokeWidth=1;sketch=1;" parent="Oh-IbdJAaRqJVPJ2qe_I-1" vertex="1">
                    <mxGeometry x="5605.860000000001" y="448.5" width="109" height="30" as="geometry"/>
                </mxCell>
                <mxCell id="tNmkC3opJ2AgtzRq_YRS-365" value="&lt;font style=&quot;font-size: 13px;&quot; face=&quot;Nunito Sans&quot;&gt;3&lt;/font&gt;" style="text;html=1;strokeColor=none;fillColor=none;align=center;verticalAlign=middle;whiteSpace=wrap;rounded=0;strokeWidth=1;sketch=1;" parent="Oh-IbdJAaRqJVPJ2qe_I-1" vertex="1">
                    <mxGeometry x="5702.98" y="449.45000000000005" width="109" height="30" as="geometry"/>
                </mxCell>
                <mxCell id="tNmkC3opJ2AgtzRq_YRS-366" value="&lt;font style=&quot;font-size: 13px;&quot; face=&quot;Nunito Sans&quot;&gt;4&lt;/font&gt;" style="text;html=1;strokeColor=none;fillColor=none;align=center;verticalAlign=middle;whiteSpace=wrap;rounded=0;strokeWidth=1;sketch=1;" parent="Oh-IbdJAaRqJVPJ2qe_I-1" vertex="1">
                    <mxGeometry x="5801.630000000001" y="450.5" width="109" height="30" as="geometry"/>
                </mxCell>
                <mxCell id="tNmkC3opJ2AgtzRq_YRS-367" value="&lt;font face=&quot;Nunito Sans&quot;&gt;&lt;span style=&quot;font-size: 13px;&quot;&gt;A1&lt;/span&gt;&lt;/font&gt;" style="text;html=1;strokeColor=none;fillColor=none;align=center;verticalAlign=middle;whiteSpace=wrap;rounded=0;strokeWidth=1;sketch=1;" parent="Oh-IbdJAaRqJVPJ2qe_I-1" vertex="1">
                    <mxGeometry x="5404.41" y="294.06999999999994" width="109" height="30" as="geometry"/>
                </mxCell>
                <mxCell id="tNmkC3opJ2AgtzRq_YRS-368" value="&lt;font face=&quot;Nunito Sans&quot;&gt;&lt;span style=&quot;font-size: 13px;&quot;&gt;A2&lt;/span&gt;&lt;/font&gt;" style="text;html=1;strokeColor=none;fillColor=none;align=center;verticalAlign=middle;whiteSpace=wrap;rounded=0;strokeWidth=1;sketch=1;" parent="Oh-IbdJAaRqJVPJ2qe_I-1" vertex="1">
                    <mxGeometry x="5404.41" y="332.5" width="109" height="30" as="geometry"/>
                </mxCell>
                <mxCell id="tNmkC3opJ2AgtzRq_YRS-369" value="" style="rounded=0;whiteSpace=wrap;html=1;strokeColor=#0E1319;strokeWidth=1;fontFamily=Nunito Sans;fontSource=https%3A%2F%2Ffonts.googleapis.com%2Fcss%3Ffamily%3DNunito%2BSans;fontSize=15;fillColor=#F5F5F5;arcSize=3;sketch=1;" parent="Oh-IbdJAaRqJVPJ2qe_I-1" vertex="1">
                    <mxGeometry x="6286.43" y="133.45000000000005" width="614.25" height="499" as="geometry"/>
                </mxCell>
                <mxCell id="tNmkC3opJ2AgtzRq_YRS-370" value="" style="rounded=0;whiteSpace=wrap;html=1;strokeColor=#000B14;strokeWidth=1;fontFamily=Nunito Sans;fontSource=https%3A%2F%2Ffonts.googleapis.com%2Fcss%3Ffamily%3DNunito%2BSans;fontSize=9;fillColor=none;gradientColor=none;sketch=1;" parent="Oh-IbdJAaRqJVPJ2qe_I-1" vertex="1">
                    <mxGeometry x="6367.43" y="149.45000000000005" width="120" height="19" as="geometry"/>
                </mxCell>
                <mxCell id="tNmkC3opJ2AgtzRq_YRS-371" value="&lt;font style=&quot;font-size: 12px;&quot;&gt;Perhitungan&lt;/font&gt;" style="text;html=1;strokeColor=none;fillColor=none;align=center;verticalAlign=middle;whiteSpace=wrap;rounded=0;strokeWidth=1;fontFamily=Nunito Sans;fontSource=https%3A%2F%2Ffonts.googleapis.com%2Fcss%3Ffamily%3DNunito%2BSans;fontSize=9;sketch=1;" parent="Oh-IbdJAaRqJVPJ2qe_I-1" vertex="1">
                    <mxGeometry x="6276.43" y="143.45000000000005" width="106" height="29" as="geometry"/>
                </mxCell>
                <mxCell id="tNmkC3opJ2AgtzRq_YRS-372" value="" style="rounded=0;whiteSpace=wrap;html=1;strokeColor=#000B14;strokeWidth=1;fontFamily=Nunito Sans;fontSource=https%3A%2F%2Ffonts.googleapis.com%2Fcss%3Ffamily%3DNunito%2BSans;fontSize=5;fillColor=none;gradientColor=none;sketch=1;" parent="Oh-IbdJAaRqJVPJ2qe_I-1" vertex="1">
                    <mxGeometry x="6296.43" y="183.45000000000005" width="594.25" height="429" as="geometry"/>
                </mxCell>
                <mxCell id="tNmkC3opJ2AgtzRq_YRS-373" value="Pilih Bulan" style="text;html=1;strokeColor=none;fillColor=none;align=center;verticalAlign=middle;whiteSpace=wrap;rounded=0;strokeWidth=1;fontFamily=Nunito Sans;fontSource=https%3A%2F%2Ffonts.googleapis.com%2Fcss%3Ffamily%3DNunito%2BSans;fontSize=9;sketch=1;" parent="Oh-IbdJAaRqJVPJ2qe_I-1" vertex="1">
                    <mxGeometry x="6367.43" y="144.45000000000005" width="60" height="29" as="geometry"/>
                </mxCell>
                <mxCell id="tNmkC3opJ2AgtzRq_YRS-374" value="" style="triangle;whiteSpace=wrap;html=1;strokeColor=#0E1319;strokeWidth=1;fontFamily=Nunito Sans;fontSource=https%3A%2F%2Ffonts.googleapis.com%2Fcss%3Ffamily%3DNunito%2BSans;fontSize=15;fillColor=#050505;rotation=90;rounded=0;sketch=1;" parent="Oh-IbdJAaRqJVPJ2qe_I-1" vertex="1">
                    <mxGeometry x="6472.43" y="155.45000000000005" width="7.5" height="9" as="geometry"/>
                </mxCell>
                <mxCell id="tNmkC3opJ2AgtzRq_YRS-375" value="&lt;font face=&quot;Nunito Sans&quot;&gt;&lt;span style=&quot;font-size: 13px;&quot;&gt;Tahap Perangkingan&lt;/span&gt;&lt;/font&gt;" style="text;html=1;strokeColor=none;fillColor=none;align=center;verticalAlign=middle;whiteSpace=wrap;rounded=0;strokeWidth=1;sketch=1;" parent="Oh-IbdJAaRqJVPJ2qe_I-1" vertex="1">
                    <mxGeometry x="6313.18" y="191.45000000000005" width="127.5" height="29" as="geometry"/>
                </mxCell>
                <mxCell id="tNmkC3opJ2AgtzRq_YRS-376" value="" style="line;strokeWidth=2;html=1;fontFamily=Nunito Sans;fontSource=https%3A%2F%2Ffonts.googleapis.com%2Fcss%3Ffamily%3DNunito%2BSans;fontSize=15;fillColor=none;rounded=0;sketch=1;" parent="Oh-IbdJAaRqJVPJ2qe_I-1" vertex="1">
                    <mxGeometry x="6310.17" y="234.95000000000005" width="560" height="9" as="geometry"/>
                </mxCell>
                <mxCell id="tNmkC3opJ2AgtzRq_YRS-377" value="&lt;font style=&quot;font-size: 13px;&quot; face=&quot;Nunito Sans&quot;&gt;Total&lt;/font&gt;" style="text;html=1;strokeColor=none;fillColor=none;align=center;verticalAlign=middle;whiteSpace=wrap;rounded=0;strokeWidth=1;sketch=1;" parent="Oh-IbdJAaRqJVPJ2qe_I-1" vertex="1">
                    <mxGeometry x="6710.169999999999" y="265.70000000000005" width="109" height="29" as="geometry"/>
                </mxCell>
                <mxCell id="tNmkC3opJ2AgtzRq_YRS-378" value="&lt;font style=&quot;font-size: 13px;&quot; face=&quot;Nunito Sans&quot;&gt;C1&lt;/font&gt;" style="text;html=1;strokeColor=none;fillColor=none;align=center;verticalAlign=middle;whiteSpace=wrap;rounded=0;strokeWidth=1;sketch=1;" parent="Oh-IbdJAaRqJVPJ2qe_I-1" vertex="1">
                    <mxGeometry x="6460.17" y="247.95000000000005" width="109" height="29" as="geometry"/>
                </mxCell>
                <mxCell id="tNmkC3opJ2AgtzRq_YRS-379" value="&lt;font style=&quot;font-size: 13px;&quot; face=&quot;Nunito Sans&quot;&gt;C2&lt;/font&gt;" style="text;html=1;strokeColor=none;fillColor=none;align=center;verticalAlign=middle;whiteSpace=wrap;rounded=0;strokeWidth=1;sketch=1;" parent="Oh-IbdJAaRqJVPJ2qe_I-1" vertex="1">
                    <mxGeometry x="6510.17" y="249.95000000000005" width="109" height="29" as="geometry"/>
                </mxCell>
                <mxCell id="tNmkC3opJ2AgtzRq_YRS-380" value="&lt;font style=&quot;font-size: 13px;&quot; face=&quot;Nunito Sans&quot;&gt;C3&lt;/font&gt;" style="text;html=1;strokeColor=none;fillColor=none;align=center;verticalAlign=middle;whiteSpace=wrap;rounded=0;strokeWidth=1;sketch=1;" parent="Oh-IbdJAaRqJVPJ2qe_I-1" vertex="1">
                    <mxGeometry x="6580.17" y="246.95000000000005" width="109" height="29" as="geometry"/>
                </mxCell>
                <mxCell id="tNmkC3opJ2AgtzRq_YRS-381" value="&lt;font style=&quot;font-size: 13px;&quot; face=&quot;Nunito Sans&quot;&gt;C4&lt;/font&gt;" style="text;html=1;strokeColor=none;fillColor=none;align=center;verticalAlign=middle;whiteSpace=wrap;rounded=0;strokeWidth=1;sketch=1;" parent="Oh-IbdJAaRqJVPJ2qe_I-1" vertex="1">
                    <mxGeometry x="6638.23" y="246.95000000000005" width="109" height="29" as="geometry"/>
                </mxCell>
                <mxCell id="tNmkC3opJ2AgtzRq_YRS-382" value="" style="line;strokeWidth=2;html=1;fontFamily=Nunito Sans;fontSource=https%3A%2F%2Ffonts.googleapis.com%2Fcss%3Ffamily%3DNunito%2BSans;fontSize=15;fillColor=none;rounded=0;sketch=1;" parent="Oh-IbdJAaRqJVPJ2qe_I-1" vertex="1">
                    <mxGeometry x="6310.17" y="278.39999999999986" width="414.75" height="9" as="geometry"/>
                </mxCell>
                <mxCell id="tNmkC3opJ2AgtzRq_YRS-383" value="&lt;font face=&quot;Nunito Sans&quot;&gt;&lt;span style=&quot;font-size: 13px;&quot;&gt;A1&lt;/span&gt;&lt;/font&gt;" style="text;html=1;strokeColor=none;fillColor=none;align=center;verticalAlign=middle;whiteSpace=wrap;rounded=0;strokeWidth=1;sketch=1;" parent="Oh-IbdJAaRqJVPJ2qe_I-1" vertex="1">
                    <mxGeometry x="6371.17" y="325.0000000000002" width="109" height="29" as="geometry"/>
                </mxCell>
                <mxCell id="tNmkC3opJ2AgtzRq_YRS-384" value="" style="line;strokeWidth=2;html=1;fontFamily=Nunito Sans;fontSource=https%3A%2F%2Ffonts.googleapis.com%2Fcss%3Ffamily%3DNunito%2BSans;fontSize=15;fillColor=none;rounded=0;sketch=1;" parent="Oh-IbdJAaRqJVPJ2qe_I-1" vertex="1">
                    <mxGeometry x="6310.17" y="311.85000000000014" width="560" height="9" as="geometry"/>
                </mxCell>
                <mxCell id="tNmkC3opJ2AgtzRq_YRS-385" value="&lt;font face=&quot;Nunito Sans&quot;&gt;&lt;span style=&quot;font-size: 13px;&quot;&gt;A2&lt;/span&gt;&lt;/font&gt;" style="text;html=1;strokeColor=none;fillColor=none;align=center;verticalAlign=middle;whiteSpace=wrap;rounded=0;strokeWidth=1;sketch=1;" parent="Oh-IbdJAaRqJVPJ2qe_I-1" vertex="1">
                    <mxGeometry x="6373.17" y="363.3599999999999" width="109" height="29" as="geometry"/>
                </mxCell>
                <mxCell id="tNmkC3opJ2AgtzRq_YRS-386" value="" style="line;strokeWidth=2;html=1;fontFamily=Nunito Sans;fontSource=https%3A%2F%2Ffonts.googleapis.com%2Fcss%3Ffamily%3DNunito%2BSans;fontSize=15;fillColor=none;rounded=0;sketch=1;" parent="Oh-IbdJAaRqJVPJ2qe_I-1" vertex="1">
                    <mxGeometry x="6310.17" y="358.39999999999986" width="560" height="9" as="geometry"/>
                </mxCell>
                <mxCell id="tNmkC3opJ2AgtzRq_YRS-387" value="&lt;font face=&quot;Nunito Sans&quot;&gt;&lt;span style=&quot;font-size: 13px;&quot;&gt;A3&lt;/span&gt;&lt;/font&gt;" style="text;html=1;strokeColor=none;fillColor=none;align=center;verticalAlign=middle;whiteSpace=wrap;rounded=0;strokeWidth=1;sketch=1;" parent="Oh-IbdJAaRqJVPJ2qe_I-1" vertex="1">
                    <mxGeometry x="6373.17" y="405.6400000000001" width="109" height="29" as="geometry"/>
                </mxCell>
                <mxCell id="tNmkC3opJ2AgtzRq_YRS-388" value="" style="line;strokeWidth=2;html=1;fontFamily=Nunito Sans;fontSource=https%3A%2F%2Ffonts.googleapis.com%2Fcss%3Ffamily%3DNunito%2BSans;fontSize=15;fillColor=none;rounded=0;sketch=1;" parent="Oh-IbdJAaRqJVPJ2qe_I-1" vertex="1">
                    <mxGeometry x="6310.17" y="397.85000000000014" width="560" height="9" as="geometry"/>
                </mxCell>
                <mxCell id="tNmkC3opJ2AgtzRq_YRS-389" value="&lt;font face=&quot;Nunito Sans&quot;&gt;&lt;span style=&quot;font-size: 13px;&quot;&gt;A4&lt;/span&gt;&lt;/font&gt;" style="text;html=1;strokeColor=none;fillColor=none;align=center;verticalAlign=middle;whiteSpace=wrap;rounded=0;strokeWidth=1;sketch=1;" parent="Oh-IbdJAaRqJVPJ2qe_I-1" vertex="1">
                    <mxGeometry x="6373.17" y="444.85000000000014" width="109" height="29" as="geometry"/>
                </mxCell>
                <mxCell id="tNmkC3opJ2AgtzRq_YRS-390" value="" style="line;strokeWidth=2;html=1;fontFamily=Nunito Sans;fontSource=https%3A%2F%2Ffonts.googleapis.com%2Fcss%3Ffamily%3DNunito%2BSans;fontSize=15;fillColor=none;rounded=0;sketch=1;" parent="Oh-IbdJAaRqJVPJ2qe_I-1" vertex="1">
                    <mxGeometry x="6310.17" y="441.39999999999986" width="560" height="9" as="geometry"/>
                </mxCell>
                <mxCell id="tNmkC3opJ2AgtzRq_YRS-391" value="&lt;font face=&quot;Nunito Sans&quot;&gt;&lt;span style=&quot;font-size: 13px;&quot;&gt;A5&lt;/span&gt;&lt;/font&gt;" style="text;html=1;strokeColor=none;fillColor=none;align=center;verticalAlign=middle;whiteSpace=wrap;rounded=0;strokeWidth=1;sketch=1;" parent="Oh-IbdJAaRqJVPJ2qe_I-1" vertex="1">
                    <mxGeometry x="6373.17" y="483.04999999999995" width="109" height="29" as="geometry"/>
                </mxCell>
                <mxCell id="tNmkC3opJ2AgtzRq_YRS-392" value="" style="line;strokeWidth=2;html=1;fontFamily=Nunito Sans;fontSource=https%3A%2F%2Ffonts.googleapis.com%2Fcss%3Ffamily%3DNunito%2BSans;fontSize=15;fillColor=none;rotation=-270;rounded=0;sketch=1;" parent="Oh-IbdJAaRqJVPJ2qe_I-1" vertex="1">
                    <mxGeometry x="6352.42" y="372.31999999999994" width="271.25" height="9" as="geometry"/>
                </mxCell>
                <mxCell id="tNmkC3opJ2AgtzRq_YRS-393" value="" style="line;strokeWidth=2;html=1;fontFamily=Nunito Sans;fontSource=https%3A%2F%2Ffonts.googleapis.com%2Fcss%3Ffamily%3DNunito%2BSans;fontSize=15;fillColor=none;rounded=0;sketch=1;" parent="Oh-IbdJAaRqJVPJ2qe_I-1" vertex="1">
                    <mxGeometry x="6310.17" y="473.95000000000005" width="560" height="9" as="geometry"/>
                </mxCell>
                <mxCell id="tNmkC3opJ2AgtzRq_YRS-394" value="" style="line;strokeWidth=2;html=1;fontFamily=Nunito Sans;fontSource=https%3A%2F%2Ffonts.googleapis.com%2Fcss%3Ffamily%3DNunito%2BSans;fontSize=15;fillColor=none;rotation=-270;rounded=0;sketch=1;" parent="Oh-IbdJAaRqJVPJ2qe_I-1" vertex="1">
                    <mxGeometry x="6405.61" y="369.83000000000015" width="270" height="9" as="geometry"/>
                </mxCell>
                <mxCell id="tNmkC3opJ2AgtzRq_YRS-395" value="" style="line;strokeWidth=2;html=1;fontFamily=Nunito Sans;fontSource=https%3A%2F%2Ffonts.googleapis.com%2Fcss%3Ffamily%3DNunito%2BSans;fontSize=15;fillColor=none;rotation=-270;rounded=0;sketch=1;" parent="Oh-IbdJAaRqJVPJ2qe_I-1" vertex="1">
                    <mxGeometry x="6226.92" y="370.26" width="268.25" height="9" as="geometry"/>
                </mxCell>
                <mxCell id="tNmkC3opJ2AgtzRq_YRS-396" value="" style="line;strokeWidth=2;html=1;fontFamily=Nunito Sans;fontSource=https%3A%2F%2Ffonts.googleapis.com%2Fcss%3Ffamily%3DNunito%2BSans;fontSize=15;fillColor=none;rotation=-270;rounded=0;sketch=1;" parent="Oh-IbdJAaRqJVPJ2qe_I-1" vertex="1">
                    <mxGeometry x="6463.7" y="371.14999999999986" width="270" height="9" as="geometry"/>
                </mxCell>
                <mxCell id="tNmkC3opJ2AgtzRq_YRS-397" value="" style="line;strokeWidth=2;html=1;fontFamily=Nunito Sans;fontSource=https%3A%2F%2Ffonts.googleapis.com%2Fcss%3Ffamily%3DNunito%2BSans;fontSize=15;fillColor=none;rotation=-270;rounded=0;sketch=1;" parent="Oh-IbdJAaRqJVPJ2qe_I-1" vertex="1">
                    <mxGeometry x="6533.049999999999" y="370.6400000000001" width="270.43" height="9" as="geometry"/>
                </mxCell>
                <mxCell id="tNmkC3opJ2AgtzRq_YRS-398" value="" style="line;strokeWidth=2;html=1;fontFamily=Nunito Sans;fontSource=https%3A%2F%2Ffonts.googleapis.com%2Fcss%3Ffamily%3DNunito%2BSans;fontSize=15;fillColor=none;rotation=-270;rounded=0;sketch=1;" parent="Oh-IbdJAaRqJVPJ2qe_I-1" vertex="1">
                    <mxGeometry x="6589.2" y="373.2299999999998" width="273" height="9" as="geometry"/>
                </mxCell>
                <mxCell id="tNmkC3opJ2AgtzRq_YRS-399" value="&lt;font style=&quot;font-size: 13px;&quot; face=&quot;Nunito Sans&quot;&gt;1&lt;/font&gt;" style="text;html=1;strokeColor=none;fillColor=none;align=center;verticalAlign=middle;whiteSpace=wrap;rounded=0;strokeWidth=1;sketch=1;" parent="Oh-IbdJAaRqJVPJ2qe_I-1" vertex="1">
                    <mxGeometry x="6455.92" y="321.95000000000005" width="109" height="29" as="geometry"/>
                </mxCell>
                <mxCell id="tNmkC3opJ2AgtzRq_YRS-400" value="&lt;font style=&quot;font-size: 13px;&quot; face=&quot;Nunito Sans&quot;&gt;2&lt;/font&gt;" style="text;html=1;strokeColor=none;fillColor=none;align=center;verticalAlign=middle;whiteSpace=wrap;rounded=0;strokeWidth=1;sketch=1;" parent="Oh-IbdJAaRqJVPJ2qe_I-1" vertex="1">
                    <mxGeometry x="6505.92" y="322.04999999999995" width="109" height="29" as="geometry"/>
                </mxCell>
                <mxCell id="tNmkC3opJ2AgtzRq_YRS-401" value="&lt;font style=&quot;font-size: 13px;&quot; face=&quot;Nunito Sans&quot;&gt;3&lt;/font&gt;" style="text;html=1;strokeColor=none;fillColor=none;align=center;verticalAlign=middle;whiteSpace=wrap;rounded=0;strokeWidth=1;sketch=1;" parent="Oh-IbdJAaRqJVPJ2qe_I-1" vertex="1">
                    <mxGeometry x="6575.92" y="325.0000000000002" width="109" height="29" as="geometry"/>
                </mxCell>
                <mxCell id="tNmkC3opJ2AgtzRq_YRS-402" value="&lt;font style=&quot;font-size: 13px;&quot; face=&quot;Nunito Sans&quot;&gt;4&lt;/font&gt;" style="text;html=1;strokeColor=none;fillColor=none;align=center;verticalAlign=middle;whiteSpace=wrap;rounded=0;strokeWidth=1;sketch=1;" parent="Oh-IbdJAaRqJVPJ2qe_I-1" vertex="1">
                    <mxGeometry x="6633.98" y="326.04999999999995" width="109" height="29" as="geometry"/>
                </mxCell>
                <mxCell id="tNmkC3opJ2AgtzRq_YRS-403" value="&lt;font style=&quot;font-size: 13px;&quot; face=&quot;Nunito Sans&quot;&gt;1&lt;/font&gt;" style="text;html=1;strokeColor=none;fillColor=none;align=center;verticalAlign=middle;whiteSpace=wrap;rounded=0;strokeWidth=1;sketch=1;" parent="Oh-IbdJAaRqJVPJ2qe_I-1" vertex="1">
                    <mxGeometry x="6455.92" y="362.5000000000002" width="109" height="29" as="geometry"/>
                </mxCell>
                <mxCell id="tNmkC3opJ2AgtzRq_YRS-404" value="&lt;font style=&quot;font-size: 13px;&quot; face=&quot;Nunito Sans&quot;&gt;2&lt;/font&gt;" style="text;html=1;strokeColor=none;fillColor=none;align=center;verticalAlign=middle;whiteSpace=wrap;rounded=0;strokeWidth=1;sketch=1;" parent="Oh-IbdJAaRqJVPJ2qe_I-1" vertex="1">
                    <mxGeometry x="6505.92" y="363.3599999999999" width="109" height="29" as="geometry"/>
                </mxCell>
                <mxCell id="tNmkC3opJ2AgtzRq_YRS-405" value="&lt;font style=&quot;font-size: 13px;&quot; face=&quot;Nunito Sans&quot;&gt;3&lt;/font&gt;" style="text;html=1;strokeColor=none;fillColor=none;align=center;verticalAlign=middle;whiteSpace=wrap;rounded=0;strokeWidth=1;sketch=1;" parent="Oh-IbdJAaRqJVPJ2qe_I-1" vertex="1">
                    <mxGeometry x="6575.92" y="365.5500000000004" width="109" height="29" as="geometry"/>
                </mxCell>
                <mxCell id="tNmkC3opJ2AgtzRq_YRS-406" value="&lt;font style=&quot;font-size: 13px;&quot; face=&quot;Nunito Sans&quot;&gt;4&lt;/font&gt;" style="text;html=1;strokeColor=none;fillColor=none;align=center;verticalAlign=middle;whiteSpace=wrap;rounded=0;strokeWidth=1;sketch=1;" parent="Oh-IbdJAaRqJVPJ2qe_I-1" vertex="1">
                    <mxGeometry x="6633.98" y="366.68000000000006" width="109" height="29" as="geometry"/>
                </mxCell>
                <mxCell id="tNmkC3opJ2AgtzRq_YRS-407" value="&lt;font style=&quot;font-size: 13px;&quot; face=&quot;Nunito Sans&quot;&gt;1&lt;/font&gt;" style="text;html=1;strokeColor=none;fillColor=none;align=center;verticalAlign=middle;whiteSpace=wrap;rounded=0;strokeWidth=1;sketch=1;" parent="Oh-IbdJAaRqJVPJ2qe_I-1" vertex="1">
                    <mxGeometry x="6455.92" y="403.04999999999995" width="109" height="29" as="geometry"/>
                </mxCell>
                <mxCell id="tNmkC3opJ2AgtzRq_YRS-408" value="&lt;font style=&quot;font-size: 13px;&quot; face=&quot;Nunito Sans&quot;&gt;2&lt;/font&gt;" style="text;html=1;strokeColor=none;fillColor=none;align=center;verticalAlign=middle;whiteSpace=wrap;rounded=0;strokeWidth=1;sketch=1;" parent="Oh-IbdJAaRqJVPJ2qe_I-1" vertex="1">
                    <mxGeometry x="6505.92" y="404.04999999999995" width="109" height="29" as="geometry"/>
                </mxCell>
                <mxCell id="tNmkC3opJ2AgtzRq_YRS-409" value="&lt;font style=&quot;font-size: 13px;&quot; face=&quot;Nunito Sans&quot;&gt;3&lt;/font&gt;" style="text;html=1;strokeColor=none;fillColor=none;align=center;verticalAlign=middle;whiteSpace=wrap;rounded=0;strokeWidth=1;sketch=1;" parent="Oh-IbdJAaRqJVPJ2qe_I-1" vertex="1">
                    <mxGeometry x="6575.92" y="403.78" width="109" height="29" as="geometry"/>
                </mxCell>
                <mxCell id="tNmkC3opJ2AgtzRq_YRS-410" value="&lt;font style=&quot;font-size: 13px;&quot; face=&quot;Nunito Sans&quot;&gt;4&lt;/font&gt;" style="text;html=1;strokeColor=none;fillColor=none;align=center;verticalAlign=middle;whiteSpace=wrap;rounded=0;strokeWidth=1;sketch=1;" parent="Oh-IbdJAaRqJVPJ2qe_I-1" vertex="1">
                    <mxGeometry x="6633.98" y="407.5000000000002" width="109" height="29" as="geometry"/>
                </mxCell>
                <mxCell id="tNmkC3opJ2AgtzRq_YRS-411" value="&lt;font style=&quot;font-size: 13px;&quot; face=&quot;Nunito Sans&quot;&gt;1&lt;/font&gt;" style="text;html=1;strokeColor=none;fillColor=none;align=center;verticalAlign=middle;whiteSpace=wrap;rounded=0;strokeWidth=1;sketch=1;" parent="Oh-IbdJAaRqJVPJ2qe_I-1" vertex="1">
                    <mxGeometry x="6455.92" y="446.95000000000005" width="109" height="29" as="geometry"/>
                </mxCell>
                <mxCell id="tNmkC3opJ2AgtzRq_YRS-412" value="&lt;font style=&quot;font-size: 13px;&quot; face=&quot;Nunito Sans&quot;&gt;2&lt;/font&gt;" style="text;html=1;strokeColor=none;fillColor=none;align=center;verticalAlign=middle;whiteSpace=wrap;rounded=0;strokeWidth=1;sketch=1;" parent="Oh-IbdJAaRqJVPJ2qe_I-1" vertex="1">
                    <mxGeometry x="6505.92" y="445.04999999999995" width="109" height="29" as="geometry"/>
                </mxCell>
                <mxCell id="tNmkC3opJ2AgtzRq_YRS-413" value="&lt;font style=&quot;font-size: 13px;&quot; face=&quot;Nunito Sans&quot;&gt;3&lt;/font&gt;" style="text;html=1;strokeColor=none;fillColor=none;align=center;verticalAlign=middle;whiteSpace=wrap;rounded=0;strokeWidth=1;sketch=1;" parent="Oh-IbdJAaRqJVPJ2qe_I-1" vertex="1">
                    <mxGeometry x="6575.92" y="444.04999999999995" width="109" height="29" as="geometry"/>
                </mxCell>
                <mxCell id="tNmkC3opJ2AgtzRq_YRS-414" value="&lt;font style=&quot;font-size: 13px;&quot; face=&quot;Nunito Sans&quot;&gt;4&lt;/font&gt;" style="text;html=1;strokeColor=none;fillColor=none;align=center;verticalAlign=middle;whiteSpace=wrap;rounded=0;strokeWidth=1;sketch=1;" parent="Oh-IbdJAaRqJVPJ2qe_I-1" vertex="1">
                    <mxGeometry x="6633.98" y="445.54999999999995" width="109" height="29" as="geometry"/>
                </mxCell>
                <mxCell id="tNmkC3opJ2AgtzRq_YRS-415" value="&lt;font style=&quot;font-size: 13px;&quot; face=&quot;Nunito Sans&quot;&gt;1&lt;/font&gt;" style="text;html=1;strokeColor=none;fillColor=none;align=center;verticalAlign=middle;whiteSpace=wrap;rounded=0;strokeWidth=1;sketch=1;" parent="Oh-IbdJAaRqJVPJ2qe_I-1" vertex="1">
                    <mxGeometry x="6455.92" y="483.04999999999995" width="109" height="29" as="geometry"/>
                </mxCell>
                <mxCell id="tNmkC3opJ2AgtzRq_YRS-416" value="&lt;font style=&quot;font-size: 13px;&quot; face=&quot;Nunito Sans&quot;&gt;2&lt;/font&gt;" style="text;html=1;strokeColor=none;fillColor=none;align=center;verticalAlign=middle;whiteSpace=wrap;rounded=0;strokeWidth=1;sketch=1;" parent="Oh-IbdJAaRqJVPJ2qe_I-1" vertex="1">
                    <mxGeometry x="6501.92" y="486.04999999999995" width="109" height="29" as="geometry"/>
                </mxCell>
                <mxCell id="tNmkC3opJ2AgtzRq_YRS-417" value="&lt;font style=&quot;font-size: 13px;&quot; face=&quot;Nunito Sans&quot;&gt;3&lt;/font&gt;" style="text;html=1;strokeColor=none;fillColor=none;align=center;verticalAlign=middle;whiteSpace=wrap;rounded=0;strokeWidth=1;sketch=1;" parent="Oh-IbdJAaRqJVPJ2qe_I-1" vertex="1">
                    <mxGeometry x="6575.92" y="487.0000000000002" width="109" height="29" as="geometry"/>
                </mxCell>
                <mxCell id="tNmkC3opJ2AgtzRq_YRS-418" value="&lt;font style=&quot;font-size: 13px;&quot; face=&quot;Nunito Sans&quot;&gt;4&lt;/font&gt;" style="text;html=1;strokeColor=none;fillColor=none;align=center;verticalAlign=middle;whiteSpace=wrap;rounded=0;strokeWidth=1;sketch=1;" parent="Oh-IbdJAaRqJVPJ2qe_I-1" vertex="1">
                    <mxGeometry x="6633.98" y="487.0000000000002" width="109" height="29" as="geometry"/>
                </mxCell>
                <mxCell id="tNmkC3opJ2AgtzRq_YRS-419" value="" style="line;strokeWidth=2;html=1;fontFamily=Nunito Sans;fontSource=https%3A%2F%2Ffonts.googleapis.com%2Fcss%3Ffamily%3DNunito%2BSans;fontSize=15;fillColor=none;rotation=-270;rounded=0;sketch=1;" parent="Oh-IbdJAaRqJVPJ2qe_I-1" vertex="1">
                    <mxGeometry x="6174.299999999999" y="370.1400000000001" width="270" height="9" as="geometry"/>
                </mxCell>
                <mxCell id="tNmkC3opJ2AgtzRq_YRS-420" value="&lt;font style=&quot;font-size: 13px;&quot; face=&quot;Nunito Sans&quot;&gt;25&lt;/font&gt;" style="text;html=1;strokeColor=none;fillColor=none;align=center;verticalAlign=middle;whiteSpace=wrap;rounded=0;strokeWidth=1;sketch=1;" parent="Oh-IbdJAaRqJVPJ2qe_I-1" vertex="1">
                    <mxGeometry x="6460.17" y="284.85000000000014" width="109" height="29" as="geometry"/>
                </mxCell>
                <mxCell id="tNmkC3opJ2AgtzRq_YRS-421" value="&lt;font style=&quot;font-size: 13px;&quot; face=&quot;Nunito Sans&quot;&gt;25&lt;/font&gt;" style="text;html=1;strokeColor=none;fillColor=none;align=center;verticalAlign=middle;whiteSpace=wrap;rounded=0;strokeWidth=1;sketch=1;" parent="Oh-IbdJAaRqJVPJ2qe_I-1" vertex="1">
                    <mxGeometry x="6512.17" y="285.95000000000005" width="109" height="29" as="geometry"/>
                </mxCell>
                <mxCell id="tNmkC3opJ2AgtzRq_YRS-422" value="&lt;font style=&quot;font-size: 13px;&quot; face=&quot;Nunito Sans&quot;&gt;25&lt;/font&gt;" style="text;html=1;strokeColor=none;fillColor=none;align=center;verticalAlign=middle;whiteSpace=wrap;rounded=0;strokeWidth=1;sketch=1;" parent="Oh-IbdJAaRqJVPJ2qe_I-1" vertex="1">
                    <mxGeometry x="6575.17" y="285.89999999999986" width="109" height="29" as="geometry"/>
                </mxCell>
                <mxCell id="tNmkC3opJ2AgtzRq_YRS-423" value="&lt;font style=&quot;font-size: 13px;&quot; face=&quot;Nunito Sans&quot;&gt;25&lt;/font&gt;" style="text;html=1;strokeColor=none;fillColor=none;align=center;verticalAlign=middle;whiteSpace=wrap;rounded=0;strokeWidth=1;sketch=1;" parent="Oh-IbdJAaRqJVPJ2qe_I-1" vertex="1">
                    <mxGeometry x="6639.98" y="283.85000000000014" width="109" height="29" as="geometry"/>
                </mxCell>
                <mxCell id="tNmkC3opJ2AgtzRq_YRS-424" value="" style="line;strokeWidth=2;html=1;fontFamily=Nunito Sans;fontSource=https%3A%2F%2Ffonts.googleapis.com%2Fcss%3Ffamily%3DNunito%2BSans;fontSize=15;fillColor=none;rounded=0;sketch=1;" parent="Oh-IbdJAaRqJVPJ2qe_I-1" vertex="1">
                    <mxGeometry x="6310.17" y="507.95000000000005" width="560" height="9" as="geometry"/>
                </mxCell>
                <mxCell id="tNmkC3opJ2AgtzRq_YRS-425" value="&lt;font style=&quot;font-size: 13px;&quot; face=&quot;Nunito Sans&quot;&gt;Rank&lt;/font&gt;" style="text;html=1;strokeColor=none;fillColor=none;align=center;verticalAlign=middle;whiteSpace=wrap;rounded=0;strokeWidth=1;sketch=1;" parent="Oh-IbdJAaRqJVPJ2qe_I-1" vertex="1">
                    <mxGeometry x="6781.03" y="273.0000000000002" width="109" height="29" as="geometry"/>
                </mxCell>
                <mxCell id="tNmkC3opJ2AgtzRq_YRS-426" value="" style="line;strokeWidth=2;html=1;fontFamily=Nunito Sans;fontSource=https%3A%2F%2Ffonts.googleapis.com%2Fcss%3Ffamily%3DNunito%2BSans;fontSize=15;fillColor=none;rotation=-270;rounded=0;sketch=1;" parent="Oh-IbdJAaRqJVPJ2qe_I-1" vertex="1">
                    <mxGeometry x="6733.7" y="371.95000000000005" width="270" height="9" as="geometry"/>
                </mxCell>
                <mxCell id="tNmkC3opJ2AgtzRq_YRS-427" value="" style="line;strokeWidth=2;html=1;fontFamily=Nunito Sans;fontSource=https%3A%2F%2Ffonts.googleapis.com%2Fcss%3Ffamily%3DNunito%2BSans;fontSize=15;fillColor=none;rotation=-270;rounded=0;sketch=1;" parent="Oh-IbdJAaRqJVPJ2qe_I-1" vertex="1">
                    <mxGeometry x="6660.17" y="371.95000000000005" width="270" height="9" as="geometry"/>
                </mxCell>
                <mxCell id="tNmkC3opJ2AgtzRq_YRS-428" value="&lt;font style=&quot;font-size: 13px;&quot; face=&quot;Nunito Sans&quot;&gt;10&lt;/font&gt;" style="text;html=1;strokeColor=none;fillColor=none;align=center;verticalAlign=middle;whiteSpace=wrap;rounded=0;strokeWidth=1;sketch=1;" parent="Oh-IbdJAaRqJVPJ2qe_I-1" vertex="1">
                    <mxGeometry x="6700.17" y="325.0000000000002" width="109" height="29" as="geometry"/>
                </mxCell>
                <mxCell id="tNmkC3opJ2AgtzRq_YRS-429" value="&lt;font style=&quot;font-size: 13px;&quot; face=&quot;Nunito Sans&quot;&gt;10&lt;/font&gt;" style="text;html=1;strokeColor=none;fillColor=none;align=center;verticalAlign=middle;whiteSpace=wrap;rounded=0;strokeWidth=1;sketch=1;" parent="Oh-IbdJAaRqJVPJ2qe_I-1" vertex="1">
                    <mxGeometry x="6701.17" y="369.6400000000001" width="109" height="29" as="geometry"/>
                </mxCell>
                <mxCell id="tNmkC3opJ2AgtzRq_YRS-430" value="&lt;font style=&quot;font-size: 13px;&quot; face=&quot;Nunito Sans&quot;&gt;10&lt;/font&gt;" style="text;html=1;strokeColor=none;fillColor=none;align=center;verticalAlign=middle;whiteSpace=wrap;rounded=0;strokeWidth=1;sketch=1;" parent="Oh-IbdJAaRqJVPJ2qe_I-1" vertex="1">
                    <mxGeometry x="6700.17" y="407.85000000000014" width="109" height="29" as="geometry"/>
                </mxCell>
                <mxCell id="tNmkC3opJ2AgtzRq_YRS-431" value="&lt;font style=&quot;font-size: 13px;&quot; face=&quot;Nunito Sans&quot;&gt;10&lt;/font&gt;" style="text;html=1;strokeColor=none;fillColor=none;align=center;verticalAlign=middle;whiteSpace=wrap;rounded=0;strokeWidth=1;sketch=1;" parent="Oh-IbdJAaRqJVPJ2qe_I-1" vertex="1">
                    <mxGeometry x="6701.17" y="446.95000000000005" width="109" height="29" as="geometry"/>
                </mxCell>
                <mxCell id="tNmkC3opJ2AgtzRq_YRS-432" value="&lt;font style=&quot;font-size: 13px;&quot; face=&quot;Nunito Sans&quot;&gt;10&lt;/font&gt;" style="text;html=1;strokeColor=none;fillColor=none;align=center;verticalAlign=middle;whiteSpace=wrap;rounded=0;strokeWidth=1;sketch=1;" parent="Oh-IbdJAaRqJVPJ2qe_I-1" vertex="1">
                    <mxGeometry x="6701.17" y="483.95000000000005" width="109" height="29" as="geometry"/>
                </mxCell>
                <mxCell id="tNmkC3opJ2AgtzRq_YRS-433" value="&lt;font style=&quot;font-size: 13px;&quot; face=&quot;Nunito Sans&quot;&gt;1&lt;/font&gt;" style="text;html=1;strokeColor=none;fillColor=none;align=center;verticalAlign=middle;whiteSpace=wrap;rounded=0;strokeWidth=1;sketch=1;" parent="Oh-IbdJAaRqJVPJ2qe_I-1" vertex="1">
                    <mxGeometry x="6779.03" y="330.0500000000004" width="109" height="29" as="geometry"/>
                </mxCell>
                <mxCell id="tNmkC3opJ2AgtzRq_YRS-434" value="&lt;font style=&quot;font-size: 13px;&quot; face=&quot;Nunito Sans&quot;&gt;2&lt;/font&gt;" style="text;html=1;strokeColor=none;fillColor=none;align=center;verticalAlign=middle;whiteSpace=wrap;rounded=0;strokeWidth=1;sketch=1;" parent="Oh-IbdJAaRqJVPJ2qe_I-1" vertex="1">
                    <mxGeometry x="6780.03" y="371.5000000000002" width="109" height="29" as="geometry"/>
                </mxCell>
                <mxCell id="tNmkC3opJ2AgtzRq_YRS-435" value="&lt;font style=&quot;font-size: 13px;&quot; face=&quot;Nunito Sans&quot;&gt;3&lt;/font&gt;" style="text;html=1;strokeColor=none;fillColor=none;align=center;verticalAlign=middle;whiteSpace=wrap;rounded=0;strokeWidth=1;sketch=1;" parent="Oh-IbdJAaRqJVPJ2qe_I-1" vertex="1">
                    <mxGeometry x="6779.03" y="412.0000000000002" width="109" height="29" as="geometry"/>
                </mxCell>
                <mxCell id="tNmkC3opJ2AgtzRq_YRS-436" value="&lt;font style=&quot;font-size: 13px;&quot; face=&quot;Nunito Sans&quot;&gt;4&lt;/font&gt;" style="text;html=1;strokeColor=none;fillColor=none;align=center;verticalAlign=middle;whiteSpace=wrap;rounded=0;strokeWidth=1;sketch=1;" parent="Oh-IbdJAaRqJVPJ2qe_I-1" vertex="1">
                    <mxGeometry x="6779.03" y="454.0000000000002" width="109" height="29" as="geometry"/>
                </mxCell>
                <mxCell id="tNmkC3opJ2AgtzRq_YRS-437" value="&lt;font style=&quot;font-size: 13px;&quot; face=&quot;Nunito Sans&quot;&gt;5&lt;/font&gt;" style="text;html=1;strokeColor=none;fillColor=none;align=center;verticalAlign=middle;whiteSpace=wrap;rounded=0;strokeWidth=1;sketch=1;" parent="Oh-IbdJAaRqJVPJ2qe_I-1" vertex="1">
                    <mxGeometry x="6779.03" y="484.0000000000002" width="109" height="29" as="geometry"/>
                </mxCell>
                <mxCell id="tNmkC3opJ2AgtzRq_YRS-438" value="Bobot" style="text;html=1;strokeColor=none;fillColor=none;align=center;verticalAlign=middle;whiteSpace=wrap;rounded=0;strokeWidth=1;sketch=1;" parent="Oh-IbdJAaRqJVPJ2qe_I-1" vertex="1">
                    <mxGeometry x="6276.78" y="286.89999999999986" width="109" height="29" as="geometry"/>
                </mxCell>
            </root>
        </mxGraphModel>
    </diagram>
    <diagram id="VjlWhGCtRFardn_EQBUE" name="Relasi Tabel">
        <mxGraphModel dx="564" dy="478" grid="1" gridSize="10" guides="1" tooltips="1" connect="1" arrows="1" fold="1" page="1" pageScale="1" pageWidth="850" pageHeight="1100" math="0" shadow="0">
            <root>
                <mxCell id="VpOcAe4m3lRn1HMy5XLt-0"/>
                <mxCell id="VpOcAe4m3lRn1HMy5XLt-1" parent="VpOcAe4m3lRn1HMy5XLt-0"/>
                <mxCell id="VpOcAe4m3lRn1HMy5XLt-2" value="karyawan" style="shape=table;startSize=30;container=1;collapsible=1;childLayout=tableLayout;fixedRows=1;rowLines=0;fontStyle=1;align=center;resizeLast=1;" parent="VpOcAe4m3lRn1HMy5XLt-1" vertex="1">
                    <mxGeometry x="330" y="180" width="180" height="220" as="geometry"/>
                </mxCell>
                <mxCell id="VpOcAe4m3lRn1HMy5XLt-3" value="" style="shape=partialRectangle;collapsible=0;dropTarget=0;pointerEvents=0;fillColor=none;top=0;left=0;bottom=1;right=0;points=[[0,0.5],[1,0.5]];portConstraint=eastwest;" parent="VpOcAe4m3lRn1HMy5XLt-2" vertex="1">
                    <mxGeometry y="30" width="180" height="30" as="geometry"/>
                </mxCell>
                <mxCell id="VpOcAe4m3lRn1HMy5XLt-4" value="PK" style="shape=partialRectangle;connectable=0;fillColor=none;top=0;left=0;bottom=0;right=0;fontStyle=1;overflow=hidden;" parent="VpOcAe4m3lRn1HMy5XLt-3" vertex="1">
                    <mxGeometry width="30" height="30" as="geometry"/>
                </mxCell>
                <mxCell id="VpOcAe4m3lRn1HMy5XLt-5" value="id_karyawan (int. 11)" style="shape=partialRectangle;connectable=0;fillColor=none;top=0;left=0;bottom=0;right=0;align=left;spacingLeft=6;fontStyle=5;overflow=hidden;" parent="VpOcAe4m3lRn1HMy5XLt-3" vertex="1">
                    <mxGeometry x="30" width="150" height="30" as="geometry"/>
                </mxCell>
                <mxCell id="VpOcAe4m3lRn1HMy5XLt-6" value="" style="shape=partialRectangle;collapsible=0;dropTarget=0;pointerEvents=0;fillColor=none;top=0;left=0;bottom=0;right=0;points=[[0,0.5],[1,0.5]];portConstraint=eastwest;" parent="VpOcAe4m3lRn1HMy5XLt-2" vertex="1">
                    <mxGeometry y="60" width="180" height="30" as="geometry"/>
                </mxCell>
                <mxCell id="VpOcAe4m3lRn1HMy5XLt-7" value="" style="shape=partialRectangle;connectable=0;fillColor=none;top=0;left=0;bottom=0;right=0;editable=1;overflow=hidden;" parent="VpOcAe4m3lRn1HMy5XLt-6" vertex="1">
                    <mxGeometry width="30" height="30" as="geometry"/>
                </mxCell>
                <mxCell id="VpOcAe4m3lRn1HMy5XLt-8" value="nip (char, 6)" style="shape=partialRectangle;connectable=0;fillColor=none;top=0;left=0;bottom=0;right=0;align=left;spacingLeft=6;overflow=hidden;" parent="VpOcAe4m3lRn1HMy5XLt-6" vertex="1">
                    <mxGeometry x="30" width="150" height="30" as="geometry"/>
                </mxCell>
                <mxCell id="VpOcAe4m3lRn1HMy5XLt-9" value="" style="shape=partialRectangle;collapsible=0;dropTarget=0;pointerEvents=0;fillColor=none;top=0;left=0;bottom=0;right=0;points=[[0,0.5],[1,0.5]];portConstraint=eastwest;" parent="VpOcAe4m3lRn1HMy5XLt-2" vertex="1">
                    <mxGeometry y="90" width="180" height="30" as="geometry"/>
                </mxCell>
                <mxCell id="VpOcAe4m3lRn1HMy5XLt-10" value="" style="shape=partialRectangle;connectable=0;fillColor=none;top=0;left=0;bottom=0;right=0;editable=1;overflow=hidden;" parent="VpOcAe4m3lRn1HMy5XLt-9" vertex="1">
                    <mxGeometry width="30" height="30" as="geometry"/>
                </mxCell>
                <mxCell id="VpOcAe4m3lRn1HMy5XLt-11" value="nama (varchar, 50)" style="shape=partialRectangle;connectable=0;fillColor=none;top=0;left=0;bottom=0;right=0;align=left;spacingLeft=6;overflow=hidden;" parent="VpOcAe4m3lRn1HMy5XLt-9" vertex="1">
                    <mxGeometry x="30" width="150" height="30" as="geometry"/>
                </mxCell>
                <mxCell id="VpOcAe4m3lRn1HMy5XLt-12" value="" style="shape=partialRectangle;collapsible=0;dropTarget=0;pointerEvents=0;fillColor=none;top=0;left=0;bottom=0;right=0;points=[[0,0.5],[1,0.5]];portConstraint=eastwest;" parent="VpOcAe4m3lRn1HMy5XLt-2" vertex="1">
                    <mxGeometry y="120" width="180" height="30" as="geometry"/>
                </mxCell>
                <mxCell id="VpOcAe4m3lRn1HMy5XLt-13" value="" style="shape=partialRectangle;connectable=0;fillColor=none;top=0;left=0;bottom=0;right=0;editable=1;overflow=hidden;" parent="VpOcAe4m3lRn1HMy5XLt-12" vertex="1">
                    <mxGeometry width="30" height="30" as="geometry"/>
                </mxCell>
                <mxCell id="VpOcAe4m3lRn1HMy5XLt-14" value="jns_kel (enum, &quot;L&quot;,&quot;P&quot;)" style="shape=partialRectangle;connectable=0;fillColor=none;top=0;left=0;bottom=0;right=0;align=left;spacingLeft=6;overflow=hidden;" parent="VpOcAe4m3lRn1HMy5XLt-12" vertex="1">
                    <mxGeometry x="30" width="150" height="30" as="geometry"/>
                </mxCell>
                <mxCell id="VpOcAe4m3lRn1HMy5XLt-15" value="" style="shape=partialRectangle;collapsible=0;dropTarget=0;pointerEvents=0;fillColor=none;top=0;left=0;bottom=0;right=0;points=[[0,0.5],[1,0.5]];portConstraint=eastwest;" parent="VpOcAe4m3lRn1HMy5XLt-2" vertex="1">
                    <mxGeometry y="150" width="180" height="30" as="geometry"/>
                </mxCell>
                <mxCell id="VpOcAe4m3lRn1HMy5XLt-16" value="" style="shape=partialRectangle;connectable=0;fillColor=none;top=0;left=0;bottom=0;right=0;editable=1;overflow=hidden;" parent="VpOcAe4m3lRn1HMy5XLt-15" vertex="1">
                    <mxGeometry width="30" height="30" as="geometry"/>
                </mxCell>
                <mxCell id="VpOcAe4m3lRn1HMy5XLt-17" value="alamat (varchar,100)" style="shape=partialRectangle;connectable=0;fillColor=none;top=0;left=0;bottom=0;right=0;align=left;spacingLeft=6;overflow=hidden;" parent="VpOcAe4m3lRn1HMy5XLt-15" vertex="1">
                    <mxGeometry x="30" width="150" height="30" as="geometry"/>
                </mxCell>
                <mxCell id="VpOcAe4m3lRn1HMy5XLt-18" value="" style="shape=partialRectangle;collapsible=0;dropTarget=0;pointerEvents=0;fillColor=none;top=0;left=0;bottom=0;right=0;points=[[0,0.5],[1,0.5]];portConstraint=eastwest;" parent="VpOcAe4m3lRn1HMy5XLt-2" vertex="1">
                    <mxGeometry y="180" width="180" height="30" as="geometry"/>
                </mxCell>
                <mxCell id="VpOcAe4m3lRn1HMy5XLt-19" value="" style="shape=partialRectangle;connectable=0;fillColor=none;top=0;left=0;bottom=0;right=0;editable=1;overflow=hidden;" parent="VpOcAe4m3lRn1HMy5XLt-18" vertex="1">
                    <mxGeometry width="30" height="30" as="geometry"/>
                </mxCell>
                <mxCell id="VpOcAe4m3lRn1HMy5XLt-20" value="alamat (varchar,100)" style="shape=partialRectangle;connectable=0;fillColor=none;top=0;left=0;bottom=0;right=0;align=left;spacingLeft=6;overflow=hidden;" parent="VpOcAe4m3lRn1HMy5XLt-18" vertex="1">
                    <mxGeometry x="30" width="150" height="30" as="geometry"/>
                </mxCell>
                <mxCell id="VpOcAe4m3lRn1HMy5XLt-21" value="kriteria" style="shape=table;startSize=30;container=1;collapsible=1;childLayout=tableLayout;fixedRows=1;rowLines=0;fontStyle=1;align=center;resizeLast=1;" parent="VpOcAe4m3lRn1HMy5XLt-1" vertex="1">
                    <mxGeometry x="330" y="420" width="184" height="210" as="geometry"/>
                </mxCell>
                <mxCell id="VpOcAe4m3lRn1HMy5XLt-22" value="" style="shape=partialRectangle;collapsible=0;dropTarget=0;pointerEvents=0;fillColor=none;top=0;left=0;bottom=1;right=0;points=[[0,0.5],[1,0.5]];portConstraint=eastwest;" parent="VpOcAe4m3lRn1HMy5XLt-21" vertex="1">
                    <mxGeometry y="30" width="184" height="30" as="geometry"/>
                </mxCell>
                <mxCell id="VpOcAe4m3lRn1HMy5XLt-23" value="PK" style="shape=partialRectangle;connectable=0;fillColor=none;top=0;left=0;bottom=0;right=0;fontStyle=1;overflow=hidden;" parent="VpOcAe4m3lRn1HMy5XLt-22" vertex="1">
                    <mxGeometry width="30" height="30" as="geometry"/>
                </mxCell>
                <mxCell id="VpOcAe4m3lRn1HMy5XLt-24" value="id_kriteria (int, 11)" style="shape=partialRectangle;connectable=0;fillColor=none;top=0;left=0;bottom=0;right=0;align=left;spacingLeft=6;fontStyle=5;overflow=hidden;" parent="VpOcAe4m3lRn1HMy5XLt-22" vertex="1">
                    <mxGeometry x="30" width="154" height="30" as="geometry"/>
                </mxCell>
                <mxCell id="VpOcAe4m3lRn1HMy5XLt-25" value="" style="shape=partialRectangle;collapsible=0;dropTarget=0;pointerEvents=0;fillColor=none;top=0;left=0;bottom=0;right=0;points=[[0,0.5],[1,0.5]];portConstraint=eastwest;" parent="VpOcAe4m3lRn1HMy5XLt-21" vertex="1">
                    <mxGeometry y="60" width="184" height="40" as="geometry"/>
                </mxCell>
                <mxCell id="VpOcAe4m3lRn1HMy5XLt-26" value="" style="shape=partialRectangle;connectable=0;fillColor=none;top=0;left=0;bottom=0;right=0;editable=1;overflow=hidden;" parent="VpOcAe4m3lRn1HMy5XLt-25" vertex="1">
                    <mxGeometry width="30" height="40" as="geometry"/>
                </mxCell>
                <mxCell id="VpOcAe4m3lRn1HMy5XLt-27" value="nama_kriteria (varchar, 20)" style="shape=partialRectangle;connectable=0;fillColor=none;top=0;left=0;bottom=0;right=0;align=left;spacingLeft=6;overflow=hidden;" parent="VpOcAe4m3lRn1HMy5XLt-25" vertex="1">
                    <mxGeometry x="30" width="154" height="40" as="geometry"/>
                </mxCell>
                <mxCell id="VpOcAe4m3lRn1HMy5XLt-131" value="" style="shape=partialRectangle;collapsible=0;dropTarget=0;pointerEvents=0;fillColor=none;top=0;left=0;bottom=0;right=0;points=[[0,0.5],[1,0.5]];portConstraint=eastwest;" parent="VpOcAe4m3lRn1HMy5XLt-21" vertex="1">
                    <mxGeometry y="100" width="184" height="40" as="geometry"/>
                </mxCell>
                <mxCell id="VpOcAe4m3lRn1HMy5XLt-132" value="" style="shape=partialRectangle;connectable=0;fillColor=none;top=0;left=0;bottom=0;right=0;editable=1;overflow=hidden;" parent="VpOcAe4m3lRn1HMy5XLt-131" vertex="1">
                    <mxGeometry width="30" height="40" as="geometry"/>
                </mxCell>
                <mxCell id="VpOcAe4m3lRn1HMy5XLt-133" value="type ( enum, &quot;L&quot;,&quot;P&quot;)" style="shape=partialRectangle;connectable=0;fillColor=none;top=0;left=0;bottom=0;right=0;align=left;spacingLeft=6;overflow=hidden;" parent="VpOcAe4m3lRn1HMy5XLt-131" vertex="1">
                    <mxGeometry x="30" width="154" height="40" as="geometry"/>
                </mxCell>
                <mxCell id="VpOcAe4m3lRn1HMy5XLt-28" value="" style="shape=partialRectangle;collapsible=0;dropTarget=0;pointerEvents=0;fillColor=none;top=0;left=0;bottom=0;right=0;points=[[0,0.5],[1,0.5]];portConstraint=eastwest;" parent="VpOcAe4m3lRn1HMy5XLt-21" vertex="1">
                    <mxGeometry y="140" width="184" height="30" as="geometry"/>
                </mxCell>
                <mxCell id="VpOcAe4m3lRn1HMy5XLt-29" value="" style="shape=partialRectangle;connectable=0;fillColor=none;top=0;left=0;bottom=0;right=0;editable=1;overflow=hidden;" parent="VpOcAe4m3lRn1HMy5XLt-28" vertex="1">
                    <mxGeometry width="30" height="30" as="geometry"/>
                </mxCell>
                <mxCell id="VpOcAe4m3lRn1HMy5XLt-30" value="" style="shape=partialRectangle;connectable=0;fillColor=none;top=0;left=0;bottom=0;right=0;align=left;spacingLeft=6;overflow=hidden;" parent="VpOcAe4m3lRn1HMy5XLt-28" vertex="1">
                    <mxGeometry x="30" width="154" height="30" as="geometry"/>
                </mxCell>
                <mxCell id="VpOcAe4m3lRn1HMy5XLt-31" value="" style="shape=partialRectangle;collapsible=0;dropTarget=0;pointerEvents=0;fillColor=none;top=0;left=0;bottom=0;right=0;points=[[0,0.5],[1,0.5]];portConstraint=eastwest;" parent="VpOcAe4m3lRn1HMy5XLt-21" vertex="1">
                    <mxGeometry y="170" width="184" height="30" as="geometry"/>
                </mxCell>
                <mxCell id="VpOcAe4m3lRn1HMy5XLt-32" value="" style="shape=partialRectangle;connectable=0;fillColor=none;top=0;left=0;bottom=0;right=0;editable=1;overflow=hidden;" parent="VpOcAe4m3lRn1HMy5XLt-31" vertex="1">
                    <mxGeometry width="30" height="30" as="geometry"/>
                </mxCell>
                <mxCell id="VpOcAe4m3lRn1HMy5XLt-33" value="" style="shape=partialRectangle;connectable=0;fillColor=none;top=0;left=0;bottom=0;right=0;align=left;spacingLeft=6;overflow=hidden;" parent="VpOcAe4m3lRn1HMy5XLt-31" vertex="1">
                    <mxGeometry x="30" width="154" height="30" as="geometry"/>
                </mxCell>
                <mxCell id="VpOcAe4m3lRn1HMy5XLt-34" value="kriteria" style="shape=table;startSize=30;container=1;collapsible=1;childLayout=tableLayout;fixedRows=1;rowLines=0;fontStyle=1;align=center;resizeLast=1;" parent="VpOcAe4m3lRn1HMy5XLt-1" vertex="1">
                    <mxGeometry x="920" y="250" width="180" height="140" as="geometry"/>
                </mxCell>
                <mxCell id="VpOcAe4m3lRn1HMy5XLt-35" value="" style="shape=partialRectangle;collapsible=0;dropTarget=0;pointerEvents=0;fillColor=none;top=0;left=0;bottom=1;right=0;points=[[0,0.5],[1,0.5]];portConstraint=eastwest;" parent="VpOcAe4m3lRn1HMy5XLt-34" vertex="1">
                    <mxGeometry y="30" width="180" height="30" as="geometry"/>
                </mxCell>
                <mxCell id="VpOcAe4m3lRn1HMy5XLt-36" value="PK" style="shape=partialRectangle;connectable=0;fillColor=none;top=0;left=0;bottom=0;right=0;fontStyle=1;overflow=hidden;" parent="VpOcAe4m3lRn1HMy5XLt-35" vertex="1">
                    <mxGeometry width="30" height="30" as="geometry"/>
                </mxCell>
                <mxCell id="VpOcAe4m3lRn1HMy5XLt-37" value="id_periode (int, 11)" style="shape=partialRectangle;connectable=0;fillColor=none;top=0;left=0;bottom=0;right=0;align=left;spacingLeft=6;fontStyle=5;overflow=hidden;" parent="VpOcAe4m3lRn1HMy5XLt-35" vertex="1">
                    <mxGeometry x="30" width="150" height="30" as="geometry"/>
                </mxCell>
                <mxCell id="VpOcAe4m3lRn1HMy5XLt-38" value="" style="shape=partialRectangle;collapsible=0;dropTarget=0;pointerEvents=0;fillColor=none;top=0;left=0;bottom=0;right=0;points=[[0,0.5],[1,0.5]];portConstraint=eastwest;" parent="VpOcAe4m3lRn1HMy5XLt-34" vertex="1">
                    <mxGeometry y="60" width="180" height="40" as="geometry"/>
                </mxCell>
                <mxCell id="VpOcAe4m3lRn1HMy5XLt-39" value="" style="shape=partialRectangle;connectable=0;fillColor=none;top=0;left=0;bottom=0;right=0;editable=1;overflow=hidden;" parent="VpOcAe4m3lRn1HMy5XLt-38" vertex="1">
                    <mxGeometry width="30" height="40" as="geometry"/>
                </mxCell>
                <mxCell id="VpOcAe4m3lRn1HMy5XLt-40" value="tahun (date)" style="shape=partialRectangle;connectable=0;fillColor=none;top=0;left=0;bottom=0;right=0;align=left;spacingLeft=6;overflow=hidden;" parent="VpOcAe4m3lRn1HMy5XLt-38" vertex="1">
                    <mxGeometry x="30" width="150" height="40" as="geometry"/>
                </mxCell>
                <mxCell id="VpOcAe4m3lRn1HMy5XLt-41" value="" style="shape=partialRectangle;collapsible=0;dropTarget=0;pointerEvents=0;fillColor=none;top=0;left=0;bottom=0;right=0;points=[[0,0.5],[1,0.5]];portConstraint=eastwest;" parent="VpOcAe4m3lRn1HMy5XLt-34" vertex="1">
                    <mxGeometry y="100" width="180" height="30" as="geometry"/>
                </mxCell>
                <mxCell id="VpOcAe4m3lRn1HMy5XLt-42" value="" style="shape=partialRectangle;connectable=0;fillColor=none;top=0;left=0;bottom=0;right=0;editable=1;overflow=hidden;" parent="VpOcAe4m3lRn1HMy5XLt-41" vertex="1">
                    <mxGeometry width="30" height="30" as="geometry"/>
                </mxCell>
                <mxCell id="VpOcAe4m3lRn1HMy5XLt-43" value="" style="shape=partialRectangle;connectable=0;fillColor=none;top=0;left=0;bottom=0;right=0;align=left;spacingLeft=6;overflow=hidden;" parent="VpOcAe4m3lRn1HMy5XLt-41" vertex="1">
                    <mxGeometry x="30" width="150" height="30" as="geometry"/>
                </mxCell>
                <mxCell id="VpOcAe4m3lRn1HMy5XLt-47" value="kriteria periode" style="shape=table;startSize=30;container=1;collapsible=1;childLayout=tableLayout;fixedRows=1;rowLines=0;fontStyle=1;align=center;resizeLast=1;" parent="VpOcAe4m3lRn1HMy5XLt-1" vertex="1">
                    <mxGeometry x="670" y="455" width="190" height="190" as="geometry"/>
                </mxCell>
                <mxCell id="VpOcAe4m3lRn1HMy5XLt-48" value="" style="shape=partialRectangle;collapsible=0;dropTarget=0;pointerEvents=0;fillColor=none;top=0;left=0;bottom=1;right=0;points=[[0,0.5],[1,0.5]];portConstraint=eastwest;" parent="VpOcAe4m3lRn1HMy5XLt-47" vertex="1">
                    <mxGeometry y="30" width="190" height="30" as="geometry"/>
                </mxCell>
                <mxCell id="VpOcAe4m3lRn1HMy5XLt-49" value="PK" style="shape=partialRectangle;connectable=0;fillColor=none;top=0;left=0;bottom=0;right=0;fontStyle=1;overflow=hidden;" parent="VpOcAe4m3lRn1HMy5XLt-48" vertex="1">
                    <mxGeometry width="30" height="30" as="geometry"/>
                </mxCell>
                <mxCell id="VpOcAe4m3lRn1HMy5XLt-50" value="id_kriteria periode (int, 11)" style="shape=partialRectangle;connectable=0;fillColor=none;top=0;left=0;bottom=0;right=0;align=left;spacingLeft=6;fontStyle=5;overflow=hidden;" parent="VpOcAe4m3lRn1HMy5XLt-48" vertex="1">
                    <mxGeometry x="30" width="160" height="30" as="geometry"/>
                </mxCell>
                <mxCell id="VpOcAe4m3lRn1HMy5XLt-60" value="" style="shape=partialRectangle;collapsible=0;dropTarget=0;pointerEvents=0;fillColor=none;top=0;left=0;bottom=1;right=0;points=[[0,0.5],[1,0.5]];portConstraint=eastwest;" parent="VpOcAe4m3lRn1HMy5XLt-47" vertex="1">
                    <mxGeometry y="60" width="190" height="30" as="geometry"/>
                </mxCell>
                <mxCell id="VpOcAe4m3lRn1HMy5XLt-61" value="FK" style="shape=partialRectangle;connectable=0;fillColor=none;top=0;left=0;bottom=0;right=0;fontStyle=1;overflow=hidden;" parent="VpOcAe4m3lRn1HMy5XLt-60" vertex="1">
                    <mxGeometry width="30" height="30" as="geometry"/>
                </mxCell>
                <mxCell id="VpOcAe4m3lRn1HMy5XLt-62" value="id_kriteria (int, 11)" style="shape=partialRectangle;connectable=0;fillColor=none;top=0;left=0;bottom=0;right=0;align=left;spacingLeft=6;fontStyle=5;overflow=hidden;" parent="VpOcAe4m3lRn1HMy5XLt-60" vertex="1">
                    <mxGeometry x="30" width="160" height="30" as="geometry"/>
                </mxCell>
                <mxCell id="VpOcAe4m3lRn1HMy5XLt-63" value="" style="shape=partialRectangle;collapsible=0;dropTarget=0;pointerEvents=0;fillColor=none;top=0;left=0;bottom=1;right=0;points=[[0,0.5],[1,0.5]];portConstraint=eastwest;" parent="VpOcAe4m3lRn1HMy5XLt-47" vertex="1">
                    <mxGeometry y="90" width="190" height="30" as="geometry"/>
                </mxCell>
                <mxCell id="VpOcAe4m3lRn1HMy5XLt-64" value="FK" style="shape=partialRectangle;connectable=0;fillColor=none;top=0;left=0;bottom=0;right=0;fontStyle=1;overflow=hidden;" parent="VpOcAe4m3lRn1HMy5XLt-63" vertex="1">
                    <mxGeometry width="30" height="30" as="geometry"/>
                </mxCell>
                <mxCell id="VpOcAe4m3lRn1HMy5XLt-65" value="id_periode (int, 11)" style="shape=partialRectangle;connectable=0;fillColor=none;top=0;left=0;bottom=0;right=0;align=left;spacingLeft=6;fontStyle=5;overflow=hidden;" parent="VpOcAe4m3lRn1HMy5XLt-63" vertex="1">
                    <mxGeometry x="30" width="160" height="30" as="geometry"/>
                </mxCell>
                <mxCell id="VpOcAe4m3lRn1HMy5XLt-51" value="" style="shape=partialRectangle;collapsible=0;dropTarget=0;pointerEvents=0;fillColor=none;top=0;left=0;bottom=0;right=0;points=[[0,0.5],[1,0.5]];portConstraint=eastwest;" parent="VpOcAe4m3lRn1HMy5XLt-47" vertex="1">
                    <mxGeometry y="120" width="190" height="40" as="geometry"/>
                </mxCell>
                <mxCell id="VpOcAe4m3lRn1HMy5XLt-52" value="" style="shape=partialRectangle;connectable=0;fillColor=none;top=0;left=0;bottom=0;right=0;editable=1;overflow=hidden;" parent="VpOcAe4m3lRn1HMy5XLt-51" vertex="1">
                    <mxGeometry width="30" height="40" as="geometry"/>
                </mxCell>
                <mxCell id="VpOcAe4m3lRn1HMy5XLt-53" value="deskripsi (varchar, 100)" style="shape=partialRectangle;connectable=0;fillColor=none;top=0;left=0;bottom=0;right=0;align=left;spacingLeft=6;overflow=hidden;" parent="VpOcAe4m3lRn1HMy5XLt-51" vertex="1">
                    <mxGeometry x="30" width="160" height="40" as="geometry"/>
                </mxCell>
                <mxCell id="VpOcAe4m3lRn1HMy5XLt-54" value="" style="shape=partialRectangle;collapsible=0;dropTarget=0;pointerEvents=0;fillColor=none;top=0;left=0;bottom=0;right=0;points=[[0,0.5],[1,0.5]];portConstraint=eastwest;" parent="VpOcAe4m3lRn1HMy5XLt-47" vertex="1">
                    <mxGeometry y="160" width="190" height="20" as="geometry"/>
                </mxCell>
                <mxCell id="VpOcAe4m3lRn1HMy5XLt-55" value="" style="shape=partialRectangle;connectable=0;fillColor=none;top=0;left=0;bottom=0;right=0;editable=1;overflow=hidden;" parent="VpOcAe4m3lRn1HMy5XLt-54" vertex="1">
                    <mxGeometry width="30" height="20" as="geometry"/>
                </mxCell>
                <mxCell id="VpOcAe4m3lRn1HMy5XLt-56" value="bobot (doubel,1)" style="shape=partialRectangle;connectable=0;fillColor=none;top=0;left=0;bottom=0;right=0;align=left;spacingLeft=6;overflow=hidden;" parent="VpOcAe4m3lRn1HMy5XLt-54" vertex="1">
                    <mxGeometry x="30" width="160" height="20" as="geometry"/>
                </mxCell>
                <mxCell id="VpOcAe4m3lRn1HMy5XLt-69" value="" style="edgeStyle=entityRelationEdgeStyle;fontSize=12;html=1;endArrow=ERoneToMany;exitX=1;exitY=0.167;exitDx=0;exitDy=0;exitPerimeter=0;entryX=0;entryY=0.5;entryDx=0;entryDy=0;startArrow=ERone;startFill=0;" parent="VpOcAe4m3lRn1HMy5XLt-1" source="VpOcAe4m3lRn1HMy5XLt-22" target="VpOcAe4m3lRn1HMy5XLt-60" edge="1">
                    <mxGeometry width="100" height="100" relative="1" as="geometry">
                        <mxPoint x="560" y="225" as="sourcePoint"/>
                        <mxPoint x="550" y="505" as="targetPoint"/>
                    </mxGeometry>
                </mxCell>
                <mxCell id="VpOcAe4m3lRn1HMy5XLt-70" value="" style="edgeStyle=entityRelationEdgeStyle;fontSize=12;html=1;endArrow=ERoneToMany;entryX=0;entryY=0.5;entryDx=0;entryDy=0;exitX=1;exitY=0.5;exitDx=0;exitDy=0;startArrow=ERmany;startFill=0;" parent="VpOcAe4m3lRn1HMy5XLt-1" source="VpOcAe4m3lRn1HMy5XLt-63" target="VpOcAe4m3lRn1HMy5XLt-35" edge="1">
                    <mxGeometry width="100" height="100" relative="1" as="geometry">
                        <mxPoint x="960" y="480" as="sourcePoint"/>
                        <mxPoint x="770" y="330" as="targetPoint"/>
                    </mxGeometry>
                </mxCell>
                <mxCell id="VpOcAe4m3lRn1HMy5XLt-71" value="penilaian" style="shape=table;startSize=30;container=1;collapsible=1;childLayout=tableLayout;fixedRows=1;rowLines=0;fontStyle=1;align=center;resizeLast=1;movable=0;resizable=0;rotatable=0;deletable=0;editable=0;connectable=0;" parent="VpOcAe4m3lRn1HMy5XLt-1" vertex="1">
                    <mxGeometry x="590" y="720" width="200" height="180" as="geometry"/>
                </mxCell>
                <mxCell id="VpOcAe4m3lRn1HMy5XLt-72" value="" style="shape=partialRectangle;collapsible=0;dropTarget=0;pointerEvents=0;fillColor=none;top=0;left=0;bottom=1;right=0;points=[[0,0.5],[1,0.5]];portConstraint=eastwest;" parent="VpOcAe4m3lRn1HMy5XLt-71" vertex="1">
                    <mxGeometry y="30" width="200" height="20" as="geometry"/>
                </mxCell>
                <mxCell id="VpOcAe4m3lRn1HMy5XLt-73" value="PK" style="shape=partialRectangle;connectable=0;fillColor=none;top=0;left=0;bottom=0;right=0;fontStyle=1;overflow=hidden;" parent="VpOcAe4m3lRn1HMy5XLt-72" vertex="1">
                    <mxGeometry width="30" height="20" as="geometry"/>
                </mxCell>
                <mxCell id="VpOcAe4m3lRn1HMy5XLt-74" value="id_penilaian (int. 11)" style="shape=partialRectangle;connectable=0;fillColor=none;top=0;left=0;bottom=0;right=0;align=left;spacingLeft=6;fontStyle=5;overflow=hidden;" parent="VpOcAe4m3lRn1HMy5XLt-72" vertex="1">
                    <mxGeometry x="30" width="170" height="20" as="geometry"/>
                </mxCell>
                <mxCell id="VpOcAe4m3lRn1HMy5XLt-91" value="" style="shape=partialRectangle;collapsible=0;dropTarget=0;pointerEvents=0;fillColor=none;top=0;left=0;bottom=1;right=0;points=[[0,0.5],[1,0.5]];portConstraint=eastwest;" parent="VpOcAe4m3lRn1HMy5XLt-71" vertex="1">
                    <mxGeometry y="50" width="200" height="30" as="geometry"/>
                </mxCell>
                <mxCell id="VpOcAe4m3lRn1HMy5XLt-92" value="PK" style="shape=partialRectangle;connectable=0;fillColor=none;top=0;left=0;bottom=0;right=0;fontStyle=1;overflow=hidden;" parent="VpOcAe4m3lRn1HMy5XLt-91" vertex="1">
                    <mxGeometry width="30" height="30" as="geometry"/>
                </mxCell>
                <mxCell id="VpOcAe4m3lRn1HMy5XLt-93" value="id_karyawan (int, 11)" style="shape=partialRectangle;connectable=0;fillColor=none;top=0;left=0;bottom=0;right=0;align=left;spacingLeft=6;fontStyle=5;overflow=hidden;" parent="VpOcAe4m3lRn1HMy5XLt-91" vertex="1">
                    <mxGeometry x="30" width="170" height="30" as="geometry"/>
                </mxCell>
                <mxCell id="VpOcAe4m3lRn1HMy5XLt-94" value="" style="shape=partialRectangle;collapsible=0;dropTarget=0;pointerEvents=0;fillColor=none;top=0;left=0;bottom=1;right=0;points=[[0,0.5],[1,0.5]];portConstraint=eastwest;" parent="VpOcAe4m3lRn1HMy5XLt-71" vertex="1">
                    <mxGeometry y="80" width="200" height="30" as="geometry"/>
                </mxCell>
                <mxCell id="VpOcAe4m3lRn1HMy5XLt-95" value="PK" style="shape=partialRectangle;connectable=0;fillColor=none;top=0;left=0;bottom=0;right=0;fontStyle=1;overflow=hidden;" parent="VpOcAe4m3lRn1HMy5XLt-94" vertex="1">
                    <mxGeometry width="30" height="30" as="geometry"/>
                </mxCell>
                <mxCell id="VpOcAe4m3lRn1HMy5XLt-96" value="id_kriteria periode (int, 11)" style="shape=partialRectangle;connectable=0;fillColor=none;top=0;left=0;bottom=0;right=0;align=left;spacingLeft=6;fontStyle=5;overflow=hidden;" parent="VpOcAe4m3lRn1HMy5XLt-94" vertex="1">
                    <mxGeometry x="30" width="170" height="30" as="geometry"/>
                </mxCell>
                <mxCell id="VpOcAe4m3lRn1HMy5XLt-75" value="" style="shape=partialRectangle;collapsible=0;dropTarget=0;pointerEvents=0;fillColor=none;top=0;left=0;bottom=0;right=0;points=[[0,0.5],[1,0.5]];portConstraint=eastwest;" parent="VpOcAe4m3lRn1HMy5XLt-71" vertex="1">
                    <mxGeometry y="110" width="200" height="30" as="geometry"/>
                </mxCell>
                <mxCell id="VpOcAe4m3lRn1HMy5XLt-76" value="" style="shape=partialRectangle;connectable=0;fillColor=none;top=0;left=0;bottom=0;right=0;editable=1;overflow=hidden;" parent="VpOcAe4m3lRn1HMy5XLt-75" vertex="1">
                    <mxGeometry width="30" height="30" as="geometry"/>
                </mxCell>
                <mxCell id="VpOcAe4m3lRn1HMy5XLt-77" value="timestimp" style="shape=partialRectangle;connectable=0;fillColor=none;top=0;left=0;bottom=0;right=0;align=left;spacingLeft=6;overflow=hidden;" parent="VpOcAe4m3lRn1HMy5XLt-75" vertex="1">
                    <mxGeometry x="30" width="170" height="30" as="geometry"/>
                </mxCell>
                <mxCell id="VpOcAe4m3lRn1HMy5XLt-78" value="" style="shape=partialRectangle;collapsible=0;dropTarget=0;pointerEvents=0;fillColor=none;top=0;left=0;bottom=0;right=0;points=[[0,0.5],[1,0.5]];portConstraint=eastwest;" parent="VpOcAe4m3lRn1HMy5XLt-71" vertex="1">
                    <mxGeometry y="140" width="200" height="30" as="geometry"/>
                </mxCell>
                <mxCell id="VpOcAe4m3lRn1HMy5XLt-79" value="" style="shape=partialRectangle;connectable=0;fillColor=none;top=0;left=0;bottom=0;right=0;editable=1;overflow=hidden;" parent="VpOcAe4m3lRn1HMy5XLt-78" vertex="1">
                    <mxGeometry width="30" height="30" as="geometry"/>
                </mxCell>
                <mxCell id="VpOcAe4m3lRn1HMy5XLt-80" value="nilai (doubel, 3)" style="shape=partialRectangle;connectable=0;fillColor=none;top=0;left=0;bottom=0;right=0;align=left;spacingLeft=6;overflow=hidden;" parent="VpOcAe4m3lRn1HMy5XLt-78" vertex="1">
                    <mxGeometry x="30" width="170" height="30" as="geometry"/>
                </mxCell>
                <mxCell id="VpOcAe4m3lRn1HMy5XLt-97" style="edgeStyle=orthogonalEdgeStyle;rounded=0;orthogonalLoop=1;jettySize=auto;html=1;exitX=0;exitY=0.5;exitDx=0;exitDy=0;startArrow=ERone;startFill=0;entryX=1;entryY=0.5;entryDx=0;entryDy=0;endArrow=ERone;endFill=0;" parent="VpOcAe4m3lRn1HMy5XLt-1" source="VpOcAe4m3lRn1HMy5XLt-48" target="VpOcAe4m3lRn1HMy5XLt-94" edge="1">
                    <mxGeometry relative="1" as="geometry">
                        <mxPoint x="620" y="720" as="targetPoint"/>
                    </mxGeometry>
                </mxCell>
                <mxCell id="VpOcAe4m3lRn1HMy5XLt-98" style="edgeStyle=orthogonalEdgeStyle;rounded=0;orthogonalLoop=1;jettySize=auto;html=1;exitX=1;exitY=0.5;exitDx=0;exitDy=0;entryX=0;entryY=0.5;entryDx=0;entryDy=0;startArrow=ERone;startFill=0;endArrow=ERone;endFill=0;" parent="VpOcAe4m3lRn1HMy5XLt-1" source="VpOcAe4m3lRn1HMy5XLt-3" target="VpOcAe4m3lRn1HMy5XLt-91" edge="1">
                    <mxGeometry relative="1" as="geometry"/>
                </mxCell>
                <mxCell id="VpOcAe4m3lRn1HMy5XLt-150" value="perangkingan" style="shape=table;startSize=30;container=1;collapsible=1;childLayout=tableLayout;fixedRows=1;rowLines=0;fontStyle=1;align=center;resizeLast=1;" parent="VpOcAe4m3lRn1HMy5XLt-1" vertex="1">
                    <mxGeometry x="324" y="880" width="190" height="190" as="geometry"/>
                </mxCell>
                <mxCell id="VpOcAe4m3lRn1HMy5XLt-151" value="" style="shape=partialRectangle;collapsible=0;dropTarget=0;pointerEvents=0;fillColor=none;top=0;left=0;bottom=1;right=0;points=[[0,0.5],[1,0.5]];portConstraint=eastwest;" parent="VpOcAe4m3lRn1HMy5XLt-150" vertex="1">
                    <mxGeometry y="30" width="190" height="30" as="geometry"/>
                </mxCell>
                <mxCell id="VpOcAe4m3lRn1HMy5XLt-152" value="PK" style="shape=partialRectangle;connectable=0;fillColor=none;top=0;left=0;bottom=0;right=0;fontStyle=1;overflow=hidden;" parent="VpOcAe4m3lRn1HMy5XLt-151" vertex="1">
                    <mxGeometry width="30" height="30" as="geometry"/>
                </mxCell>
                <mxCell id="VpOcAe4m3lRn1HMy5XLt-153" value="id_perangkingan (int, 11)" style="shape=partialRectangle;connectable=0;fillColor=none;top=0;left=0;bottom=0;right=0;align=left;spacingLeft=6;fontStyle=5;overflow=hidden;" parent="VpOcAe4m3lRn1HMy5XLt-151" vertex="1">
                    <mxGeometry x="30" width="160" height="30" as="geometry"/>
                </mxCell>
                <mxCell id="VpOcAe4m3lRn1HMy5XLt-154" value="" style="shape=partialRectangle;collapsible=0;dropTarget=0;pointerEvents=0;fillColor=none;top=0;left=0;bottom=1;right=0;points=[[0,0.5],[1,0.5]];portConstraint=eastwest;" parent="VpOcAe4m3lRn1HMy5XLt-150" vertex="1">
                    <mxGeometry y="60" width="190" height="30" as="geometry"/>
                </mxCell>
                <mxCell id="VpOcAe4m3lRn1HMy5XLt-155" value="PK" style="shape=partialRectangle;connectable=0;fillColor=none;top=0;left=0;bottom=0;right=0;fontStyle=1;overflow=hidden;" parent="VpOcAe4m3lRn1HMy5XLt-154" vertex="1">
                    <mxGeometry width="30" height="30" as="geometry"/>
                </mxCell>
                <mxCell id="VpOcAe4m3lRn1HMy5XLt-156" value="id_karwayan (int, 11)" style="shape=partialRectangle;connectable=0;fillColor=none;top=0;left=0;bottom=0;right=0;align=left;spacingLeft=6;fontStyle=5;overflow=hidden;" parent="VpOcAe4m3lRn1HMy5XLt-154" vertex="1">
                    <mxGeometry x="30" width="160" height="30" as="geometry"/>
                </mxCell>
                <mxCell id="VpOcAe4m3lRn1HMy5XLt-157" value="" style="shape=partialRectangle;collapsible=0;dropTarget=0;pointerEvents=0;fillColor=none;top=0;left=0;bottom=1;right=0;points=[[0,0.5],[1,0.5]];portConstraint=eastwest;" parent="VpOcAe4m3lRn1HMy5XLt-150" vertex="1">
                    <mxGeometry y="90" width="190" height="30" as="geometry"/>
                </mxCell>
                <mxCell id="VpOcAe4m3lRn1HMy5XLt-158" value="PK" style="shape=partialRectangle;connectable=0;fillColor=none;top=0;left=0;bottom=0;right=0;fontStyle=1;overflow=hidden;" parent="VpOcAe4m3lRn1HMy5XLt-157" vertex="1">
                    <mxGeometry width="30" height="30" as="geometry"/>
                </mxCell>
                <mxCell id="VpOcAe4m3lRn1HMy5XLt-159" value="id_periode (int, 11)" style="shape=partialRectangle;connectable=0;fillColor=none;top=0;left=0;bottom=0;right=0;align=left;spacingLeft=6;fontStyle=5;overflow=hidden;" parent="VpOcAe4m3lRn1HMy5XLt-157" vertex="1">
                    <mxGeometry x="30" width="160" height="30" as="geometry"/>
                </mxCell>
                <mxCell id="VpOcAe4m3lRn1HMy5XLt-160" value="" style="shape=partialRectangle;collapsible=0;dropTarget=0;pointerEvents=0;fillColor=none;top=0;left=0;bottom=0;right=0;points=[[0,0.5],[1,0.5]];portConstraint=eastwest;" parent="VpOcAe4m3lRn1HMy5XLt-150" vertex="1">
                    <mxGeometry y="120" width="190" height="40" as="geometry"/>
                </mxCell>
                <mxCell id="VpOcAe4m3lRn1HMy5XLt-161" value="" style="shape=partialRectangle;connectable=0;fillColor=none;top=0;left=0;bottom=0;right=0;editable=1;overflow=hidden;" parent="VpOcAe4m3lRn1HMy5XLt-160" vertex="1">
                    <mxGeometry width="30" height="40" as="geometry"/>
                </mxCell>
                <mxCell id="VpOcAe4m3lRn1HMy5XLt-162" value="nilai (doubel, 3)" style="shape=partialRectangle;connectable=0;fillColor=none;top=0;left=0;bottom=0;right=0;align=left;spacingLeft=6;overflow=hidden;" parent="VpOcAe4m3lRn1HMy5XLt-160" vertex="1">
                    <mxGeometry x="30" width="160" height="40" as="geometry"/>
                </mxCell>
                <mxCell id="VpOcAe4m3lRn1HMy5XLt-163" value="" style="shape=partialRectangle;collapsible=0;dropTarget=0;pointerEvents=0;fillColor=none;top=0;left=0;bottom=0;right=0;points=[[0,0.5],[1,0.5]];portConstraint=eastwest;" parent="VpOcAe4m3lRn1HMy5XLt-150" vertex="1">
                    <mxGeometry y="160" width="190" height="20" as="geometry"/>
                </mxCell>
                <mxCell id="VpOcAe4m3lRn1HMy5XLt-164" value="" style="shape=partialRectangle;connectable=0;fillColor=none;top=0;left=0;bottom=0;right=0;editable=1;overflow=hidden;" parent="VpOcAe4m3lRn1HMy5XLt-163" vertex="1">
                    <mxGeometry width="30" height="20" as="geometry"/>
                </mxCell>
                <mxCell id="VpOcAe4m3lRn1HMy5XLt-165" value="rangking (int, 11)" style="shape=partialRectangle;connectable=0;fillColor=none;top=0;left=0;bottom=0;right=0;align=left;spacingLeft=6;overflow=hidden;" parent="VpOcAe4m3lRn1HMy5XLt-163" vertex="1">
                    <mxGeometry x="30" width="160" height="20" as="geometry"/>
                </mxCell>
                <mxCell id="VpOcAe4m3lRn1HMy5XLt-169" style="edgeStyle=orthogonalEdgeStyle;rounded=0;orthogonalLoop=1;jettySize=auto;html=1;exitX=1;exitY=0.5;exitDx=0;exitDy=0;startArrow=ERone;startFill=0;endArrow=ERone;endFill=0;" parent="VpOcAe4m3lRn1HMy5XLt-1" source="VpOcAe4m3lRn1HMy5XLt-157" edge="1">
                    <mxGeometry relative="1" as="geometry">
                        <mxPoint x="670" y="560" as="targetPoint"/>
                        <Array as="points">
                            <mxPoint x="560" y="985"/>
                            <mxPoint x="560" y="560"/>
                        </Array>
                    </mxGeometry>
                </mxCell>
                <mxCell id="VpOcAe4m3lRn1HMy5XLt-170" style="edgeStyle=orthogonalEdgeStyle;rounded=0;orthogonalLoop=1;jettySize=auto;html=1;exitX=0;exitY=0.5;exitDx=0;exitDy=0;entryX=0;entryY=0.5;entryDx=0;entryDy=0;startArrow=ERone;startFill=0;endArrow=ERone;endFill=0;" parent="VpOcAe4m3lRn1HMy5XLt-1" source="VpOcAe4m3lRn1HMy5XLt-154" target="VpOcAe4m3lRn1HMy5XLt-3" edge="1">
                    <mxGeometry relative="1" as="geometry"/>
                </mxCell>
            </root>
        </mxGraphModel>
    </diagram>
</mxfile>